{"glyphs":{"\u0000":{"ha":903,"x_min":0,"x_max":0,"o":""},"\r":{"ha":903,"x_min":0,"x_max":0,"o":""}," ":{"ha":903,"x_min":0,"x_max":0,"o":""},"A":{"ha":576,"x_min":3,"x_max":576,"o":"m 301 151 q 288 172 297 171 q 277 168 281 174 q 269 146 274 163 q 267 119 267 126 q 285 85 267 86 q 304 89 297 82 q 310 101 310 93 q 308 112 310 106 q 305 130 307 118 q 301 151 303 142 m 386 58 q 394 13 386 47 q 401 -35 401 -22 q 408 -72 401 -58 q 414 -94 414 -82 q 400 -119 414 -115 q 392 -121 397 -121 q 347 -44 356 -121 q 332 10 343 -4 q 293 26 321 25 l 289 26 q 253 10 264 26 q 238 -50 242 -7 q 201 -124 232 -124 q 192 -122 194 -124 q 181 -103 181 -118 q 185 -78 181 -83 q 192 11 189 -71 q 200 131 194 82 q 203 172 206 169 q 208 189 201 174 q 218 282 217 203 q 222 352 221 340 q 233 372 224 364 q 260 381 244 381 q 283 371 278 381 q 293 364 288 364 q 322 313 300 364 q 338 255 326 304 q 354 197 349 206 q 367 144 360 189 q 379 90 375 99 q 386 58 386 76 m 399 404 q 242 413 389 411 q 79 404 94 413 l 63 394 l 64 311 q 72 201 64 232 q 82 143 79 178 q 108 -42 93 32 q 132 -153 126 -135 q 144 -188 140 -171 q 148 -213 147 -206 q 153 -227 149 -221 q 169 -235 158 -233 q 206 -236 181 -236 q 300 -235 257 -236 q 451 -224 442 -232 q 458 -164 458 -217 q 457 -68 458 -111 q 447 108 456 72 q 440 188 440 133 q 436 240 440 239 q 432 276 432 242 q 421 357 432 343 q 413 378 419 358 q 399 404 407 399 m 336 719 q 328 747 333 719 q 319 775 322 775 q 315 786 315 775 q 276 864 315 806 q 260 894 260 892 q 256 900 260 900 q 235 926 250 900 q 199 972 217 957 q 161 990 179 990 q 140 968 140 990 q 133 949 140 963 q 125 928 125 935 q 118 901 125 915 q 93 831 107 881 q 78 763 79 781 q 72 739 78 747 q 61 606 61 719 q 63 567 61 575 l 67 538 l 93 535 l 106 535 q 147 554 140 535 q 159 574 150 563 q 171 592 168 586 q 197 608 181 608 q 228 600 208 608 q 265 590 254 590 q 288 600 278 590 q 303 610 297 610 q 322 626 306 610 q 339 682 338 643 q 336 719 342 719 m 106 967 q 115 994 106 972 q 125 1019 125 1015 q 158 1032 125 1032 q 189 1028 178 1032 q 208 1010 201 1025 q 233 988 215 994 q 260 954 249 981 q 282 918 269 931 q 309 885 300 900 q 342 821 318 871 q 363 750 361 783 q 372 704 363 743 q 381 647 381 665 q 374 625 381 631 q 365 596 368 621 q 328 544 358 544 q 308 539 311 544 q 278 535 306 535 q 243 528 253 535 q 235 519 236 522 q 242 503 235 515 l 250 485 l 336 485 l 369 485 q 441 478 426 485 q 461 443 456 471 q 481 314 474 388 q 506 90 497 146 q 518 3 518 8 q 515 -6 518 -3 q 511 -39 511 -8 q 517 -86 511 -81 q 517 -99 522 -92 q 511 -121 511 -104 q 518 -150 511 -139 q 529 -199 526 -161 l 532 -237 l 554 -237 q 576 -246 576 -237 q 563 -265 576 -253 l 549 -278 l 288 -278 l 215 -278 q 24 -269 35 -278 q 19 -253 19 -264 q 63 -240 19 -243 q 106 -232 106 -237 q 100 -228 106 -228 q 88 -140 94 -228 q 69 -47 86 -122 q 63 15 68 -39 q 53 81 58 68 q 35 181 44 97 q 15 324 26 256 q 8 364 10 360 q 3 392 3 386 q 32 450 3 428 q 124 464 50 464 l 139 464 q 172 475 169 464 q 174 488 174 479 q 157 510 174 510 q 138 501 146 510 q 107 493 129 493 q 60 506 75 493 q 44 522 44 515 q 35 547 44 528 q 25 583 25 565 q 26 610 25 599 q 34 684 28 638 q 42 747 40 731 q 56 818 44 774 q 71 868 67 863 q 75 883 75 872 q 79 897 75 894 q 88 924 83 900 q 97 950 93 947 q 106 967 106 958 z "},"B":{"ha":557,"x_min":1,"x_max":557,"o":"m 288 138 q 276 144 279 143 q 269 146 272 146 q 263 143 265 146 q 258 135 261 140 q 251 57 251 121 l 251 -7 l 268 -10 l 272 -10 q 306 10 293 -10 q 319 64 319 31 q 288 138 319 119 m 308 310 q 288 328 299 328 q 279 311 279 328 q 274 290 279 296 q 267 225 267 281 q 268 210 267 211 l 269 210 q 290 223 275 210 q 304 240 304 236 q 313 250 304 242 q 319 271 319 256 q 308 310 319 293 m 217 375 q 257 383 224 383 q 307 374 289 383 q 354 331 325 364 q 365 282 365 318 q 360 247 365 247 q 351 236 354 247 q 333 206 349 224 q 319 182 319 189 q 333 156 319 176 q 359 106 353 126 q 365 44 365 85 q 360 -6 365 -6 q 354 -15 354 -6 q 337 -43 354 -25 q 307 -64 319 -61 q 294 -71 294 -67 q 269 -75 294 -75 q 240 -71 244 -75 q 208 -72 232 -57 q 190 -71 199 -78 q 183 -50 183 -64 q 185 -26 183 -36 q 193 128 189 44 q 201 250 199 243 q 207 311 207 256 q 217 375 207 365 m 397 454 q 363 462 383 454 q 331 469 343 469 q 311 475 314 469 q 286 478 310 478 l 265 478 q 251 479 253 478 q 183 486 247 483 l 122 488 l 122 467 q 115 443 122 444 q 108 422 111 442 q 104 372 106 401 q 101 315 103 343 q 99 260 100 288 q 99 229 99 233 q 96 38 96 174 q 90 -110 96 -93 q 90 -140 88 -117 l 93 -165 l 421 -165 l 421 -106 q 415 -35 421 -46 q 410 99 410 -24 q 415 232 410 221 q 424 280 418 236 q 432 328 429 324 q 435 350 435 333 q 424 440 435 413 q 397 454 417 454 m 388 1025 q 369 1040 385 1040 q 342 1022 356 1040 q 285 961 329 1006 q 243 915 243 922 q 225 890 243 911 q 193 839 193 856 l 193 829 q 188 800 193 806 q 188 776 182 793 q 203 713 200 713 q 211 693 208 713 q 224 665 214 678 q 242 651 233 651 q 250 646 247 651 q 306 635 256 635 q 321 636 317 635 q 358 658 339 642 q 382 676 379 676 q 385 683 385 676 q 400 703 385 690 q 418 729 415 715 q 426 746 421 743 q 431 818 431 750 q 426 890 431 886 q 418 914 421 896 q 411 935 415 935 q 403 959 408 935 q 396 983 397 983 q 390 997 390 986 q 388 1025 390 1008 m 203 921 q 253 975 203 922 q 304 1029 304 1028 q 315 1042 304 1035 q 342 1063 329 1053 q 369 1075 357 1075 q 403 1057 386 1075 q 421 1029 421 1039 q 428 1004 421 1022 q 435 978 435 986 q 446 946 435 965 q 463 874 454 932 q 471 778 471 817 q 467 751 471 756 q 461 735 461 746 q 444 707 461 707 q 435 700 435 707 q 396 651 435 693 q 338 607 356 610 q 304 579 304 601 q 299 563 304 565 q 294 547 294 560 q 297 524 294 533 q 354 515 300 515 q 467 500 458 515 q 486 319 486 463 q 483 99 486 290 q 481 -118 481 -76 l 482 -175 q 521 -179 483 -176 q 551 -185 546 -182 q 557 -197 557 -187 q 551 -210 557 -207 q 510 -215 544 -212 q 450 -222 463 -218 q 435 -222 435 -225 q 366 -212 435 -217 q 242 -208 297 -208 q 201 -211 210 -208 q 106 -219 190 -217 q 46 -221 78 -221 q 11 -212 19 -221 q 1 -193 1 -203 l 4 -171 q 28 -160 10 -143 q 40 -165 38 -167 q 43 -8 43 -160 l 43 135 q 50 232 43 201 q 57 343 57 263 q 61 444 57 444 q 67 471 67 444 q 77 520 67 488 q 103 553 88 553 q 117 546 110 553 q 144 535 128 535 q 165 531 164 535 q 208 522 169 522 q 228 524 222 522 q 244 531 239 526 q 251 549 249 536 q 256 564 253 554 q 260 576 260 574 q 247 603 260 585 q 226 621 233 621 q 210 631 221 621 q 199 644 199 640 q 192 654 199 650 q 165 733 174 669 q 157 765 163 763 q 152 783 153 768 q 157 800 151 797 q 163 826 163 803 q 171 856 163 847 q 176 868 176 861 q 185 892 175 872 q 200 913 196 911 q 203 921 203 915 z "},"C":{"ha":688,"x_min":1,"x_max":688,"o":"m 293 189 q 316 228 293 193 q 339 267 339 264 q 388 303 339 271 q 447 324 419 324 q 492 310 469 324 q 525 283 519 290 q 531 254 531 276 l 531 226 l 497 229 q 444 243 465 232 l 426 254 l 403 231 q 379 200 379 207 q 372 187 379 196 q 364 174 364 178 q 356 157 364 168 q 349 139 349 146 q 343 122 349 128 q 336 67 336 115 q 344 8 336 14 q 361 -11 358 -6 q 386 -25 369 -25 q 421 4 414 -25 l 425 21 q 462 19 438 19 q 499 18 486 19 l 500 0 q 492 -26 501 -17 q 440 -73 451 -65 q 417 -81 429 -81 q 398 -85 406 -81 q 379 -90 390 -90 q 361 -85 369 -90 q 343 -81 353 -81 q 303 -53 322 -81 q 278 10 283 -26 q 274 74 274 39 q 289 174 274 158 q 293 189 293 178 m 218 188 q 210 152 215 188 q 203 117 206 117 q 194 72 200 117 q 183 -22 189 28 q 171 -79 176 -71 q 167 -99 171 -81 q 161 -134 164 -117 q 157 -151 158 -151 q 153 -167 153 -151 q 148 -183 153 -176 q 144 -203 143 -190 q 167 -226 147 -221 q 240 -233 174 -228 q 314 -243 306 -239 q 326 -243 325 -250 q 422 -237 329 -237 l 453 -237 q 511 -233 501 -237 q 521 -208 521 -229 l 521 -194 q 525 -169 521 -172 q 546 -22 531 -164 q 557 33 550 21 q 560 50 563 44 l 558 53 q 558 56 558 54 q 579 140 558 93 q 586 172 586 154 q 592 194 586 189 q 601 228 596 199 q 608 261 606 257 q 615 335 613 265 q 617 376 617 353 q 606 421 617 404 q 546 454 585 454 q 528 460 533 454 q 472 468 525 463 q 417 475 419 474 q 350 483 411 481 q 311 485 333 485 q 291 482 297 485 q 283 475 285 479 q 279 460 281 471 q 273 442 278 451 q 267 417 268 433 q 258 383 265 400 q 250 344 251 367 q 243 300 247 308 q 225 206 239 292 q 218 188 222 188 m 558 1004 q 542 1015 544 1015 q 521 994 539 1015 q 469 940 507 978 q 418 892 432 903 q 394 857 408 883 q 378 833 382 833 q 375 826 375 833 q 364 801 375 821 q 344 772 353 782 q 331 696 331 758 q 332 669 331 676 q 355 623 338 635 q 415 611 372 611 q 457 618 453 611 q 475 626 460 626 q 488 624 486 626 q 490 610 490 621 q 497 591 490 596 q 524 586 504 586 q 543 597 539 586 q 558 618 544 604 q 603 682 579 636 q 613 749 613 700 q 604 817 613 789 q 599 854 594 840 q 599 858 599 856 q 600 864 600 861 q 586 947 600 913 q 558 1004 576 989 m 611 633 q 599 614 611 629 q 586 596 586 599 q 564 574 586 590 q 525 556 542 556 q 497 551 503 556 q 490 529 490 546 l 490 510 l 518 510 q 549 506 547 510 q 593 497 551 500 q 657 465 657 492 q 664 446 657 453 q 669 407 669 440 q 651 290 669 318 q 644 240 650 288 q 636 189 639 192 q 628 150 631 179 q 621 117 625 117 q 608 63 615 117 q 600 -10 600 8 q 595 -47 600 -32 q 589 -81 590 -61 q 569 -217 575 -217 q 567 -232 564 -217 q 583 -246 568 -244 q 603 -243 597 -249 q 649 -237 608 -237 l 688 -237 l 688 -256 q 675 -276 688 -272 l 671 -276 q 660 -277 667 -276 q 644 -278 653 -278 q 623 -278 635 -278 q 599 -278 611 -278 q 523 -277 579 -278 q 432 -276 467 -276 q 199 -268 200 -275 q 129 -262 197 -262 q 71 -268 71 -262 q 62 -273 71 -274 q 49 -268 53 -272 q 26 -261 44 -264 q 1 -237 1 -258 q 3 -226 1 -231 q 8 -210 6 -212 q 25 -207 11 -207 q 49 -211 44 -207 q 69 -219 54 -217 q 89 -218 83 -221 q 98 -187 93 -215 q 104 -156 103 -158 q 110 -129 107 -150 q 115 -99 110 -110 q 126 -62 121 -86 q 135 -6 131 -39 q 140 38 139 26 q 150 106 147 76 q 158 137 151 121 q 165 179 164 153 q 174 229 167 207 q 182 289 181 251 q 188 343 185 343 q 196 372 193 343 q 206 414 199 403 q 213 433 213 425 q 218 439 213 439 q 222 460 222 439 q 228 479 222 479 q 233 488 233 479 q 242 499 233 493 q 250 511 247 503 q 279 538 254 535 l 299 538 q 378 525 364 538 q 414 515 388 515 q 440 521 435 515 q 446 553 444 526 l 447 568 l 415 569 q 376 575 382 572 q 353 583 371 581 q 315 624 322 590 q 307 643 313 640 q 301 703 301 646 q 304 756 301 743 q 318 793 307 768 q 367 879 322 801 q 396 914 375 893 q 422 935 417 935 q 440 949 426 935 q 467 979 453 963 l 482 996 q 488 1003 486 1000 q 488 1006 489 1006 q 506 1025 483 1006 q 544 1046 528 1046 q 582 1028 582 1046 q 593 1017 582 1021 q 610 986 606 1011 q 619 949 613 960 q 626 881 626 936 q 632 821 626 826 q 643 729 643 810 l 643 722 q 618 647 643 672 q 611 633 611 640 z "},"D":{"ha":579,"x_min":1,"x_max":579,"o":"m 314 104 q 289 122 301 122 q 274 113 279 122 q 267 28 267 104 q 279 -97 267 -97 q 286 -93 286 -97 q 306 -78 286 -87 q 342 6 342 -57 q 314 104 342 63 m 344 -137 q 333 -147 344 -137 q 315 -157 322 -157 q 303 -167 308 -157 q 293 -178 299 -178 q 286 -181 286 -178 q 275 -186 286 -186 q 267 -187 272 -186 q 253 -189 261 -187 q 240 -190 244 -190 l 217 -194 l 217 -174 q 213 -150 217 -154 q 203 60 208 -146 l 200 160 l 214 174 q 253 188 228 188 q 279 183 278 188 q 296 182 281 179 l 301 182 q 346 162 321 182 q 385 114 371 142 q 394 13 393 99 q 396 -42 396 -11 q 392 -73 396 -65 q 371 -101 389 -81 q 367 -111 367 -108 q 344 -137 367 -117 m 399 254 q 310 264 389 264 q 182 251 207 263 q 163 243 165 243 q 149 233 158 243 q 139 99 139 221 q 143 -75 139 8 q 158 -236 154 -225 q 181 -242 160 -242 q 213 -240 199 -242 q 338 -235 310 -236 l 411 -232 l 411 -186 q 417 -112 411 -143 q 419 -35 419 -93 q 410 218 419 203 q 406 235 404 228 q 399 254 406 247 m 286 829 q 276 845 286 835 q 261 856 265 856 q 240 836 254 856 q 224 806 225 817 q 214 780 222 796 q 206 750 206 764 q 199 724 206 739 q 192 699 192 708 q 165 640 192 664 q 156 617 156 631 q 148 594 156 606 q 139 571 140 582 q 131 547 138 561 q 113 494 121 535 q 104 421 104 454 q 107 393 104 400 q 143 367 113 376 q 176 375 151 365 q 198 388 194 383 q 201 406 201 392 q 238 453 201 440 q 239 453 239 453 l 242 454 q 285 424 257 454 q 319 407 297 407 q 372 433 351 407 q 397 492 397 461 q 401 508 397 497 q 406 524 406 519 q 403 533 406 531 q 393 550 397 539 q 338 658 351 644 q 332 685 332 664 q 325 710 332 697 q 317 736 318 722 q 293 807 310 772 q 286 829 286 821 m 192 808 q 213 862 192 833 q 261 890 235 890 q 293 881 275 890 q 314 864 311 872 q 326 833 315 860 q 336 797 336 807 q 349 756 336 781 q 364 706 361 729 q 371 681 367 681 q 383 665 375 681 q 392 642 392 649 q 421 574 392 631 q 435 510 435 544 q 419 438 435 476 q 394 392 404 396 q 379 381 386 388 q 314 354 356 354 q 286 339 286 354 q 290 325 286 333 q 299 317 294 318 q 312 317 303 315 q 326 319 321 319 q 351 319 328 319 q 392 318 375 318 l 444 317 l 449 286 q 457 247 454 251 q 469 32 468 228 l 469 -11 q 456 -221 469 -203 q 451 -229 451 -225 q 456 -237 451 -233 q 471 -244 461 -242 q 490 -247 481 -246 q 511 -250 499 -249 q 528 -253 524 -251 q 567 -264 567 -261 q 573 -268 567 -265 q 579 -272 579 -271 q 294 -278 579 -278 q 1 -271 1 -278 q 53 -258 1 -260 q 96 -256 89 -257 q 104 -244 103 -254 q 107 -157 107 -231 q 97 150 107 140 q 92 215 92 156 q 97 281 92 275 q 171 306 118 301 q 215 313 204 308 q 226 329 226 318 q 215 342 226 342 q 186 336 214 342 q 154 331 161 331 q 111 343 140 331 q 82 371 89 353 q 74 439 75 389 q 79 499 74 496 q 85 510 82 500 q 92 533 89 521 q 96 547 94 546 q 104 571 99 551 q 114 594 110 590 q 121 608 121 601 q 136 651 121 615 q 154 708 151 689 q 164 733 156 724 q 174 753 172 742 q 183 783 176 772 q 192 808 192 797 z "},"E":{"ha":585,"x_min":1,"x_max":585,"o":"m 269 385 q 339 393 333 388 q 367 399 344 399 q 411 390 399 399 q 424 374 422 383 q 415 361 425 365 q 279 336 363 340 q 243 332 246 333 q 238 297 238 328 q 253 193 238 219 q 269 182 257 183 q 283 188 281 181 q 310 194 286 192 q 342 204 335 197 q 367 211 349 211 q 388 206 382 211 q 394 183 394 199 q 392 169 394 172 q 381 167 389 167 q 368 161 368 167 q 350 157 368 157 q 305 149 329 157 q 275 133 281 142 q 271 115 271 128 q 279 88 271 97 q 286 46 283 81 q 301 11 288 11 q 342 22 308 11 q 383 35 376 35 q 422 20 389 35 q 454 3 454 6 q 429 -18 454 -14 q 408 -26 408 -21 q 381 -31 408 -31 q 282 -64 347 -31 q 258 -72 267 -72 q 229 35 231 -72 q 222 118 226 114 q 214 167 217 124 q 207 207 211 207 q 190 278 203 207 q 181 318 185 315 q 174 342 176 321 q 173 356 172 350 q 176 364 174 361 q 188 372 179 367 q 269 385 203 383 m 306 479 q 215 489 296 489 q 196 488 197 489 q 158 485 193 485 q 118 478 125 485 q 106 468 111 471 q 101 392 101 467 q 107 263 101 289 q 129 106 128 169 q 136 56 132 56 q 140 31 140 56 q 135 -6 140 -4 q 131 -26 131 -8 q 136 -58 131 -53 q 144 -126 142 -64 q 156 -200 147 -185 q 215 -214 161 -211 q 272 -222 251 -215 q 324 -229 293 -228 q 369 -235 349 -231 q 406 -240 389 -240 q 439 -239 425 -240 l 492 -235 l 492 -175 q 485 -110 490 -133 q 478 -43 481 -86 q 458 106 472 103 q 454 119 454 107 q 460 133 454 131 q 464 167 464 136 q 472 203 464 194 q 479 257 479 213 q 475 290 479 283 q 469 337 474 292 q 461 383 464 382 q 453 421 456 386 q 442 463 450 454 q 375 471 436 469 q 306 479 314 474 m 297 961 q 288 979 297 965 q 278 994 278 993 q 260 1016 278 1001 q 236 1033 243 1031 q 207 1026 207 1036 q 199 1013 207 1024 q 178 981 189 1001 q 167 953 167 960 q 163 943 167 947 q 149 922 157 940 q 142 892 142 903 q 134 867 142 881 q 126 843 126 853 q 121 828 126 831 q 103 708 114 825 q 101 685 101 699 q 131 622 101 651 q 175 593 160 593 q 183 596 181 593 q 197 601 189 601 q 207 608 207 601 q 215 623 207 614 q 222 639 222 632 q 232 657 222 653 q 247 661 238 660 q 262 661 256 663 q 268 657 268 660 q 308 624 268 639 q 342 615 329 615 q 353 621 353 615 q 361 626 353 626 q 376 647 369 626 q 385 696 383 668 l 385 708 q 371 800 385 789 q 364 813 364 803 q 358 824 364 824 q 353 839 353 824 q 346 857 353 854 q 339 867 339 860 q 331 888 339 871 q 324 913 324 906 q 316 926 324 919 q 308 942 308 933 q 303 954 308 954 q 297 961 297 954 m 81 788 q 86 801 86 790 q 93 831 86 813 q 100 863 100 850 q 102 884 100 876 q 110 902 104 892 q 118 918 115 913 q 126 944 126 938 q 131 956 126 953 q 148 985 133 958 q 165 1014 163 1011 q 172 1028 172 1025 q 176 1035 172 1035 q 185 1046 182 1035 q 199 1061 188 1056 q 218 1064 207 1064 q 257 1056 254 1064 q 268 1050 260 1050 q 281 1042 278 1050 q 290 1026 281 1040 q 310 996 307 1007 q 318 985 313 985 q 324 978 321 985 q 332 963 328 972 q 338 951 336 954 q 347 929 347 936 q 365 888 347 925 q 383 846 383 851 q 389 839 383 839 q 396 819 392 839 q 404 799 400 799 q 408 789 408 799 q 417 765 408 779 q 425 707 425 751 q 417 643 425 667 q 405 620 411 626 q 381 604 399 614 q 335 592 356 592 l 318 592 l 304 592 q 283 588 288 592 q 278 572 278 585 q 279 553 278 561 q 283 536 281 539 q 294 532 285 533 q 314 535 308 529 q 386 540 319 540 q 454 535 454 540 q 464 531 454 531 q 493 460 488 531 q 500 414 496 414 q 507 357 504 414 q 515 289 510 300 q 522 75 519 271 q 531 -156 525 -124 q 535 -208 535 -179 l 535 -232 l 557 -232 q 585 -243 585 -232 q 569 -264 585 -251 l 553 -278 l 431 -276 q 304 -269 307 -275 q 244 -256 300 -264 q 153 -249 189 -249 q 129 -251 132 -249 q 115 -257 122 -257 q 104 -250 107 -257 q 50 -243 103 -243 l 47 -243 q 1 -237 1 -243 q 4 -228 1 -236 q 8 -214 7 -221 q 16 -204 10 -206 q 50 -201 22 -203 l 89 -200 l 86 -139 q 81 -74 86 -79 q 68 129 69 -61 q 51 422 64 401 q 47 436 47 428 q 53 472 47 439 q 63 514 61 513 q 86 518 67 518 q 119 524 106 518 q 161 540 151 540 q 172 535 172 540 q 200 531 172 531 l 228 531 l 228 550 q 225 567 228 564 q 210 571 222 571 q 189 565 192 571 q 175 561 185 561 q 138 571 157 561 q 104 597 122 578 q 86 625 86 617 q 79 633 86 631 q 74 701 74 635 q 81 788 74 785 z "},"F":{"ha":693,"x_min":1,"x_max":694,"o":"m 344 56 q 340 28 344 39 q 335 0 335 18 q 340 -28 335 -25 q 346 -56 346 -33 q 336 -110 346 -93 q 303 -140 315 -140 q 288 -132 296 -140 q 276 46 278 -121 q 268 235 274 219 q 265 269 265 251 l 265 283 l 267 311 l 292 317 q 332 317 313 322 q 364 314 343 314 q 381 315 369 314 q 400 315 393 315 q 433 317 414 317 q 479 310 456 317 q 511 288 511 299 q 493 269 511 278 q 463 267 475 261 q 422 267 450 272 q 403 264 414 264 q 390 268 396 264 q 378 272 385 272 q 361 269 375 272 l 338 265 l 338 232 q 346 128 340 133 q 394 125 351 125 l 413 125 q 479 122 474 125 q 488 108 485 118 q 488 93 490 99 q 428 71 474 71 q 396 76 408 71 q 367 81 383 81 l 344 81 l 344 56 m 507 -171 q 512 -142 507 -154 q 517 -107 517 -129 q 522 -68 517 -74 q 532 -4 526 -64 q 551 208 550 199 q 557 304 557 244 q 556 360 557 350 q 546 378 554 371 q 526 389 532 389 q 498 395 519 389 q 475 401 476 401 q 460 418 461 403 l 458 432 l 393 435 q 313 443 322 438 l 296 449 q 264 439 264 449 q 247 433 264 433 q 207 414 207 432 q 200 388 207 394 q 190 253 190 378 q 192 101 190 164 q 188 -14 192 -3 q 189 -50 181 -28 q 194 -137 194 -65 q 189 -215 194 -208 q 189 -232 182 -224 q 210 -241 193 -239 q 297 -243 226 -243 q 433 -246 394 -243 q 449 -247 439 -246 q 464 -247 460 -247 q 476 -247 469 -247 q 485 -246 483 -246 q 499 -239 496 -243 q 503 -219 501 -235 q 507 -171 507 -182 m 335 839 q 324 810 335 833 q 314 781 314 788 q 310 768 314 768 q 304 756 304 768 q 297 740 304 743 q 289 728 289 738 q 285 717 289 717 q 274 618 274 717 q 285 561 274 581 q 301 540 297 540 q 315 532 304 540 q 326 526 322 525 q 343 533 331 526 q 360 553 360 542 q 372 577 360 564 q 394 590 383 590 q 416 574 403 590 q 436 557 429 558 q 457 550 451 554 q 478 544 471 544 q 535 585 515 544 q 540 624 540 597 q 532 760 540 651 q 524 825 528 808 q 508 865 521 842 q 501 901 501 876 q 496 924 501 924 q 492 936 492 924 q 476 968 492 947 q 469 978 474 972 q 463 988 465 985 l 460 990 q 436 969 457 990 q 415 944 415 947 q 394 918 415 942 q 350 864 350 871 q 342 854 350 863 q 335 839 335 847 m 418 996 q 457 1021 439 1021 q 479 1011 469 1021 q 508 968 489 1003 q 526 924 526 933 q 551 840 526 900 q 559 810 554 836 q 568 781 564 785 q 574 676 571 775 l 574 632 q 568 571 574 585 q 538 532 563 557 q 493 515 521 515 q 447 522 464 515 q 424 531 428 531 q 412 518 418 531 q 406 494 406 506 q 406 490 406 493 l 407 488 q 442 472 410 475 q 500 469 475 469 q 526 465 526 469 q 550 460 526 460 q 575 451 572 460 q 590 444 578 444 q 607 438 603 444 q 615 372 613 429 q 624 313 618 313 q 626 294 629 313 q 611 274 625 275 q 599 269 601 272 q 597 256 597 267 q 588 68 597 149 q 564 -236 564 -100 q 565 -257 564 -257 q 578 -251 569 -257 q 592 -251 588 -244 q 644 -260 599 -257 q 693 -271 683 -261 l 694 -272 q 525 -278 694 -278 l 351 -278 q 1 -272 1 -278 q 18 -253 1 -264 q 49 -243 35 -243 q 67 -237 67 -243 q 96 -232 67 -235 l 125 -229 l 128 -154 q 149 108 138 88 q 151 192 150 111 q 156 274 153 272 q 154 294 161 276 q 147 328 147 311 q 142 354 147 343 q 141 374 135 358 q 147 392 147 389 q 153 399 147 399 q 163 422 157 399 q 169 467 168 446 l 171 488 l 246 485 q 329 479 319 482 q 344 478 338 475 q 350 490 350 482 q 322 501 350 500 q 281 518 294 503 q 244 601 251 547 q 243 628 243 608 q 254 724 243 710 q 258 739 258 728 q 285 799 258 753 q 289 818 289 807 q 302 847 289 826 q 317 874 315 868 q 335 899 319 886 q 350 918 350 911 q 358 932 350 925 q 375 939 367 939 q 392 956 385 939 q 418 996 400 976 z "},"G":{"ha":693,"x_min":0,"x_max":692,"o":"m 403 276 q 428 281 414 281 q 455 278 440 281 q 478 272 469 275 q 488 267 488 268 q 499 263 488 263 q 522 256 517 263 q 528 229 528 250 q 519 194 528 203 q 489 193 500 175 q 467 208 485 200 q 440 217 450 217 q 381 176 426 217 q 363 150 374 172 q 344 122 351 128 q 336 104 336 115 q 329 85 336 92 q 318 24 318 74 q 319 1 318 8 q 333 -21 322 -21 q 358 -8 344 -21 q 374 19 371 6 q 397 38 376 35 q 419 49 417 40 q 439 57 424 54 q 452 56 450 58 q 456 36 454 53 q 453 3 458 14 q 444 -42 447 -10 q 436 -76 442 -76 q 432 -87 432 -76 q 422 -122 432 -103 q 406 -142 413 -142 q 378 -125 393 -142 q 364 -94 364 -108 q 360 -80 364 -82 q 333 -75 356 -78 q 301 -67 304 -72 q 293 -61 299 -61 q 273 -48 286 -61 q 260 -28 260 -35 q 254 -18 260 -21 q 247 38 247 -15 q 253 86 247 81 q 261 108 256 89 q 269 132 267 128 q 285 157 272 135 q 403 276 336 254 m 379 429 q 354 442 376 429 q 324 454 332 454 q 315 444 315 454 q 300 440 315 431 q 283 442 290 446 q 275 428 275 439 q 269 411 275 417 q 260 356 265 407 q 254 300 256 304 q 235 192 247 283 q 226 149 233 171 q 217 110 218 126 q 208 83 214 86 q 204 68 204 81 q 200 56 204 56 q 194 40 197 56 q 189 8 192 25 q 186 -11 186 -10 q 181 -61 181 -28 q 174 -108 178 -104 q 169 -140 169 -112 q 204 -187 169 -187 q 219 -192 219 -187 q 235 -197 219 -194 q 266 -203 250 -200 q 283 -207 282 -206 q 318 -217 289 -212 q 368 -222 347 -222 l 374 -222 l 410 -222 q 430 -223 418 -222 q 444 -224 442 -224 q 475 -219 463 -224 q 503 -189 503 -212 q 510 -164 503 -175 q 517 -115 517 -150 q 522 -78 517 -92 q 528 -46 526 -65 q 536 -5 529 -25 q 544 42 543 15 q 553 81 547 81 q 560 115 557 81 q 572 166 561 139 q 583 214 582 193 q 592 244 585 233 q 600 269 599 254 q 608 293 603 290 q 618 332 618 297 q 617 346 618 342 q 593 358 614 358 q 571 354 572 358 q 557 349 567 347 q 547 358 547 350 q 544 368 547 364 q 536 374 540 372 q 524 378 532 376 q 514 382 517 381 q 490 389 500 389 q 481 393 483 389 q 456 400 481 394 q 432 408 432 406 q 409 417 432 411 q 386 425 386 422 q 379 429 386 429 m 454 828 q 448 821 454 828 q 442 810 442 814 q 434 801 442 806 q 426 790 426 796 q 421 783 426 783 q 417 771 417 783 q 397 735 417 756 q 392 722 392 729 q 385 714 392 717 q 375 693 378 711 q 364 668 372 676 q 356 619 356 660 q 365 568 356 576 q 401 560 375 560 q 421 565 419 560 q 432 571 424 571 q 447 581 442 571 q 462 590 451 588 q 481 588 472 593 q 492 572 485 585 q 513 558 500 560 q 528 550 528 556 q 543 531 528 546 q 576 514 560 514 q 611 546 600 514 q 619 561 614 558 q 627 588 622 563 q 633 614 632 613 q 639 639 639 617 q 643 663 639 661 q 653 717 650 667 q 660 771 656 768 q 664 785 664 774 q 660 800 664 797 q 653 875 656 804 q 643 961 650 946 q 631 976 635 974 q 609 976 622 979 q 594 967 596 972 q 585 960 592 960 q 556 939 579 960 q 514 899 525 908 q 467 846 467 854 q 454 828 467 843 m 331 676 q 338 694 331 683 q 346 710 346 704 q 350 717 346 717 q 358 732 356 717 q 381 767 361 744 q 401 800 401 790 q 408 821 401 811 q 417 838 417 832 q 428 856 417 843 q 446 868 440 868 q 458 886 449 868 q 474 906 464 897 q 496 926 483 915 q 515 943 508 936 q 542 963 532 960 q 556 977 547 964 q 571 990 565 990 q 578 994 578 990 q 589 1006 578 1001 q 613 1010 601 1010 q 665 974 654 1010 q 674 951 667 964 q 683 882 678 942 q 692 757 692 781 q 689 736 692 739 q 683 707 683 731 q 676 671 683 682 q 667 628 671 663 q 659 567 664 594 q 644 540 654 540 q 633 521 642 540 q 624 494 624 501 q 583 486 624 486 q 533 496 538 486 q 513 519 529 508 q 485 531 496 531 q 476 524 476 531 q 469 508 476 515 q 460 482 460 499 l 460 463 l 500 456 q 572 439 572 444 q 588 435 572 435 q 615 424 601 435 q 631 414 628 414 q 644 406 636 414 q 653 367 653 397 l 653 340 q 649 278 653 290 q 631 204 635 243 q 622 172 628 172 q 618 147 618 172 q 613 106 618 125 q 588 -22 597 60 q 578 -69 582 -69 q 572 -93 572 -72 q 567 -121 572 -110 q 560 -149 561 -132 q 553 -179 557 -176 q 547 -197 547 -182 q 551 -210 547 -207 q 565 -212 554 -212 q 588 -220 576 -212 q 608 -228 600 -228 q 638 -231 621 -228 q 652 -240 650 -233 q 651 -260 654 -246 l 590 -261 q 526 -271 532 -262 q 503 -278 522 -278 q 478 -271 481 -278 q 383 -261 475 -265 q 290 -253 293 -258 q 267 -246 288 -249 q 226 -236 244 -243 q 172 -228 206 -228 q 140 -235 143 -228 q 131 -242 138 -242 q 122 -236 124 -243 q 67 -229 119 -229 q 6 -219 13 -229 q 3 -204 0 -211 q 15 -197 6 -197 q 22 -192 22 -197 q 60 -187 22 -187 q 103 -181 93 -187 q 114 -153 114 -174 q 119 -125 114 -136 q 125 -96 124 -114 q 144 -29 132 -36 q 150 7 150 -26 q 154 40 150 40 q 161 72 158 40 q 169 106 163 93 q 176 133 175 119 q 183 160 178 150 q 203 240 188 167 q 210 260 204 249 q 217 300 214 269 q 217 332 221 332 l 210 329 q 197 324 199 322 q 194 340 194 325 q 211 385 194 372 q 219 428 214 386 q 225 472 224 471 q 228 482 225 475 q 232 492 231 489 q 263 500 233 500 q 290 496 290 500 q 315 490 290 494 q 365 481 339 485 q 392 476 390 476 q 413 492 404 474 q 421 517 421 511 q 392 528 421 528 q 328 563 349 528 q 319 625 319 578 q 325 664 319 660 q 331 676 331 667 z "},"H":{"ha":579,"x_min":1,"x_max":581,"o":"m 251 325 q 271 339 268 339 q 286 319 283 339 q 289 221 289 300 l 289 117 l 322 117 q 357 121 356 117 q 363 218 360 126 q 382 326 367 326 q 394 322 386 326 l 408 314 l 407 233 q 401 136 407 175 q 393 53 394 97 q 385 -22 390 -17 q 381 -69 381 -26 q 365 -128 381 -128 l 361 -128 q 344 -83 344 -124 q 339 -70 344 -76 q 339 -53 333 -64 q 346 13 346 -32 l 347 63 l 314 65 l 279 67 l 279 24 q 278 -37 279 -26 q 276 -58 278 -43 q 275 -79 275 -74 q 264 -103 274 -101 q 254 -115 254 -106 q 242 -129 254 -124 q 225 -129 231 -135 q 222 -79 222 -126 q 229 63 222 51 q 235 192 235 74 l 236 311 l 251 325 m 264 479 q 203 488 249 488 q 175 486 183 488 q 144 468 149 483 q 136 363 139 453 q 135 315 136 344 q 135 275 135 286 q 138 225 135 235 q 146 149 146 178 q 143 132 146 132 q 138 113 138 132 q 144 89 138 92 q 143 82 150 88 q 135 -85 135 75 l 135 -244 l 211 -243 q 292 -237 289 -240 q 379 -232 297 -232 l 461 -232 l 463 -215 q 469 -116 465 -200 q 474 -21 472 -32 q 471 10 478 10 q 468 32 464 10 q 472 111 472 53 l 472 146 q 474 168 472 149 q 475 199 475 188 q 471 222 475 219 q 461 324 465 226 q 458 440 458 432 q 449 463 460 458 q 392 472 439 468 q 340 482 346 475 q 317 488 335 488 q 278 478 283 488 q 264 479 274 471 m 357 1015 q 322 1044 338 1044 q 296 1025 307 1044 q 279 1006 286 1006 q 271 981 276 1006 q 264 957 265 957 q 258 944 258 954 q 254 935 258 935 q 249 925 249 935 q 242 910 249 914 q 231 883 233 901 q 224 864 228 864 q 218 851 218 864 q 213 832 218 838 q 188 790 204 824 q 169 738 172 756 q 165 675 165 717 q 169 618 165 622 q 197 613 172 615 q 235 622 222 611 q 249 644 249 636 q 272 664 249 654 q 296 671 289 671 q 317 649 311 671 q 326 635 319 639 q 353 625 333 631 q 413 615 389 615 q 431 621 431 615 q 443 629 431 626 q 458 640 456 632 q 463 686 463 653 q 450 788 463 788 q 446 803 446 788 q 431 847 446 819 q 415 882 415 875 q 413 890 415 888 q 397 913 406 893 q 386 950 388 933 q 379 975 383 975 q 375 981 375 975 q 357 1015 375 985 m 131 529 q 170 535 154 529 q 213 540 186 540 q 253 532 247 540 q 267 526 258 524 q 275 563 276 528 q 269 603 272 603 q 253 590 265 603 q 235 578 243 581 q 203 576 228 576 q 168 581 168 576 q 161 586 168 586 q 151 599 154 586 q 135 613 150 610 q 119 622 121 614 q 125 626 121 625 q 133 633 132 626 q 126 646 133 639 q 126 663 121 651 q 131 687 128 664 q 138 731 133 710 q 144 753 142 753 q 146 760 146 753 q 154 790 146 765 q 163 818 163 815 q 167 829 163 828 q 186 855 172 832 q 201 889 200 878 q 208 904 204 904 q 214 913 214 904 q 221 935 214 924 q 233 972 222 938 q 251 1011 244 1007 q 258 1024 258 1015 q 264 1031 258 1031 q 271 1044 268 1031 q 288 1067 274 1060 q 332 1076 304 1076 q 361 1069 354 1076 q 387 1023 364 1067 q 414 976 410 979 q 425 949 422 971 q 443 903 429 932 q 458 871 457 874 q 471 851 467 853 q 476 836 476 849 q 481 820 476 828 q 486 803 486 813 q 492 788 486 790 q 499 717 499 785 q 494 642 499 661 q 468 606 489 624 q 406 586 449 586 q 392 587 401 586 q 375 588 382 588 l 331 589 l 328 561 l 328 532 q 406 529 328 529 l 482 528 l 496 513 q 523 463 518 488 q 528 332 528 438 q 531 167 528 203 q 532 67 532 150 q 526 -139 532 -133 q 522 -183 522 -143 q 535 -237 522 -222 q 565 -254 550 -253 q 579 -257 578 -256 q 575 -267 581 -258 l 567 -276 l 285 -278 q 1 -274 1 -278 q 35 -237 1 -265 q 69 -225 40 -232 l 69 -150 q 74 -66 69 -96 q 81 17 79 -36 q 89 101 83 99 q 94 197 94 103 q 86 296 94 288 q 79 328 79 303 q 81 368 79 350 q 89 435 83 432 q 94 483 94 436 l 94 528 l 131 529 z "},"I":{"ha":699,"x_min":1,"x_max":710,"o":"m 339 335 q 357 336 346 344 q 401 328 367 331 l 433 326 l 435 310 q 421 277 436 292 q 385 263 406 263 l 364 263 l 368 229 q 375 176 368 221 q 374 144 378 157 q 369 26 369 132 l 369 3 q 373 -46 369 -29 q 381 -65 376 -62 q 393 -73 386 -68 q 403 -86 400 -78 q 428 -90 422 -86 q 435 -110 435 -94 l 435 -117 q 430 -137 433 -132 q 415 -144 426 -142 q 397 -150 403 -147 q 367 -154 381 -157 q 318 -146 322 -147 q 260 -99 260 -135 q 264 -81 260 -83 q 289 -76 268 -78 q 315 -69 315 -74 l 314 -53 q 314 -11 314 -37 q 314 42 314 15 q 319 146 314 146 q 325 210 325 146 q 321 269 325 260 q 297 278 317 278 q 269 310 269 278 q 272 326 269 322 q 288 331 275 331 q 297 330 290 331 q 307 329 303 329 q 339 335 333 328 m 367 517 l 364 531 l 303 529 q 192 524 215 528 q 169 504 169 521 q 171 493 169 497 q 174 400 174 471 q 178 292 174 322 q 186 86 183 250 q 204 -232 193 -232 q 218 -240 210 -232 q 278 -247 225 -247 q 369 -246 329 -247 q 518 -239 514 -243 q 519 -197 519 -237 q 514 -64 519 -85 q 515 -44 511 -50 q 519 13 519 -40 q 517 50 519 42 q 507 268 513 56 q 504 355 506 306 q 502 428 503 404 q 501 457 501 453 q 486 489 501 471 l 472 506 q 421 504 456 506 q 368 503 386 503 l 367 517 m 279 971 q 264 948 279 968 q 249 925 249 928 q 246 918 249 921 q 230 899 242 915 q 218 879 218 883 q 211 860 218 874 q 181 761 186 814 q 172 732 178 732 q 168 697 168 732 q 182 651 168 663 q 210 643 192 643 l 231 643 q 289 672 289 647 q 299 688 289 679 q 318 697 310 697 q 335 690 326 697 q 344 678 344 683 q 353 672 344 672 q 360 667 360 672 q 375 660 360 663 q 399 650 382 658 q 424 642 417 642 q 444 664 433 642 q 454 707 454 686 q 453 719 454 715 q 456 742 450 735 q 463 832 463 758 q 454 926 463 911 q 446 953 446 943 q 433 988 446 961 q 415 1018 421 1014 q 411 1032 411 1019 q 396 1051 411 1043 q 369 1049 382 1060 l 340 1028 q 295 992 311 1007 q 279 971 279 978 m 313 1046 q 323 1056 318 1046 q 335 1065 328 1065 q 346 1071 343 1065 q 365 1081 349 1075 q 393 1085 385 1085 q 435 1054 408 1085 q 440 1040 440 1046 q 449 1017 440 1039 q 492 886 483 936 q 496 846 496 861 q 492 765 496 829 q 486 694 489 700 q 483 679 485 692 q 477 656 481 667 q 471 646 474 646 q 467 640 467 646 q 450 620 467 629 q 417 611 433 611 q 400 617 408 611 q 369 632 392 625 q 344 629 344 640 q 339 613 344 618 q 340 589 335 608 l 347 569 l 426 572 l 506 576 l 519 563 q 531 544 529 553 q 535 499 533 536 q 542 443 538 447 q 549 282 546 439 q 557 119 551 125 q 563 90 563 114 q 567 63 563 67 q 579 -126 574 56 q 589 -228 583 -224 q 625 -231 594 -231 l 638 -231 q 682 -236 681 -231 q 692 -243 685 -243 q 688 -267 708 -243 l 676 -278 l 339 -278 q 1 -274 1 -278 q 24 -258 1 -268 q 60 -247 47 -247 q 108 -236 69 -247 l 143 -225 l 143 -200 q 122 -94 143 -165 q 122 -71 118 -82 q 128 35 128 -62 q 133 139 128 131 q 138 199 138 143 q 137 235 138 208 q 136 278 136 261 q 122 460 135 460 q 118 479 118 460 q 122 501 118 497 q 128 527 124 503 q 135 554 132 551 q 156 558 136 556 q 186 567 174 561 q 197 569 194 569 q 211 567 203 569 q 224 564 219 564 q 233 567 225 564 q 256 567 246 572 q 264 564 261 564 q 281 594 276 564 l 285 615 l 232 613 q 212 612 224 613 q 197 611 200 611 q 167 622 179 611 q 144 682 153 635 q 139 724 139 721 q 142 732 139 732 q 151 765 146 735 q 158 796 157 794 q 163 817 163 797 q 173 849 163 826 q 183 879 183 872 q 189 889 183 889 q 193 896 193 889 q 199 904 193 904 q 203 911 203 904 q 210 922 203 917 q 218 932 218 928 q 228 949 218 935 q 239 967 239 963 q 251 983 239 969 q 264 1000 264 997 q 268 1006 264 1006 q 276 1018 274 1006 q 292 1033 279 1031 q 304 1040 304 1036 q 313 1046 304 1046 z "},"J":{"ha":676,"x_min":-1,"x_max":676,"o":"m 233 -83 q 233 -74 233 -83 q 238 -65 233 -65 q 247 -35 242 -65 q 254 -6 251 -6 q 258 3 258 -6 q 265 10 258 10 q 276 21 274 10 q 296 29 279 31 l 313 28 l 311 -7 q 307 -75 311 -21 l 303 -106 l 318 -106 q 349 -87 338 -106 q 365 -21 360 -68 q 383 172 376 50 q 385 213 385 189 q 378 253 385 236 q 369 276 369 272 q 336 292 369 292 l 331 292 l 325 292 q 293 324 297 292 q 301 344 292 343 q 308 345 303 344 q 318 346 314 346 q 411 338 403 346 q 439 331 414 333 q 465 322 458 329 q 496 315 468 318 q 531 297 521 313 q 537 285 538 288 q 529 276 536 282 q 474 264 511 264 q 460 267 463 264 q 442 272 453 274 q 428 263 431 271 l 428 253 q 426 236 426 244 q 427 213 426 229 q 428 189 428 197 q 429 144 429 171 q 426 119 429 122 q 419 6 422 113 q 413 -106 418 -104 q 406 -114 406 -108 q 395 -135 406 -119 q 378 -157 385 -151 q 361 -161 369 -161 q 350 -167 350 -161 q 331 -171 350 -171 q 307 -167 311 -171 q 292 -160 304 -162 q 265 -141 281 -157 q 246 -112 249 -125 q 238 -101 243 -101 q 233 -83 233 -101 m 243 292 q 236 237 243 276 q 229 182 229 197 q 224 122 231 161 q 213 81 218 83 q 204 65 208 79 q 197 28 200 50 l 193 7 q 188 -36 188 -15 q 182 -61 188 -58 q 174 -95 179 -62 q 168 -129 169 -128 q 163 -151 163 -132 q 158 -176 163 -165 q 151 -197 153 -186 l 150 -215 l 196 -217 q 246 -222 239 -219 q 369 -229 250 -226 l 489 -233 l 496 -218 q 503 -183 499 -212 q 513 -149 508 -153 q 517 -133 517 -147 q 521 -112 517 -121 q 531 -76 525 -106 q 551 6 544 3 q 560 39 557 8 q 578 133 565 121 q 582 157 582 138 q 588 179 582 174 q 596 232 593 185 q 603 281 599 278 q 607 314 607 285 q 605 344 607 336 q 592 360 603 351 q 551 374 576 374 q 526 379 526 374 q 490 394 526 389 q 408 401 453 399 q 354 410 364 404 q 285 418 338 418 q 268 417 271 418 q 254 368 256 413 q 249 331 254 356 q 243 292 243 306 m 329 739 q 319 722 329 733 q 310 706 310 711 q 300 689 310 699 q 274 642 274 660 q 265 628 274 633 q 251 560 251 619 q 254 538 251 546 q 275 525 258 525 q 308 528 278 525 q 385 554 385 533 q 400 560 385 561 q 421 572 414 558 q 438 586 426 586 q 456 575 447 586 q 464 553 464 564 q 460 540 464 547 q 463 521 454 532 q 492 510 474 510 q 517 513 497 510 q 538 522 531 514 q 561 561 544 531 q 572 597 567 569 q 578 639 578 624 q 572 694 578 656 q 563 742 565 733 q 557 765 557 756 q 547 794 557 778 q 535 840 538 813 q 526 868 532 868 q 521 889 521 868 q 519 905 521 899 q 515 915 517 911 q 508 923 513 918 q 503 932 504 928 q 490 943 497 943 q 472 939 483 944 q 461 929 461 933 q 451 922 461 926 q 440 913 440 917 q 426 888 440 910 q 404 849 408 860 q 364 783 389 818 q 333 747 339 747 q 329 739 329 747 m 354 831 q 369 854 354 835 q 385 879 385 874 q 390 889 385 889 q 396 896 396 889 q 406 911 396 904 q 422 935 411 917 q 447 961 433 953 q 493 975 469 975 q 532 947 532 975 q 539 936 532 939 q 547 922 543 935 q 553 895 550 910 q 558 876 557 881 q 567 843 567 860 q 572 824 567 832 q 576 806 576 815 q 582 793 576 793 q 588 771 588 793 q 603 717 588 747 q 607 647 607 708 q 603 586 607 586 q 596 563 600 586 q 588 540 592 540 q 575 524 586 540 q 548 492 560 499 q 500 485 536 486 l 456 483 l 447 467 q 442 449 442 456 q 486 433 442 438 q 530 426 513 432 q 575 419 547 419 q 614 411 610 419 q 626 404 617 404 q 647 389 642 404 q 656 324 653 374 q 656 306 656 318 q 657 289 657 294 q 640 139 657 203 q 617 50 621 50 q 600 6 613 50 q 588 -44 588 -39 q 582 -62 588 -60 q 574 -96 579 -64 q 567 -129 568 -128 q 560 -172 563 -139 q 550 -218 557 -207 q 547 -226 547 -224 q 585 -243 547 -243 q 618 -250 613 -243 q 649 -257 624 -257 q 674 -260 674 -257 l 675 -264 q 676 -269 676 -267 q 346 -276 676 -276 q 6 -272 11 -276 q 4 -260 -1 -269 q 64 -233 21 -233 q 94 -231 86 -232 q 106 -226 101 -231 q 110 -210 110 -221 q 109 -203 110 -208 q 108 -193 108 -197 q 108 -183 108 -189 q 107 -175 107 -178 q 113 -137 107 -158 q 121 -90 119 -117 q 124 -55 122 -65 q 129 -33 125 -44 q 136 -10 133 -22 q 149 38 139 1 q 161 90 158 75 q 168 110 164 107 q 174 126 174 113 q 181 160 174 143 q 190 251 188 179 q 197 331 193 326 q 204 379 201 335 q 228 444 208 444 q 239 457 233 444 q 244 467 242 465 q 249 469 246 469 q 263 463 253 468 q 300 454 279 454 q 329 465 324 454 q 360 467 342 488 q 378 455 367 458 q 394 456 389 451 q 400 482 400 461 l 400 504 l 346 501 q 285 494 299 499 q 253 499 275 492 q 224 517 232 506 q 217 557 217 529 l 217 565 q 238 639 217 597 q 258 688 258 681 q 264 697 258 697 q 269 704 269 697 q 279 720 269 708 q 289 738 289 732 q 299 749 289 744 q 310 758 310 754 q 324 782 310 765 q 342 813 339 800 q 350 824 344 824 q 354 831 354 824 z "},"K":{"ha":686,"x_min":1,"x_max":686,"o":"m 344 135 q 340 124 344 133 q 335 109 336 115 q 339 101 335 103 q 346 77 340 101 q 354 51 351 53 q 360 32 360 49 q 368 -1 360 13 q 378 -40 375 -15 q 386 -65 381 -65 q 394 -85 389 -65 q 401 -104 400 -104 q 406 -118 406 -106 q 411 -135 406 -129 q 419 -168 417 -140 q 414 -200 422 -196 q 403 -201 410 -201 q 374 -176 383 -201 q 368 -164 372 -172 q 361 -149 364 -156 q 357 -139 358 -143 q 350 -119 350 -125 q 339 -104 350 -112 q 324 -81 328 -93 q 314 -65 318 -65 q 307 -46 310 -65 q 296 -18 304 -29 q 285 -18 289 -7 q 278 -93 281 -26 q 269 -162 276 -149 q 239 -176 263 -176 q 217 -172 219 -176 l 217 -169 q 215 -164 215 -167 q 220 -115 215 -147 q 229 -75 225 -82 q 236 -44 233 -68 q 241 -24 238 -37 q 244 -10 244 -11 q 251 78 247 -3 q 258 165 256 160 q 264 193 264 172 q 269 215 264 210 q 276 276 276 222 q 281 338 279 335 q 306 332 290 354 q 313 288 313 321 q 311 249 313 274 q 310 217 310 224 q 314 201 310 201 q 349 233 333 201 q 376 273 358 256 q 408 292 393 290 q 425 299 425 294 q 435 305 425 304 q 453 301 446 306 q 458 290 458 297 q 446 263 458 279 q 415 225 433 246 q 390 197 396 204 q 356 153 368 165 q 344 135 344 139 m 247 424 q 218 428 243 428 q 179 424 192 428 q 167 406 169 418 q 163 272 163 385 q 156 132 163 157 q 147 67 147 110 q 143 -8 147 17 q 136 -172 136 -50 l 136 -211 l 138 -247 l 444 -247 q 464 -194 460 -222 q 471 -162 465 -175 q 478 -139 476 -150 q 486 -100 479 -133 q 499 110 499 -44 q 506 214 499 207 q 515 275 513 221 q 522 332 518 329 q 521 345 525 335 q 521 360 517 356 q 528 374 528 367 q 497 389 528 389 q 478 394 483 389 q 447 401 474 399 q 410 410 425 404 q 388 413 396 415 q 371 411 385 411 q 297 416 343 411 q 247 424 250 421 m 461 768 q 449 803 461 776 q 436 838 436 831 q 431 849 436 849 q 422 872 426 849 q 415 897 418 896 q 411 913 411 900 q 403 949 411 922 q 390 979 394 976 q 385 994 385 985 q 376 1009 383 1004 q 364 1007 368 1014 q 335 947 335 957 q 331 939 335 942 q 322 919 325 939 q 313 892 321 908 q 303 864 304 875 q 285 813 301 857 q 250 758 276 790 q 231 717 233 736 q 224 697 228 697 q 217 686 219 697 q 188 635 204 644 q 178 618 178 631 q 171 594 178 608 q 169 575 161 582 q 178 563 178 568 q 199 554 178 554 q 249 567 231 554 q 268 582 265 576 q 284 599 272 592 q 304 607 296 607 q 314 599 314 607 q 325 590 314 590 q 340 578 333 590 q 363 558 346 567 q 394 549 379 549 q 404 550 401 549 q 428 556 418 556 q 440 563 440 556 q 451 582 440 568 q 461 607 461 594 q 467 628 461 617 q 474 653 474 639 q 476 672 474 661 q 479 686 479 683 q 475 697 479 690 q 475 711 467 710 q 480 717 478 713 q 481 724 482 721 q 476 728 479 728 q 471 738 471 728 q 466 751 471 744 q 461 768 461 758 m 325 997 q 333 1008 325 1003 q 340 1017 340 1013 q 349 1033 340 1022 q 365 1047 358 1044 q 381 1050 371 1050 q 411 1022 397 1050 q 439 947 433 978 q 446 922 440 933 q 453 892 451 910 q 467 851 456 872 q 497 762 483 824 q 511 660 511 700 q 507 632 511 640 q 503 619 506 631 q 497 597 500 607 q 492 586 493 586 q 483 568 486 586 q 478 553 482 558 q 467 544 475 549 q 454 536 458 539 q 396 526 444 528 l 346 524 l 342 501 q 340 488 340 496 q 363 467 340 471 q 454 458 417 458 l 464 458 q 483 455 475 460 q 499 450 492 450 q 513 439 510 450 q 533 429 514 429 q 551 422 551 429 q 560 410 551 418 q 565 378 565 406 q 564 314 565 343 q 561 212 563 286 q 560 115 560 138 q 553 -4 557 6 q 547 -69 547 -15 q 542 -129 547 -124 q 533 -173 539 -132 q 526 -237 526 -214 q 589 -250 526 -247 q 661 -262 650 -253 l 686 -274 q 351 -278 686 -278 q 1 -272 1 -278 q 44 -247 1 -247 l 71 -247 l 74 -215 q 78 -160 78 -165 q 83 -104 78 -137 q 106 122 100 -10 q 106 139 106 129 q 107 153 107 149 q 101 179 107 174 q 94 235 94 186 l 94 263 q 101 343 97 342 q 111 368 108 347 q 118 389 114 389 q 122 411 122 389 q 128 435 122 435 q 133 446 133 435 q 133 455 133 450 q 132 461 132 460 q 138 472 132 469 q 167 474 144 474 l 208 474 q 234 473 219 474 q 254 472 249 472 q 286 476 283 472 q 292 519 289 482 q 293 551 294 546 q 285 556 292 556 q 274 549 274 556 q 267 540 274 540 q 258 535 261 540 q 213 526 257 529 l 169 524 l 156 544 q 143 578 143 561 q 144 596 143 589 q 168 661 150 649 l 172 669 q 178 688 175 679 q 182 697 181 697 q 201 739 189 697 q 208 753 204 753 q 214 760 214 753 q 224 776 214 765 q 233 790 233 788 q 248 824 233 796 q 265 853 263 851 l 269 867 q 275 892 272 879 q 279 904 278 904 q 288 922 282 904 q 294 939 293 939 q 297 950 297 939 q 303 965 297 958 q 311 979 310 972 q 319 990 314 990 q 325 997 325 990 z "},"L":{"ha":672,"x_min":1,"x_max":672,"o":"m 256 -78 q 249 46 256 -29 q 240 161 242 121 q 235 293 240 229 q 232 333 232 332 q 239 357 232 353 q 254 364 249 364 q 272 328 268 364 q 281 293 275 299 q 300 68 289 283 q 310 -37 306 -33 q 314 -69 314 -42 l 314 -96 l 367 -93 q 388 -92 374 -93 q 408 -92 403 -92 q 426 -92 415 -92 q 438 -93 436 -93 q 453 -98 450 -94 q 456 -110 457 -101 q 431 -135 454 -121 q 336 -149 407 -147 l 303 -149 q 261 -144 265 -149 q 256 -78 256 -136 m 406 444 q 378 451 385 444 q 339 458 371 458 l 311 458 q 214 449 214 457 q 206 444 214 444 q 199 439 199 444 q 188 435 199 435 q 165 422 175 435 q 156 396 156 413 q 158 361 156 394 q 165 312 160 336 q 171 274 171 288 q 168 243 171 268 q 163 190 163 199 q 171 154 163 167 q 178 115 178 143 q 176 69 178 89 q 168 -11 174 0 q 168 -31 163 -22 q 175 -139 172 -37 q 178 -239 175 -236 q 378 -243 182 -243 l 428 -243 l 486 -243 l 486 -143 q 500 54 486 -11 q 497 78 503 72 q 483 297 488 92 q 476 424 481 401 q 444 446 471 446 q 435 445 442 446 q 424 444 428 444 l 406 444 m 211 556 q 238 573 217 556 q 263 590 258 590 q 272 600 269 590 q 294 621 281 621 q 317 601 308 621 q 382 553 331 571 q 422 546 406 546 q 436 550 436 546 q 443 556 436 556 q 449 559 446 556 q 455 567 453 563 q 460 577 457 571 q 464 586 463 583 q 471 624 471 600 q 444 772 471 668 q 433 824 435 815 q 425 857 428 854 q 421 872 421 858 q 415 886 421 883 q 411 913 411 889 q 403 951 411 935 q 396 972 396 963 q 388 988 396 979 q 358 978 371 1004 q 344 960 349 960 q 338 940 340 960 q 326 914 335 922 q 319 901 319 910 q 313 881 319 896 q 307 857 307 865 q 306 839 307 839 q 297 819 303 839 q 289 799 292 799 q 275 776 286 799 q 235 707 243 713 q 214 677 229 703 q 199 647 199 651 q 194 642 199 642 q 182 622 190 642 q 174 593 174 603 q 188 569 174 583 q 211 556 201 556 m 183 689 q 199 714 183 694 q 214 738 214 733 q 219 749 214 747 q 263 826 228 750 q 272 862 267 835 q 285 899 278 889 q 294 922 294 911 q 301 936 294 933 q 310 946 310 939 q 328 985 310 960 q 356 1010 346 1010 q 363 1021 360 1010 q 378 1032 367 1032 q 407 1015 390 1032 q 421 994 421 999 q 426 989 421 992 q 435 963 429 988 q 442 936 440 938 q 446 918 443 935 q 451 885 449 901 q 456 868 454 868 q 472 817 463 868 q 481 749 481 767 q 486 725 481 728 q 492 711 492 722 q 497 689 492 696 q 506 636 506 678 q 497 583 506 592 q 483 561 486 571 q 465 537 479 549 q 442 525 451 525 q 428 520 435 525 q 413 515 421 515 q 397 520 404 515 q 383 525 390 525 q 360 533 378 525 q 336 540 343 540 q 325 526 325 540 q 331 506 325 510 q 367 503 333 503 q 468 511 460 503 q 485 516 474 517 q 500 510 496 515 q 509 463 503 504 q 515 419 515 422 q 525 306 517 414 q 532 199 528 271 q 536 118 536 128 q 539 21 539 86 q 533 -178 539 -57 l 531 -243 l 583 -243 q 643 -250 638 -243 q 661 -262 651 -258 q 672 -269 672 -267 q 338 -278 672 -278 q 1 -272 1 -278 q 8 -255 1 -262 q 24 -247 15 -247 q 39 -242 36 -247 q 67 -240 42 -237 q 99 -236 90 -244 q 114 -233 106 -229 q 124 -233 121 -239 q 125 -187 125 -215 q 122 -18 125 -154 q 117 244 117 215 l 117 265 q 114 300 117 294 q 106 376 108 308 q 101 451 101 435 q 111 479 101 469 q 141 490 118 488 q 242 496 164 493 q 285 514 285 497 q 278 539 285 522 q 269 556 272 556 q 251 542 268 556 q 214 524 235 525 q 207 523 211 524 q 201 522 203 522 q 175 539 190 522 q 143 601 143 571 q 147 613 143 608 q 152 624 149 614 q 158 642 156 633 q 163 651 161 651 q 170 667 165 651 q 179 682 175 682 q 183 689 183 682 z "},"M":{"ha":675,"x_min":1,"x_max":675,"o":"m 415 165 q 410 160 415 165 q 406 150 406 156 q 398 140 406 144 q 390 128 390 135 q 379 106 390 115 q 353 97 368 97 q 335 108 335 97 q 326 128 335 118 q 308 138 318 138 l 306 138 q 297 126 299 136 q 294 46 296 115 q 289 -19 292 -19 q 285 -71 286 -19 q 263 -122 283 -122 q 253 -121 256 -122 q 231 -115 242 -115 q 219 -111 221 -115 q 218 -86 218 -107 q 222 -51 218 -56 q 233 21 225 -50 q 243 94 242 92 q 251 193 249 103 q 263 310 256 290 q 276 329 271 329 q 289 322 279 329 q 307 315 299 315 q 317 313 315 315 q 319 297 319 310 l 319 271 q 330 242 319 267 q 340 215 340 218 q 347 207 340 210 q 354 192 354 204 q 364 179 354 179 q 390 195 375 179 q 413 232 404 211 q 438 269 422 257 q 451 288 451 283 q 483 304 451 304 q 499 297 499 304 q 498 286 499 296 q 496 259 497 276 q 494 226 494 242 q 486 156 492 168 q 467 -50 476 143 q 457 -122 463 -117 q 435 -131 450 -131 q 417 -125 422 -131 q 411 -81 411 -119 q 415 -49 411 -50 q 424 36 421 -46 q 431 140 426 124 q 431 174 438 174 q 415 165 425 174 m 414 497 q 322 503 411 503 l 235 503 q 199 463 218 482 l 196 372 q 188 279 193 281 q 179 201 182 275 q 167 -53 174 -15 q 156 -164 156 -111 q 157 -189 156 -183 l 160 -210 l 219 -211 l 244 -211 q 286 -207 282 -211 q 318 -203 290 -203 q 351 -207 350 -203 q 419 -212 353 -210 l 451 -212 q 492 -207 488 -212 q 497 -132 497 -199 q 501 -62 497 -64 q 507 -44 507 -60 q 511 -28 507 -31 q 518 11 515 -24 q 526 53 521 44 q 535 115 529 58 q 543 176 540 171 q 553 263 547 186 q 563 385 558 349 q 567 435 567 414 l 567 443 q 554 464 564 454 q 538 474 544 474 l 535 474 q 517 482 526 471 q 461 493 507 493 q 414 497 418 493 m 461 961 q 449 942 461 956 q 436 924 436 928 q 431 918 436 918 q 426 911 426 918 q 418 900 426 903 q 407 886 410 897 q 390 863 406 882 q 375 839 375 844 q 365 822 375 832 q 353 794 356 813 q 329 743 343 751 q 325 711 325 742 q 340 665 325 681 q 375 649 357 649 q 393 660 389 649 q 401 669 396 669 q 406 676 406 669 q 417 692 406 683 q 439 700 429 700 q 475 669 451 700 q 508 632 497 638 q 521 626 513 631 q 539 615 529 621 q 557 613 547 613 q 593 625 593 613 q 600 638 593 631 q 608 711 608 646 q 614 779 608 776 q 618 839 618 781 q 614 911 618 906 q 604 946 610 915 q 571 1057 588 1046 q 563 1061 567 1061 q 525 1031 556 1061 q 503 1015 510 1015 q 497 1007 497 1015 q 489 1000 497 1000 q 478 987 483 1000 q 468 972 472 974 q 461 961 461 969 m 558 1103 q 578 1103 569 1107 q 588 1093 588 1100 q 594 1081 588 1085 q 606 1060 604 1071 q 614 1046 608 1046 q 618 1032 618 1046 q 625 1003 618 1017 q 634 962 628 996 q 644 921 640 928 q 647 900 647 918 q 647 877 647 896 q 646 844 646 858 q 644 721 644 806 q 640 640 644 660 q 617 601 635 621 l 596 579 l 522 579 l 496 604 q 443 644 456 644 q 436 632 436 644 q 432 619 436 619 q 423 597 429 619 q 415 574 417 575 q 411 550 408 571 l 413 531 l 588 531 l 603 514 q 618 471 618 497 q 613 426 618 446 q 607 350 611 421 q 599 274 603 279 q 586 75 592 265 q 572 -1 586 19 q 565 -60 571 -4 q 558 -118 560 -117 q 550 -171 553 -124 l 546 -217 l 575 -217 q 603 -222 603 -217 q 638 -228 603 -225 l 672 -229 q 674 -246 672 -235 q 675 -262 675 -257 l 650 -262 q 621 -268 624 -262 q 588 -272 619 -272 q 540 -268 553 -272 q 471 -260 525 -262 q 409 -252 433 -258 q 333 -246 385 -246 l 307 -246 q 251 -253 261 -246 q 165 -261 243 -261 q 90 -254 104 -261 q 44 -244 71 -246 q 6 -229 13 -242 q 1 -217 1 -222 q 57 -201 1 -201 q 106 -196 100 -201 q 113 -105 107 -194 q 122 -14 119 -15 q 131 58 125 -12 q 138 131 136 129 q 142 149 142 135 q 147 174 142 163 q 153 307 153 181 q 157 435 153 426 q 164 469 161 439 q 193 546 172 538 l 196 546 q 315 535 251 546 q 319 534 317 535 q 324 533 322 533 q 345 540 336 533 q 354 557 354 547 q 360 564 354 564 q 365 574 365 564 q 369 586 365 583 q 375 610 375 589 l 375 629 l 353 629 q 314 646 331 629 q 290 675 299 661 q 286 696 286 683 q 315 778 286 749 q 325 796 325 788 q 333 824 325 804 q 346 843 342 843 q 350 849 350 843 q 364 872 350 851 q 385 899 378 892 q 406 932 393 907 q 418 946 411 943 q 426 961 426 949 q 439 982 426 974 q 451 997 451 989 q 492 1042 451 1006 q 522 1072 494 1043 q 558 1103 550 1100 z "},"N":{"ha":536,"x_min":1,"x_max":536,"o":"m 308 92 q 315 74 311 92 q 322 57 319 57 q 331 42 324 57 q 342 26 338 26 q 346 36 344 26 q 360 58 349 47 q 375 97 372 71 q 385 128 378 124 q 392 147 392 132 q 397 163 392 160 q 407 194 404 167 q 424 231 410 225 q 447 231 438 238 q 457 206 457 225 q 436 135 457 176 q 428 108 428 118 q 419 85 428 101 q 407 29 413 69 q 379 -58 401 -14 q 372 -82 372 -69 q 367 -96 372 -93 q 363 -118 363 -97 q 351 -149 363 -136 q 328 -161 340 -161 q 310 -153 318 -161 q 299 -96 300 -142 q 286 14 296 4 q 282 33 282 18 q 279 53 282 43 q 271 76 276 64 q 264 93 265 89 q 253 107 256 107 q 235 54 240 107 q 228 26 232 26 q 223 10 226 26 q 216 -22 219 -6 q 211 -40 213 -39 q 207 -62 207 -42 q 204 -104 208 -76 q 197 -135 200 -132 q 181 -147 193 -139 q 163 -157 169 -157 q 142 -142 156 -157 q 128 -101 128 -128 q 132 -78 128 -78 q 145 -61 138 -78 q 153 -33 153 -44 q 160 -12 153 -22 q 171 19 168 0 q 178 42 174 42 q 183 60 181 42 q 193 83 186 76 q 201 115 199 89 q 210 156 201 132 q 218 196 218 179 l 218 203 l 218 215 q 233 249 218 233 q 254 267 249 267 q 275 253 256 267 q 292 214 292 239 q 298 140 292 188 q 308 92 304 92 m 449 265 q 388 271 421 265 q 329 276 354 276 q 292 282 293 276 q 251 291 290 286 q 210 297 211 296 q 203 301 208 301 q 188 287 197 301 q 178 264 178 272 q 172 250 178 253 q 165 228 168 246 q 156 200 164 219 q 147 172 147 181 q 143 160 147 164 q 135 118 135 149 q 138 107 135 107 q 140 100 140 107 q 138 76 140 92 q 131 44 135 60 q 126 25 126 28 q 119 -3 124 0 q 108 -58 117 -4 q 97 -112 99 -111 q 92 -161 94 -118 q 91 -175 92 -167 q 90 -185 90 -183 q 103 -200 90 -200 q 154 -193 110 -200 q 211 -182 206 -185 q 239 -178 217 -178 q 265 -179 256 -178 q 285 -180 272 -179 q 300 -181 297 -181 q 315 -178 313 -181 q 350 -176 321 -172 q 376 -179 372 -179 q 407 -165 404 -179 q 415 -152 408 -160 q 422 -135 422 -144 q 428 -112 422 -124 q 437 -69 429 -110 q 447 -26 444 -29 q 451 -7 451 -22 q 460 31 451 6 q 486 167 486 122 q 491 202 486 188 q 496 228 496 217 l 496 240 l 494 264 l 449 265 m 442 839 q 440 842 442 839 q 438 851 438 844 q 414 885 438 858 q 385 911 390 911 q 366 898 379 911 q 353 879 353 885 q 344 867 353 875 q 338 846 338 860 q 333 830 338 838 q 328 811 328 822 q 320 792 328 803 q 313 774 313 781 q 303 747 313 764 q 288 708 296 735 q 271 665 281 681 q 257 632 257 640 q 253 621 257 621 q 231 568 242 621 q 214 529 228 556 q 197 492 200 503 q 188 465 192 469 q 182 446 182 460 q 221 424 182 424 q 272 434 247 424 q 297 458 297 444 q 304 474 297 465 q 317 482 311 482 q 326 490 321 482 q 350 499 331 499 l 369 499 l 372 469 q 378 442 375 449 q 396 422 382 435 q 451 399 424 399 q 467 400 461 399 q 482 413 482 401 q 490 426 482 421 q 500 436 499 432 l 500 442 q 501 450 501 446 q 495 557 501 483 q 486 633 489 631 q 482 676 482 638 q 475 726 482 715 q 467 767 467 740 q 457 807 467 796 q 447 826 447 819 q 442 839 447 833 m 307 869 q 315 884 307 878 q 322 897 322 890 q 335 921 322 906 q 358 940 347 936 q 371 942 361 942 q 421 933 400 942 q 454 897 431 931 q 486 842 478 864 q 499 799 493 825 q 505 773 501 785 q 510 751 508 761 q 513 719 513 740 q 518 660 513 689 q 525 596 524 631 q 533 531 528 533 q 536 514 536 528 q 522 422 536 461 q 483 382 508 382 q 463 376 469 382 q 449 372 458 372 q 419 378 447 372 q 376 386 390 386 q 360 376 367 386 q 353 356 353 367 q 358 341 353 344 q 382 335 363 338 q 410 328 399 333 q 446 322 422 322 q 489 314 475 322 q 510 307 499 307 q 529 289 521 307 q 536 249 536 271 q 535 210 536 226 q 524 131 532 154 q 517 85 517 114 q 511 50 517 64 q 504 14 506 36 q 496 -35 501 -24 q 474 -160 492 -43 l 474 -168 q 501 -193 474 -193 q 532 -222 532 -193 q 519 -240 532 -237 q 500 -239 504 -243 q 357 -233 483 -233 l 319 -233 q 139 -249 158 -233 q 128 -251 133 -251 q 100 -247 119 -251 q 78 -243 81 -243 q 58 -239 71 -243 q 30 -229 44 -235 q 11 -222 15 -224 q 1 -217 1 -219 l 3 -211 q 3 -203 3 -206 q 17 -193 3 -193 q 47 -156 47 -193 q 53 -135 47 -140 q 60 -85 56 -132 q 68 -37 65 -39 q 74 -21 71 -36 q 78 11 76 -6 q 82 29 81 28 q 88 68 88 35 q 92 111 88 106 q 110 210 100 126 q 129 304 118 283 q 138 331 138 321 q 146 354 138 340 q 167 365 153 365 q 189 364 179 365 q 246 354 224 361 q 275 347 264 347 q 287 360 281 347 q 293 383 293 372 q 290 396 293 393 q 274 399 286 399 q 233 397 253 399 l 199 397 q 164 404 172 397 q 150 454 150 418 q 156 478 150 472 q 163 492 163 482 q 170 503 163 499 q 178 514 178 508 q 190 548 178 518 q 203 582 203 578 q 212 618 203 590 q 225 651 221 646 q 255 709 233 661 q 276 764 276 757 q 287 810 275 772 q 303 854 299 849 q 307 869 307 858 z "},"O":{"ha":690,"x_min":1,"x_max":692,"o":"m 419 103 q 421 110 419 103 q 426 117 422 117 q 435 142 431 117 q 443 167 439 167 q 447 185 447 167 q 439 239 447 222 q 413 257 431 257 q 372 239 372 254 q 360 224 372 235 q 349 208 347 214 q 347 201 351 201 q 338 192 343 201 q 324 169 332 183 q 317 153 317 154 q 310 126 307 136 q 306 106 313 117 q 294 57 297 94 q 293 35 293 49 q 301 8 293 14 q 329 1 308 1 q 365 24 351 1 q 383 46 381 44 q 388 56 388 50 q 401 76 388 63 q 419 103 417 89 m 317 253 q 327 269 317 258 q 338 283 338 281 q 356 307 338 289 l 375 328 l 407 325 q 444 314 438 324 q 456 307 449 307 q 474 289 461 307 q 488 263 488 271 q 492 249 488 250 q 497 229 496 246 q 493 210 497 213 q 485 172 490 207 q 478 135 479 138 q 469 103 472 129 q 432 19 461 54 q 361 -43 375 -43 q 347 -53 357 -43 q 317 -62 338 -62 q 280 -53 297 -62 q 263 -29 263 -43 q 253 -7 263 -17 q 242 42 242 3 q 247 85 242 82 q 250 101 250 86 q 256 126 250 110 q 263 149 263 142 q 267 163 263 163 q 275 174 272 163 q 293 215 281 190 q 311 240 306 239 q 317 253 317 242 m 472 436 q 450 438 457 436 q 435 445 443 440 q 417 453 426 450 q 357 464 381 464 q 285 425 313 464 q 257 350 271 408 q 249 328 256 339 q 242 307 242 318 q 235 283 242 293 q 225 250 231 278 q 214 217 219 222 q 199 174 210 213 q 186 131 189 135 q 182 114 182 122 q 166 69 182 110 q 147 10 150 28 q 139 -23 144 -8 q 131 -60 133 -37 q 122 -94 129 -78 q 115 -129 115 -110 l 115 -156 l 229 -158 q 349 -168 342 -161 q 383 -174 354 -174 q 426 -167 419 -174 q 431 -157 428 -165 q 437 -141 433 -149 q 443 -133 440 -133 q 447 -122 447 -133 q 453 -92 447 -111 q 463 -74 460 -74 q 469 -57 467 -74 q 489 15 474 -35 q 508 69 504 65 q 513 83 513 78 q 522 108 513 94 q 532 146 532 125 q 538 167 532 167 q 542 178 542 167 q 549 201 542 190 q 563 247 554 210 q 572 285 565 267 q 579 338 578 303 l 583 385 l 564 401 q 539 417 543 417 q 514 426 533 417 q 472 436 494 436 m 638 993 q 625 1001 638 1001 q 597 989 610 1001 q 581 976 585 976 q 556 949 576 976 q 514 897 529 913 q 492 871 492 872 q 479 850 492 865 q 432 772 463 831 q 413 729 413 736 q 400 711 413 724 q 372 658 372 681 q 365 628 372 644 q 357 594 357 608 q 389 564 357 564 q 438 581 408 564 q 467 610 467 599 q 479 617 467 617 q 496 622 490 617 q 509 622 501 628 q 517 608 517 617 q 524 599 517 601 l 554 565 q 597 533 582 533 q 613 540 606 533 q 625 567 618 546 q 632 589 632 588 q 656 714 646 608 q 658 790 658 761 q 649 929 658 890 q 638 993 642 957 m 603 1033 q 633 1044 618 1046 q 650 1040 650 1042 q 672 985 672 1003 q 679 958 672 965 q 688 913 688 950 q 690 817 688 881 q 691 799 690 811 q 692 779 692 786 q 667 604 692 671 l 660 576 q 638 522 653 543 q 604 501 622 501 q 573 512 596 501 q 538 532 550 522 q 510 539 522 543 q 483 497 483 532 q 496 472 483 478 q 532 464 508 467 q 585 449 560 461 q 622 436 610 436 q 644 424 632 436 q 657 401 657 411 q 650 368 657 392 q 642 313 642 340 q 617 225 642 281 q 599 167 610 210 q 578 106 589 124 q 563 63 569 92 q 542 10 556 25 q 528 -25 533 1 q 503 -122 508 -110 q 496 -160 496 -139 l 494 -185 l 540 -187 q 588 -194 588 -190 q 596 -210 588 -201 q 601 -232 606 -219 q 572 -242 597 -242 q 550 -241 568 -242 q 517 -240 532 -240 q 424 -228 438 -239 q 372 -218 411 -218 q 319 -212 336 -218 q 262 -203 307 -208 q 197 -197 217 -197 q 109 -208 151 -199 q 67 -228 67 -218 q 56 -233 67 -233 q 15 -219 29 -233 l 1 -208 l 17 -194 q 40 -175 39 -175 q 54 -149 49 -169 q 65 -127 57 -142 q 77 -99 72 -112 q 82 -74 82 -86 q 92 -26 82 -56 q 103 13 103 4 q 111 36 103 25 q 131 80 119 50 q 146 132 143 110 q 154 163 149 157 q 165 194 158 167 q 172 225 171 221 q 184 275 172 226 q 199 326 196 324 q 207 351 201 329 q 217 376 213 374 q 222 392 222 379 q 229 411 222 404 q 238 426 238 419 q 248 456 238 435 q 260 483 258 478 q 290 510 265 510 l 301 510 q 386 492 383 500 q 407 486 389 486 q 435 501 426 486 q 442 526 442 515 q 422 536 442 536 q 400 532 403 536 q 393 528 399 529 q 383 527 388 526 q 378 531 378 528 q 354 547 378 535 l 331 558 l 335 611 q 344 671 336 663 q 353 686 353 679 q 367 715 353 694 q 392 764 374 728 q 406 790 400 781 q 419 814 413 800 q 438 846 432 839 q 447 865 447 858 q 476 904 447 875 q 529 965 513 943 q 561 1000 554 997 q 576 1011 567 1003 q 603 1033 589 1022 z "},"P":{"ha":625,"x_min":1,"x_max":625,"o":"m 340 279 q 322 292 338 279 q 297 306 306 306 q 288 297 292 306 q 285 211 285 289 q 293 126 285 135 q 308 119 301 118 q 329 133 315 119 q 346 168 346 149 q 351 192 346 186 q 357 228 357 197 q 340 279 357 279 m 306 375 q 316 370 307 374 q 333 363 325 367 q 340 356 340 358 q 349 351 340 351 q 368 337 356 351 q 383 310 381 322 q 396 286 386 296 q 413 251 408 274 q 422 222 417 233 q 426 204 426 218 q 418 154 426 182 q 399 115 410 126 q 386 99 386 103 q 367 84 386 92 q 335 76 349 76 q 290 63 313 76 q 286 -40 289 63 l 282 -143 l 269 -146 q 257 -149 258 -149 q 244 -124 244 -149 q 240 -99 244 -107 q 236 -81 236 -90 q 238 -62 236 -71 q 242 101 242 -33 q 238 263 242 238 q 219 301 233 288 q 210 336 206 315 q 217 363 217 361 q 254 367 221 367 q 296 371 289 367 q 306 375 303 375 m 206 -207 q 240 -212 225 -207 q 278 -218 254 -218 q 333 -225 315 -218 q 419 -232 357 -232 q 460 -228 458 -232 q 489 -222 463 -222 l 514 -222 l 511 -200 q 508 -94 508 -187 q 511 50 508 11 l 511 75 q 507 111 511 106 q 496 191 503 115 q 488 271 489 267 q 489 296 483 282 q 494 361 494 310 q 488 439 494 421 q 483 493 483 449 q 474 543 483 532 q 407 557 461 557 q 336 554 375 557 q 303 552 326 554 q 258 549 279 550 q 224 549 238 549 q 164 544 164 549 q 153 528 164 542 q 143 438 143 517 q 153 162 143 343 q 168 -26 163 -19 q 179 -190 176 -35 l 179 -207 l 206 -207 m 394 635 q 368 642 386 635 q 344 650 350 650 q 336 656 336 650 q 325 660 336 660 q 315 651 315 660 q 313 624 315 646 q 319 600 310 606 q 340 598 329 594 q 353 610 350 601 q 379 621 354 619 q 407 631 407 624 q 394 635 407 635 m 432 858 q 424 873 428 858 q 417 888 419 888 q 411 900 411 888 q 399 922 411 913 q 386 939 386 932 q 376 960 386 947 q 367 975 367 972 q 353 993 367 979 q 338 1021 340 1006 q 325 1038 335 1035 q 314 1047 317 1040 q 290 1056 310 1056 q 267 1047 271 1056 q 254 1031 265 1042 q 244 1014 253 1029 q 228 984 236 999 q 218 969 221 969 q 214 961 214 969 q 204 930 214 954 q 194 897 194 906 q 185 867 194 883 q 172 810 175 849 q 164 765 169 771 q 158 711 158 760 q 163 675 158 675 q 171 663 168 675 q 196 647 174 650 q 214 646 203 646 q 242 660 238 646 q 254 672 243 667 q 265 689 265 678 q 274 710 265 699 q 292 721 283 721 q 323 703 296 721 q 356 685 350 685 q 371 679 365 685 q 407 672 378 672 q 444 683 438 672 q 458 763 458 701 q 446 831 458 818 q 438 849 438 839 q 432 858 438 858 m 164 899 q 171 924 167 899 q 179 949 175 949 q 183 956 183 949 q 208 1004 183 975 q 214 1022 214 1013 q 219 1035 214 1035 q 224 1042 224 1035 q 243 1067 224 1053 q 278 1082 263 1081 q 297 1083 285 1083 q 351 1058 328 1083 q 371 1026 371 1039 q 376 1015 371 1015 q 408 961 381 1015 q 418 949 414 949 q 422 942 422 949 q 429 931 422 933 q 440 915 435 929 q 446 899 444 900 q 461 874 450 896 q 472 846 472 851 q 483 818 472 840 q 492 774 492 801 l 492 753 q 478 666 488 688 q 447 644 469 644 q 414 628 414 644 q 433 617 414 618 q 462 610 443 615 q 493 603 481 604 q 518 583 511 599 q 539 272 531 554 q 554 -17 547 -10 q 558 -79 558 -21 q 608 -228 558 -228 q 619 -240 619 -228 q 625 -278 619 -256 l 392 -278 q 158 -272 158 -278 q 85 -268 158 -268 q 7 -265 13 -268 q 1 -250 1 -262 q 8 -235 1 -237 q 17 -224 17 -232 q 24 -217 17 -217 q 32 -212 31 -217 q 72 -204 33 -208 q 114 -197 111 -200 q 115 -167 115 -196 q 110 3 115 -92 q 108 33 108 15 q 113 60 108 56 q 118 156 118 65 q 110 321 118 293 q 100 349 103 336 q 90 417 94 363 q 82 460 88 454 q 78 485 78 464 q 83 517 78 511 q 82 532 89 521 q 83 550 75 542 q 97 558 92 558 q 106 567 103 558 q 125 574 108 574 q 153 586 140 574 q 201 599 164 599 q 254 613 254 599 q 222 617 254 619 q 203 615 214 615 q 167 628 186 615 q 136 661 144 642 q 128 719 128 681 q 134 766 128 749 q 142 806 140 783 q 149 847 143 828 q 156 879 154 867 q 164 899 158 899 z "},"Q":{"ha":549,"x_min":1,"x_max":549,"o":"m 356 271 q 341 287 356 279 q 315 294 326 294 q 294 285 304 294 q 285 265 285 276 q 280 251 285 258 q 275 235 275 243 q 267 206 275 225 q 260 181 260 188 q 252 139 260 169 q 244 94 244 108 q 239 57 244 64 q 236 43 236 53 q 249 -8 236 42 q 268 -33 256 -33 q 278 -28 272 -33 q 296 -19 286 -19 q 306 -4 306 -19 q 304 21 306 10 q 296 61 301 61 q 290 100 290 64 l 290 139 l 307 138 q 322 132 318 136 q 331 107 325 128 q 347 76 339 76 q 358 107 354 76 q 368 142 361 131 q 374 201 374 147 q 365 261 374 256 q 356 271 356 267 m 392 301 q 396 294 392 294 q 406 259 400 294 q 413 224 411 224 q 417 181 417 224 q 413 138 417 138 q 406 127 410 138 q 400 104 403 117 l 397 92 q 388 67 393 86 q 381 42 383 47 q 375 0 375 33 q 381 -39 375 -33 q 388 -72 383 -40 q 396 -104 392 -103 q 402 -119 403 -106 q 394 -139 401 -133 q 379 -146 388 -146 q 360 -128 367 -146 q 347 -103 357 -118 q 333 -78 336 -87 q 313 -71 326 -57 q 251 -81 303 -81 q 233 -79 238 -81 q 207 -43 222 -75 q 194 13 194 -17 q 195 33 194 17 q 196 60 196 49 q 215 206 197 104 q 225 235 224 235 q 229 253 229 235 q 238 288 229 271 q 244 310 244 299 q 268 343 244 319 q 300 365 290 365 q 317 364 310 365 q 368 335 343 361 q 392 301 392 306 m 369 507 q 277 511 325 507 q 199 517 229 515 q 180 517 192 517 q 164 518 168 518 q 140 517 147 518 q 127 508 132 515 q 122 492 122 500 q 119 464 121 485 q 113 418 117 421 q 108 403 108 415 q 113 389 108 392 q 118 374 118 386 q 113 360 118 361 q 107 200 110 358 l 107 121 q 114 36 107 39 q 121 -65 121 32 q 114 -167 121 -162 q 110 -175 108 -171 q 265 -179 118 -179 q 398 -178 376 -179 q 422 -169 419 -176 q 429 -56 426 -161 q 436 51 432 49 q 444 100 442 54 q 454 153 447 146 q 460 247 460 158 q 464 336 460 336 q 468 385 468 336 q 461 486 468 468 q 447 503 457 499 q 403 507 436 507 l 369 507 m 328 1010 q 322 1019 325 1019 q 301 1008 317 1019 q 285 992 285 996 q 274 974 285 985 q 258 946 261 961 q 247 926 256 929 q 240 914 240 924 q 233 896 240 906 q 214 867 214 872 q 203 849 214 860 q 161 776 189 838 q 154 764 158 772 q 147 749 150 756 q 142 735 144 743 q 139 719 139 728 q 133 706 139 706 q 128 690 128 706 q 122 675 128 675 q 125 654 113 675 q 131 646 128 649 q 139 632 139 638 q 161 618 139 618 q 185 628 179 618 q 201 635 188 635 q 225 647 211 635 q 243 672 239 660 q 256 690 246 681 q 269 700 265 700 q 286 686 275 700 q 300 663 297 672 q 354 636 307 636 q 382 639 363 636 q 440 678 429 646 q 442 690 442 681 q 432 742 442 742 q 424 764 426 742 q 413 797 421 789 q 394 842 401 811 q 382 899 386 874 q 376 924 378 924 q 371 932 371 924 q 357 969 371 942 q 338 999 343 996 q 328 1010 331 1001 m 139 801 q 149 822 139 807 q 158 840 158 836 q 171 858 158 846 q 186 882 183 871 q 194 893 189 893 q 199 901 199 893 q 204 908 199 908 q 210 915 210 908 q 220 941 210 921 q 235 964 231 961 l 236 968 q 242 978 239 972 q 249 990 246 985 q 281 1034 260 1014 q 321 1054 301 1054 q 350 1039 336 1054 q 385 981 379 1003 q 392 964 388 964 q 399 936 396 964 q 412 887 401 914 q 425 849 422 860 q 433 832 428 832 q 438 824 438 832 q 446 800 438 815 q 456 776 454 785 q 463 754 458 758 q 472 681 472 738 q 471 663 472 667 q 451 629 468 646 l 436 614 l 297 614 l 294 586 q 294 553 292 556 q 342 547 300 547 q 386 553 383 547 q 421 558 388 558 q 499 538 499 558 q 504 528 499 528 q 507 503 507 528 q 500 404 507 456 q 499 388 499 399 q 503 360 499 372 q 503 333 510 342 q 499 306 499 329 q 500 269 499 294 q 501 235 501 243 q 499 219 501 219 q 490 -93 490 219 l 490 -174 q 519 -175 500 -175 q 549 -176 539 -175 l 549 -199 q 548 -215 549 -211 q 544 -221 547 -219 q 535 -222 542 -222 q 517 -226 519 -222 q 486 -235 513 -235 q 456 -229 467 -235 q 299 -221 439 -221 l 235 -221 q 153 -226 157 -221 q 128 -232 144 -232 q 106 -237 108 -232 q 78 -243 100 -243 q 19 -233 39 -243 q 1 -210 1 -225 q 24 -179 1 -185 l 38 -175 l 38 -93 q 42 -7 38 -8 q 49 40 44 -6 q 56 86 53 85 q 63 113 63 89 q 68 139 63 138 q 75 274 75 142 q 67 440 75 436 q 63 469 63 444 q 69 513 63 506 q 78 524 78 521 q 118 546 78 539 q 146 554 140 549 q 172 558 150 558 q 197 554 193 558 q 219 549 200 549 l 238 549 l 242 581 q 242 614 244 611 l 240 614 q 174 582 231 614 q 167 581 172 581 q 145 585 157 581 q 133 594 133 590 q 124 599 133 599 q 101 682 103 599 q 107 739 101 738 q 115 758 110 740 q 124 776 119 776 q 128 785 128 776 q 133 792 128 792 q 139 801 139 792 z "},"R":{"ha":567,"x_min":1,"x_max":567,"o":"m 338 294 q 301 315 318 315 q 279 297 285 315 q 264 199 267 261 l 263 181 l 290 179 l 301 179 q 346 203 321 179 q 372 244 372 228 q 364 264 372 256 q 358 270 363 265 q 348 282 354 275 q 338 294 342 289 m 244 69 q 239 19 244 51 q 233 -35 233 -14 q 226 -75 231 -68 q 218 -96 221 -83 q 199 -110 217 -108 q 181 -108 183 -111 q 176 -90 178 -106 q 168 -67 174 -72 q 163 -50 163 -64 q 169 -31 164 -36 q 186 38 181 -19 q 193 69 189 61 q 214 144 214 107 q 219 171 214 165 q 227 219 221 172 q 236 268 233 267 q 240 313 240 272 q 240 337 240 329 q 242 353 240 344 q 248 365 244 361 q 258 368 251 368 q 271 365 260 368 q 307 361 286 361 q 338 356 322 361 q 368 349 354 350 q 396 338 393 346 q 404 331 399 331 q 413 322 408 331 q 425 297 418 313 l 431 283 q 438 254 438 267 q 403 192 438 222 q 384 174 397 188 q 365 157 371 161 q 336 135 342 136 q 328 125 328 133 q 340 99 328 118 q 351 76 351 81 q 358 56 351 67 q 368 22 363 49 q 379 -11 374 -4 q 386 -32 386 -21 q 392 -49 386 -43 q 399 -89 399 -56 q 390 -125 400 -124 q 368 -123 381 -126 q 356 -114 356 -119 q 343 -85 356 -107 q 331 -42 331 -62 q 322 -7 331 -26 q 313 22 314 13 q 294 72 310 42 q 269 106 278 103 q 263 107 267 107 q 244 69 244 107 m 442 449 q 363 464 439 449 q 250 479 288 479 q 217 476 239 479 q 178 464 189 472 q 168 436 168 456 q 164 417 168 417 q 158 391 161 417 q 153 340 156 365 q 149 313 150 314 q 142 265 147 310 q 133 217 136 219 q 128 188 128 211 q 124 161 128 164 q 118 140 118 158 q 124 122 118 122 q 128 107 128 122 q 124 92 128 92 q 118 57 118 92 q 113 11 118 22 q 104 -51 107 0 q 97 -106 101 -103 q 90 -135 93 -110 l 86 -162 l 108 -158 q 154 -154 128 -154 q 260 -171 229 -154 q 343 -179 278 -176 q 390 -181 364 -181 q 422 -174 417 -181 q 428 -140 428 -167 q 433 -107 428 -112 q 441 -79 438 -103 q 447 -28 444 -56 q 451 4 450 -1 q 457 56 457 26 q 463 89 457 86 q 472 133 467 92 q 483 194 474 146 q 493 267 493 243 q 501 301 493 283 q 510 332 508 318 q 518 362 511 347 q 525 394 525 376 q 524 415 526 411 q 514 421 522 419 q 485 429 496 425 q 463 438 468 438 q 457 442 457 438 q 442 449 457 446 m 424 967 q 408 979 414 979 q 388 956 403 979 q 366 925 379 942 q 346 897 353 908 q 302 825 333 874 q 264 769 271 776 q 232 726 226 726 q 228 715 233 726 q 213 688 222 703 q 199 668 204 674 q 189 651 189 658 q 175 631 189 644 q 161 611 161 618 q 171 599 161 604 q 254 579 197 579 q 269 582 268 579 q 292 596 271 586 q 314 618 311 606 q 321 629 317 629 q 326 636 326 629 q 354 650 326 650 q 371 625 371 650 q 369 614 371 618 l 369 611 l 368 608 q 376 585 368 597 q 396 569 385 574 q 443 561 410 564 q 463 560 451 560 q 490 571 478 560 l 506 583 l 504 668 q 499 756 504 754 q 490 785 496 757 q 478 826 488 808 q 468 860 468 843 q 460 891 468 872 q 451 919 453 910 q 424 967 449 939 m 63 64 q 67 91 63 81 q 71 118 71 101 q 76 147 68 144 q 86 181 82 149 q 93 217 90 214 q 100 255 94 219 q 108 293 106 290 q 113 326 113 294 q 121 413 113 356 q 133 471 129 469 q 139 482 139 474 q 165 513 139 499 q 218 526 190 526 q 238 524 226 526 q 275 518 256 518 q 311 550 311 518 q 309 561 311 560 q 297 561 307 563 q 288 559 293 561 q 279 555 283 557 q 274 553 275 553 q 247 549 265 549 q 229 553 229 549 q 203 560 229 557 q 167 571 175 563 q 151 579 158 579 q 139 597 144 579 q 135 613 135 608 q 146 642 135 617 q 165 669 158 669 q 168 678 168 669 q 175 689 168 686 q 191 713 179 690 q 208 738 203 736 q 211 746 214 739 q 222 765 208 750 q 235 781 235 779 q 256 810 235 785 q 278 839 278 836 q 293 861 279 844 q 308 885 307 878 q 315 899 311 894 q 337 926 322 904 q 351 956 351 949 q 356 964 351 964 q 361 969 361 964 q 378 992 361 975 q 411 1010 394 1010 q 428 1003 421 1010 q 439 994 436 994 q 453 983 444 994 q 463 965 463 972 q 478 930 463 963 q 493 892 493 897 q 497 881 493 883 q 506 856 503 878 q 515 824 507 844 q 524 789 524 803 q 529 768 524 774 q 535 664 535 763 l 535 606 q 526 556 535 564 q 510 543 517 543 q 490 536 501 543 q 461 529 478 529 q 425 536 442 529 q 385 543 397 546 q 368 517 368 542 q 379 498 368 503 q 425 490 390 493 q 486 479 465 488 q 518 472 503 472 q 533 468 533 472 q 547 460 533 465 q 565 426 563 453 q 567 396 567 417 q 558 325 567 344 q 551 290 554 314 q 539 226 550 257 q 525 163 528 196 q 517 104 524 132 q 511 31 511 76 q 504 -40 511 -33 q 499 -72 499 -46 q 493 -114 499 -81 q 488 -161 488 -147 q 496 -181 488 -178 q 524 -210 524 -186 q 514 -222 524 -222 q 500 -228 506 -222 q 451 -233 494 -233 q 392 -231 413 -233 q 232 -210 238 -215 q 211 -207 229 -207 q 194 -201 194 -207 q 174 -197 194 -197 q 75 -214 153 -197 q 33 -219 53 -219 q 1 -204 1 -219 q 19 -179 1 -185 q 33 -117 31 -176 q 42 -57 35 -79 q 50 -6 49 -35 q 57 32 51 18 q 63 64 63 46 z "},"S":{"ha":569,"x_min":1,"x_max":571,"o":"m 207 308 q 260 326 229 326 q 342 294 314 326 q 350 261 350 285 q 329 193 350 217 q 313 183 319 182 q 294 196 307 183 q 281 225 281 210 q 272 249 281 238 q 254 261 263 261 q 240 256 246 261 q 229 240 235 250 q 219 226 224 231 q 222 201 214 219 q 293 135 254 147 q 344 89 329 121 q 360 -4 360 57 q 342 -77 360 -54 q 282 -108 324 -100 q 244 -112 264 -112 q 235 -112 240 -112 q 229 -111 231 -111 q 199 -95 213 -108 q 182 -64 185 -82 q 174 -39 179 -49 q 171 -8 171 -33 l 171 10 q 199 71 175 71 l 203 71 q 211 63 210 69 q 215 24 213 56 q 224 -31 217 -15 q 250 -50 232 -46 q 261 -51 254 -51 q 293 -35 281 -51 q 306 7 306 -19 q 278 76 306 64 q 214 117 215 115 q 185 146 201 122 q 171 174 174 164 q 167 219 168 185 l 167 242 q 174 277 167 267 q 207 308 181 288 m 388 194 q 381 272 388 225 q 375 342 375 319 q 369 371 375 365 q 342 376 364 376 q 285 372 324 376 q 236 367 246 367 q 213 361 215 367 q 163 357 211 357 q 108 349 117 357 q 96 342 101 342 q 88 308 88 342 q 90 255 88 288 q 97 193 93 222 q 101 160 101 164 q 111 69 108 82 q 119 10 119 14 q 128 -25 122 -18 q 142 -129 142 -49 q 147 -147 142 -147 q 149 -164 151 -147 q 147 -174 147 -168 q 160 -189 147 -186 q 215 -192 174 -192 q 388 -161 283 -192 q 446 -128 440 -149 q 443 -94 449 -121 q 439 -44 439 -74 q 433 -18 439 -18 q 431 -15 432 -18 q 430 -6 431 -11 q 428 0 429 -1 q 419 22 424 3 q 415 54 415 42 q 417 61 415 60 q 415 68 418 63 q 407 81 411 74 q 403 90 403 88 q 393 122 400 108 q 388 194 388 142 m 90 725 q 81 700 90 717 q 71 675 71 683 q 65 660 71 663 q 58 628 61 657 q 49 589 56 599 q 32 511 32 561 q 35 494 32 500 q 90 475 44 475 q 115 479 107 475 q 143 529 143 494 q 145 546 143 543 q 156 550 147 549 q 186 535 169 551 q 222 517 204 517 q 250 511 243 517 q 263 508 256 508 q 314 525 290 508 q 325 574 325 533 q 313 632 325 614 q 300 661 300 650 q 293 678 300 671 q 290 684 290 681 q 289 690 289 688 q 286 692 289 692 q 281 700 281 692 q 272 726 281 708 q 263 750 264 743 q 249 787 260 764 q 232 815 238 810 q 225 826 225 822 q 213 844 225 832 q 197 871 200 857 q 172 913 194 886 q 142 940 149 940 q 135 924 135 940 q 128 903 135 906 q 118 869 121 900 q 108 817 117 856 q 100 760 100 778 q 96 739 100 742 q 90 725 90 736 m 108 953 q 120 975 111 964 q 140 986 129 986 q 174 963 149 986 q 200 931 200 939 q 210 918 200 925 q 231 889 219 913 q 254 850 238 872 q 278 813 271 828 q 290 786 289 788 q 303 765 296 782 q 310 740 310 747 q 317 715 310 729 q 334 674 319 710 q 354 629 349 638 q 360 569 360 622 q 342 493 360 510 q 258 475 324 476 l 208 474 l 208 458 q 221 422 213 422 q 224 423 222 422 q 226 424 225 424 q 318 435 268 435 q 408 400 401 435 q 415 383 411 388 q 419 354 419 381 q 428 306 419 328 q 439 242 433 289 q 465 72 457 97 q 472 35 468 65 q 481 -3 476 6 q 494 -106 494 -39 l 494 -112 q 525 -158 494 -158 q 553 -172 538 -158 q 569 -197 569 -186 l 569 -199 q 563 -207 569 -206 l 468 -210 q 346 -229 365 -212 q 224 -239 342 -232 q 101 -247 106 -246 q 57 -253 74 -253 q 25 -237 25 -253 q 28 -228 25 -232 q 54 -210 36 -211 q 88 -199 78 -206 q 99 -176 99 -192 q 94 -154 99 -167 q 71 -8 81 -97 q 56 53 67 18 q 42 140 44 88 q 35 215 39 211 q 31 239 31 217 q 26 264 31 260 q 18 340 18 269 q 19 364 18 358 q 26 381 22 378 q 47 390 31 385 q 114 403 72 399 l 156 408 l 154 429 q 151 446 153 443 q 140 447 149 449 q 106 446 129 446 q 43 454 56 446 q 24 461 32 461 q 7 474 14 461 q 1 507 1 481 q 10 567 1 539 q 26 626 11 571 q 46 689 42 681 q 52 703 47 692 q 58 719 57 714 q 85 864 71 753 q 96 917 88 890 q 101 929 97 921 q 106 943 104 938 q 108 953 108 949 z "},"T":{"ha":649,"x_min":1,"x_max":649,"o":"m 322 164 q 330 138 322 157 q 338 110 338 119 q 343 88 338 99 q 354 -2 347 82 q 361 -119 361 -86 q 361 -125 361 -122 l 360 -129 q 333 -133 358 -133 l 310 -133 l 304 -89 q 264 107 292 0 q 239 214 243 186 q 208 342 219 322 q 197 347 204 347 q 151 343 189 347 l 122 340 q 124 365 122 349 q 125 389 125 381 l 168 394 q 215 403 197 399 q 261 411 233 408 q 321 421 306 417 q 345 424 340 426 q 353 408 350 422 q 363 385 354 396 q 365 379 365 382 q 321 372 365 372 q 271 346 279 372 q 269 335 269 343 q 290 249 269 288 q 304 208 303 221 q 314 186 306 199 q 322 164 322 174 m 369 496 l 363 522 l 299 521 q 185 507 217 519 q 118 472 132 488 q 104 415 104 457 l 104 392 q 113 324 107 335 q 121 297 118 314 q 131 249 121 294 q 143 185 135 229 q 158 114 151 142 q 164 67 164 92 l 164 58 q 169 38 163 49 q 174 19 175 26 q 179 1 172 13 q 186 -18 186 -11 q 205 -102 188 -46 q 229 -158 222 -158 q 240 -165 233 -158 q 296 -171 247 -171 l 342 -171 q 519 -160 506 -165 q 526 -142 526 -158 q 519 -96 526 -125 q 504 -47 511 -67 q 496 -24 497 -26 q 485 19 493 -19 q 470 90 481 47 q 457 144 460 132 q 410 304 443 224 q 393 372 393 344 q 385 399 393 388 q 378 439 378 407 q 369 496 378 468 m 100 900 q 88 878 88 881 q 78 853 88 875 q 68 829 68 832 q 40 732 68 818 q 33 685 33 708 q 39 650 33 667 q 64 630 44 639 q 101 621 83 621 q 133 631 119 621 q 147 642 144 638 q 147 661 149 646 q 148 680 146 676 q 158 683 150 683 q 182 688 161 683 q 194 690 190 690 q 221 661 211 690 q 271 619 236 619 q 328 668 308 619 q 338 701 338 689 q 333 736 338 711 q 324 779 328 764 q 313 815 319 794 q 300 857 306 835 q 256 982 278 943 q 247 1006 247 996 q 238 1026 247 1014 q 226 1042 233 1031 q 213 1060 219 1053 q 199 1071 207 1068 l 186 1075 q 157 1047 167 1068 q 133 985 133 996 q 125 959 133 976 q 115 935 117 942 q 100 900 113 921 m 163 1103 q 190 1106 171 1106 q 236 1079 210 1106 q 263 1047 263 1050 q 272 1036 263 1042 q 285 1015 278 1033 q 297 976 292 997 q 306 951 303 956 q 313 931 313 940 q 317 919 313 924 q 325 892 319 918 q 343 829 335 863 q 363 701 363 763 q 274 590 363 592 q 240 585 240 589 q 242 579 240 582 q 285 572 243 572 q 406 557 400 572 q 412 543 407 553 q 419 524 417 533 q 422 504 422 514 q 431 483 422 486 q 438 469 438 481 q 442 454 438 458 q 453 414 447 447 q 470 341 457 386 q 486 282 483 296 q 497 244 494 247 q 503 222 503 239 q 508 194 503 207 q 517 167 514 181 q 539 78 531 96 q 546 57 546 67 q 550 22 544 47 q 558 -6 556 -3 q 563 -43 563 -8 q 567 -86 563 -67 q 574 -115 572 -106 q 585 -158 576 -135 q 606 -167 586 -167 q 635 -178 624 -167 q 649 -196 649 -192 q 610 -203 649 -203 l 586 -203 q 506 -206 544 -203 q 420 -212 467 -208 q 340 -218 374 -217 q 108 -247 139 -232 q 86 -253 99 -253 q 65 -244 69 -253 q 65 -228 61 -233 q 85 -215 69 -222 q 160 -176 151 -186 q 161 -160 161 -175 q 150 -65 161 -110 q 125 57 144 -46 q 72 304 94 214 q 44 467 51 383 l 42 499 l 74 515 q 133 535 106 532 q 193 576 193 540 q 185 606 193 594 q 160 608 176 617 q 107 597 139 597 q 29 619 56 597 q 8 632 14 632 q 1 665 1 632 q 13 742 1 719 q 18 761 18 753 q 25 788 18 774 q 51 859 32 803 q 71 919 69 915 q 88 958 82 942 q 125 1053 103 1010 q 163 1103 147 1096 z "},"U":{"ha":600,"x_min":1,"x_max":600,"o":"m 200 374 q 225 382 206 382 q 256 372 243 382 q 264 347 264 364 q 256 294 264 332 q 250 158 250 261 q 254 85 250 86 q 261 65 256 83 q 269 47 267 47 q 275 22 275 47 q 285 -12 275 0 q 311 -24 296 -24 q 321 -17 321 -24 q 325 -10 321 -10 q 342 3 333 -10 q 351 29 351 17 q 357 47 351 46 q 365 83 361 49 q 372 121 369 118 q 375 153 375 126 q 369 285 375 171 l 369 303 q 374 351 369 333 q 381 376 378 372 q 397 379 385 379 q 413 376 410 379 q 418 353 415 372 q 419 199 419 343 q 422 44 419 54 q 432 -49 432 7 q 429 -76 432 -72 q 418 -81 428 -81 q 389 -68 401 -81 q 354 -56 367 -50 q 351 -58 351 -56 q 296 -74 351 -74 q 275 -69 275 -74 q 268 -65 275 -65 q 260 -60 260 -65 q 253 -54 260 -54 q 217 -24 243 -54 q 207 60 213 -18 q 201 190 201 138 q 202 208 201 197 q 203 221 203 218 q 200 261 206 256 q 194 317 194 267 q 200 374 194 367 m 442 536 q 420 541 436 538 q 385 547 404 544 q 361 551 365 550 q 344 550 347 554 q 279 544 342 544 q 167 540 250 544 q 104 525 117 538 q 94 496 90 511 q 113 407 106 415 q 118 310 118 393 q 113 224 118 224 q 108 183 108 224 q 114 144 108 144 q 122 127 118 144 q 128 89 125 110 l 131 68 q 139 -26 136 56 q 146 -147 140 -67 l 150 -182 l 171 -182 q 194 -187 192 -182 q 246 -196 197 -193 q 296 -203 296 -199 q 321 -204 296 -207 q 363 -210 346 -200 q 428 -219 378 -217 l 476 -222 q 481 -192 485 -200 q 475 11 478 -186 q 468 219 472 208 q 462 284 464 229 q 458 390 460 339 q 453 442 456 440 q 447 488 447 444 q 442 536 447 532 m 235 1061 q 230 1047 235 1054 q 225 1032 225 1040 q 217 1014 225 1022 q 208 975 214 1011 q 199 936 201 939 q 190 909 196 935 q 183 883 185 883 q 176 864 182 883 q 165 824 171 844 q 158 803 158 804 q 138 708 140 768 l 136 668 l 153 664 q 165 663 157 663 q 206 678 200 663 q 215 685 208 685 q 229 699 221 685 q 265 714 240 721 q 275 690 275 710 q 292 663 275 671 q 318 656 306 656 q 334 649 322 656 q 354 650 346 642 q 367 674 367 657 q 365 697 367 686 q 357 743 363 738 q 351 764 351 749 q 343 804 351 776 q 338 831 340 813 q 332 865 336 850 q 322 886 328 881 q 315 906 315 893 q 311 921 315 919 q 306 947 306 924 q 300 969 306 969 q 296 981 296 969 q 288 1006 296 990 q 278 1032 279 1022 q 267 1061 275 1049 q 247 1071 258 1071 q 235 1061 235 1071 m 356 899 q 364 860 358 899 q 372 822 369 822 q 376 806 376 822 q 381 785 376 786 q 390 750 382 783 q 406 656 406 678 q 392 626 406 631 q 354 624 386 624 q 304 626 318 624 q 285 628 288 629 q 279 617 282 628 q 281 592 276 606 q 288 583 283 585 q 314 583 293 582 q 344 589 344 586 q 356 594 347 594 q 376 603 363 594 q 401 610 388 610 q 411 609 404 610 q 422 608 418 608 q 478 585 478 603 q 483 571 478 576 q 492 504 488 567 q 499 439 497 442 q 508 340 503 429 q 524 169 518 176 q 533 64 528 165 q 544 -126 540 -82 l 550 -217 l 565 -217 q 588 -224 576 -217 q 600 -240 600 -232 q 589 -256 600 -244 q 532 -264 581 -264 l 488 -264 q 390 -258 399 -264 q 353 -249 386 -256 q 318 -242 321 -243 q 235 -237 311 -237 q 124 -243 131 -237 q 107 -243 114 -250 q 63 -237 101 -237 q 10 -233 19 -237 q 1 -207 1 -229 l 1 -182 l 19 -182 q 38 -186 38 -182 q 46 -192 38 -192 q 60 -186 57 -192 q 78 -182 61 -182 l 93 -182 l 90 -119 q 82 -54 88 -60 q 68 122 76 -50 q 58 244 63 224 q 49 347 51 279 q 44 417 47 404 q 33 433 42 429 q 24 443 25 438 q 22 472 22 449 q 39 544 22 524 q 100 571 56 565 q 147 583 118 572 q 204 594 175 594 l 225 594 l 225 617 q 217 640 225 640 q 208 633 211 640 q 168 628 207 628 q 119 638 131 628 q 106 690 106 650 q 108 728 106 715 q 113 752 110 733 q 117 776 115 771 q 126 805 118 789 q 136 839 135 821 q 143 870 138 860 q 150 897 149 881 q 169 961 157 939 q 178 993 172 965 q 188 1026 183 1021 q 194 1051 194 1036 q 199 1065 194 1065 q 204 1075 204 1065 q 215 1096 204 1085 q 250 1106 225 1106 q 278 1098 269 1106 q 300 1064 288 1090 q 315 1038 311 1040 q 321 1022 321 1035 q 326 1008 321 1011 q 335 974 332 1006 q 344 931 338 940 q 351 910 351 921 q 356 899 351 899 z "},"V":{"ha":543,"x_min":-4,"x_max":543,"o":"m 364 383 q 376 394 367 385 q 392 407 385 403 q 408 411 400 411 q 431 404 419 411 q 443 378 443 396 q 429 343 443 360 q 417 322 417 331 q 413 315 417 315 q 407 296 407 315 q 399 265 407 281 q 389 240 390 249 q 382 224 386 224 q 373 190 379 224 q 365 156 367 156 q 361 132 361 153 q 357 113 361 113 q 351 99 354 113 q 344 72 347 86 q 340 57 342 58 q 328 19 335 50 q 321 -15 322 -12 q 304 -55 317 -33 q 288 -76 292 -76 q 267 -46 278 -75 q 251 21 256 -17 q 242 44 249 42 q 235 65 239 46 q 229 104 232 83 q 225 128 226 125 q 207 210 211 158 q 199 248 206 233 q 192 290 193 263 q 185 329 190 315 q 179 367 179 343 q 192 401 179 401 q 211 394 197 401 q 227 381 224 388 q 232 350 231 374 q 239 312 233 326 q 247 274 244 297 q 255 228 249 249 q 263 188 261 207 q 271 156 265 158 q 275 138 275 153 q 285 119 275 118 q 290 124 288 119 q 297 143 293 128 q 305 176 301 158 q 310 196 308 193 q 331 272 325 235 q 342 310 332 289 q 351 350 351 332 q 364 383 351 374 m 429 506 q 332 511 407 511 q 272 507 275 511 q 189 503 269 503 l 108 503 l 100 485 q 93 414 93 467 q 94 319 93 361 q 103 163 97 172 q 113 -129 110 151 l 113 -186 l 160 -186 q 254 -182 175 -186 l 283 -182 q 368 -183 343 -182 q 414 -186 410 -186 q 440 -178 433 -186 q 447 -81 447 -167 q 451 14 447 10 q 460 250 457 19 q 461 418 461 331 q 454 490 461 483 q 429 506 443 500 m 432 769 q 417 835 432 788 q 401 907 401 883 q 397 924 401 924 q 392 936 392 924 q 385 953 392 949 q 375 974 378 957 q 364 995 374 982 q 340 1024 354 1008 q 324 1042 326 1039 q 308 1056 313 1056 q 289 1042 299 1056 q 276 1017 279 1029 q 269 1000 274 1000 q 265 990 265 1000 q 258 974 265 985 q 250 960 250 964 q 234 918 250 954 q 214 878 218 882 l 206 864 q 192 835 199 849 q 183 822 185 822 q 179 813 179 822 q 169 785 179 807 q 158 758 158 763 q 153 751 158 751 q 149 743 149 751 q 143 736 149 736 q 138 726 138 736 q 131 713 138 715 q 121 684 125 711 q 114 656 117 657 q 118 628 101 651 q 151 614 129 614 q 174 619 174 614 q 183 625 174 625 q 213 640 192 625 q 235 672 235 656 q 239 685 235 685 q 247 697 244 685 q 281 714 256 724 q 287 710 285 713 q 290 705 289 707 q 290 697 290 703 q 289 688 289 690 q 303 656 289 671 q 336 640 318 640 q 374 635 346 640 q 415 629 403 629 q 446 647 440 629 q 447 668 447 651 q 438 738 447 728 q 432 769 432 743 m 176 863 q 178 873 176 863 q 183 883 181 883 q 190 899 186 883 q 199 914 194 914 q 207 929 204 914 q 240 1011 219 975 q 244 1026 244 1019 q 260 1055 244 1032 q 285 1085 275 1078 q 303 1092 294 1092 q 333 1078 317 1092 q 346 1060 346 1065 q 354 1056 346 1056 q 361 1049 361 1056 q 376 1030 361 1044 q 392 1010 392 1015 q 396 999 392 1000 q 411 972 400 996 q 422 942 422 949 q 428 931 422 933 q 432 915 432 928 q 436 901 432 903 q 444 869 442 896 q 451 838 447 840 q 460 785 454 836 q 468 733 467 735 q 475 685 472 724 q 476 660 476 675 q 447 608 476 626 q 418 601 431 601 q 349 610 403 601 q 321 613 336 613 q 297 606 308 613 q 283 595 286 600 q 281 575 281 590 l 281 553 l 338 556 q 403 565 392 558 q 418 564 410 569 q 454 556 424 558 q 493 543 481 553 q 507 490 506 532 q 508 399 508 464 q 499 161 508 174 q 493 -12 493 150 l 493 -181 l 506 -197 q 532 -212 521 -212 q 543 -228 543 -212 l 543 -243 l 513 -240 q 463 -232 483 -237 q 413 -228 446 -228 q 368 -233 374 -228 q 206 -242 364 -237 q 44 -247 50 -244 q 24 -242 40 -247 q 6 -237 8 -237 q 13 -215 -4 -237 q 38 -201 24 -201 q 53 -196 50 -201 q 54 -36 54 -192 q 50 425 54 347 q 49 503 49 454 l 49 519 q 55 535 50 532 q 76 540 60 538 q 108 549 100 543 q 171 554 119 554 q 226 557 224 554 q 232 588 229 563 q 234 606 235 600 q 231 613 233 613 q 222 614 229 614 q 206 606 211 614 q 154 597 200 597 q 97 607 108 597 q 88 632 88 617 q 89 656 88 646 q 97 694 92 692 q 103 706 103 697 q 110 722 103 715 q 124 748 115 728 q 133 775 133 768 q 141 785 133 781 q 149 797 149 790 q 154 813 149 806 q 161 828 160 819 q 168 843 164 843 q 176 863 172 843 z "},"W":{"ha":542,"x_min":1,"x_max":542,"o":"m 263 151 q 271 119 267 151 q 279 88 275 88 q 285 74 282 88 q 293 58 286 58 q 303 79 301 60 q 308 97 306 97 q 313 115 310 97 q 320 151 317 132 q 324 171 324 169 q 331 211 328 181 q 350 363 339 347 q 354 378 354 371 q 362 393 354 385 q 376 401 369 401 q 392 382 385 401 q 400 349 400 363 q 396 340 400 340 q 389 325 392 340 q 383 294 386 310 q 379 276 381 278 q 372 224 376 274 q 364 171 367 174 q 356 119 358 158 q 349 69 354 88 q 342 24 343 50 q 335 -20 340 -4 q 329 -58 331 -36 q 304 -114 326 -114 l 301 -114 q 288 -97 293 -112 q 279 -79 282 -82 q 270 -50 275 -75 q 263 -22 265 -25 q 254 6 256 -10 q 247 26 251 26 q 243 36 243 26 q 239 46 243 43 q 230 46 235 49 q 222 36 225 43 q 200 -50 214 15 q 190 -81 194 -81 q 188 -87 188 -81 q 182 -94 188 -93 q 169 -93 176 -96 q 156 -85 161 -90 q 142 -18 143 -74 q 136 43 139 40 q 131 88 131 49 q 136 132 131 126 q 139 154 139 135 q 136 218 139 188 q 129 349 129 322 q 135 385 129 382 q 142 392 142 389 q 150 404 142 397 q 188 401 169 419 q 196 381 194 394 q 197 311 197 368 q 192 226 197 229 q 188 183 188 222 q 192 143 188 143 q 199 156 196 143 q 216 184 201 169 q 240 199 231 199 q 258 165 258 199 q 263 151 258 153 m 201 514 q 174 526 200 526 l 161 526 q 108 518 117 526 q 97 513 103 513 q 82 504 90 513 q 75 401 75 497 l 75 256 q 81 -11 78 4 q 88 -108 83 -22 q 96 -207 92 -194 l 101 -225 l 224 -224 q 363 -222 292 -222 q 417 -200 383 -222 l 431 -190 l 428 -28 q 421 150 425 136 q 415 306 415 163 q 419 414 415 411 q 425 457 425 417 q 423 492 425 486 q 413 501 421 499 q 398 501 407 503 q 383 501 389 500 q 375 507 378 501 q 369 513 372 513 q 353 508 367 513 q 324 508 336 501 q 286 511 315 514 q 215 504 221 504 q 201 514 203 504 m 157 619 q 169 626 157 622 q 182 635 182 631 q 190 640 182 640 q 208 650 201 640 q 215 674 215 660 q 215 678 215 675 q 214 683 214 681 q 219 708 211 704 q 241 706 228 711 q 258 700 254 700 q 268 688 268 700 q 285 656 268 671 q 324 640 301 642 q 349 633 349 638 q 356 633 349 626 q 369 640 363 640 q 392 656 379 640 q 406 714 406 671 q 397 757 406 757 q 385 774 389 757 q 368 803 381 786 q 330 865 351 821 q 303 918 308 910 q 293 938 293 931 q 275 982 293 946 q 236 1046 250 1032 q 210 1056 226 1056 q 197 1049 197 1056 q 187 1029 197 1044 q 176 1008 176 1014 q 172 1000 176 1000 q 167 989 167 1000 q 163 979 167 979 q 154 964 158 979 q 146 949 150 949 q 142 924 142 949 q 136 899 142 899 q 129 868 132 899 q 126 844 128 854 q 122 828 124 833 q 115 814 119 824 q 106 796 110 804 q 90 769 94 772 q 86 754 86 767 q 81 740 86 743 q 74 688 74 738 q 75 642 74 651 q 85 626 76 633 q 126 614 97 614 q 157 619 157 614 m 29 321 q 24 383 29 364 q 19 444 19 403 q 25 503 19 503 q 29 508 29 503 q 42 530 29 517 q 64 543 56 543 q 76 550 74 543 q 139 556 78 556 q 169 556 154 556 q 194 556 185 556 q 206 557 204 557 q 213 586 213 557 q 211 610 213 606 q 200 614 210 614 q 183 608 185 614 q 156 594 179 601 q 115 588 133 588 q 50 622 79 588 q 44 682 44 628 q 49 728 44 722 q 58 753 56 735 q 65 771 61 771 q 70 780 67 771 q 78 800 74 789 q 83 814 82 811 q 99 867 97 843 q 110 905 99 872 q 122 949 122 938 l 122 954 q 150 1035 122 974 q 179 1072 156 1050 q 215 1090 197 1090 q 261 1061 233 1090 q 278 1040 278 1044 q 288 1024 278 1039 q 299 1006 299 1010 q 304 1000 299 1000 q 311 982 307 1000 q 318 964 315 964 q 331 938 319 964 q 347 903 340 910 q 354 886 354 896 q 360 878 354 878 q 364 869 364 878 q 374 850 364 865 q 385 831 385 835 q 397 814 385 826 q 410 796 410 801 q 418 779 410 788 q 425 758 425 772 q 431 743 425 746 q 435 706 435 739 q 431 668 435 672 q 422 646 425 665 q 394 614 415 614 q 372 607 386 614 q 332 607 350 596 q 294 617 319 614 l 268 618 l 268 558 l 292 558 q 324 563 315 558 q 376 569 326 564 q 435 575 426 575 l 439 575 q 478 546 465 575 q 482 271 482 529 q 486 -4 482 3 q 492 -57 492 -21 q 486 -158 492 -78 q 482 -215 482 -197 q 485 -233 482 -231 q 514 -242 490 -239 q 535 -247 532 -244 q 540 -262 539 -250 l 542 -279 l 438 -276 q 189 -272 317 -272 q 57 -275 115 -272 l 1 -278 l 3 -261 q 17 -242 4 -243 q 29 -207 28 -240 q 35 -169 32 -172 q 40 35 40 -161 q 35 246 40 229 q 29 321 29 263 z "},"X":{"ha":631,"x_min":1,"x_max":632,"o":"m 342 -86 q 324 -117 342 -92 q 306 -146 306 -143 q 288 -151 306 -151 q 261 -124 261 -151 q 281 -75 261 -97 q 293 -53 290 -65 q 300 -39 296 -39 q 315 6 304 -39 q 339 65 335 46 q 347 82 342 82 q 351 92 351 82 q 356 103 351 103 q 360 110 358 103 q 360 126 361 117 q 354 140 358 135 q 346 164 346 151 q 342 181 346 176 q 322 250 331 192 q 313 275 319 268 q 306 293 306 279 q 295 326 306 300 q 285 361 285 351 q 289 372 285 368 q 319 374 297 381 q 333 351 329 371 q 346 314 335 340 q 358 275 357 288 q 366 252 360 263 q 374 233 372 242 q 381 219 376 219 q 415 284 383 219 q 447 356 447 349 q 458 370 447 364 q 478 374 468 376 q 488 343 488 371 q 483 315 488 315 q 469 291 481 315 q 457 260 457 267 q 454 254 457 254 q 441 234 450 254 q 429 197 432 214 q 422 175 426 176 q 417 163 417 172 q 413 153 417 153 q 407 128 407 153 q 411 103 407 103 q 421 89 414 103 q 428 68 428 75 q 438 41 428 58 q 447 13 447 24 q 458 -18 447 6 q 468 -50 468 -42 q 475 -76 468 -67 q 482 -108 482 -87 q 478 -137 482 -125 q 463 -151 472 -150 q 450 -139 453 -151 q 433 -124 447 -126 q 412 -112 417 -119 q 407 -85 407 -104 q 401 -55 407 -67 q 394 -25 396 -43 q 376 26 388 26 q 364 -4 368 26 q 344 -72 356 -61 q 342 -86 342 -78 m 357 476 q 294 486 351 485 l 260 486 q 229 479 236 486 q 219 469 226 475 q 208 458 213 464 q 204 444 204 453 q 199 422 204 433 q 189 343 194 413 q 185 285 188 325 q 181 232 182 244 q 174 183 178 190 q 169 103 169 178 q 161 13 169 33 q 156 -12 156 -1 q 150 -76 156 -18 q 140 -183 143 -131 l 138 -229 l 225 -225 q 326 -218 279 -224 q 429 -212 372 -212 q 506 -206 504 -212 q 508 -196 506 -204 q 513 -182 510 -187 q 522 -111 519 -165 q 529 -60 525 -60 q 533 -29 533 -60 q 539 13 533 1 q 550 117 544 25 q 558 293 557 249 q 561 358 561 351 q 553 396 561 396 q 549 407 549 396 q 518 444 549 422 q 406 469 485 469 q 357 476 361 469 m 292 574 q 296 575 292 574 q 300 578 300 575 q 318 592 300 581 q 336 604 336 603 q 361 619 336 607 q 389 643 386 631 q 403 656 392 656 q 428 615 424 656 q 438 583 431 592 q 471 567 444 575 q 510 558 496 558 q 547 578 528 558 q 565 649 565 593 q 563 681 565 661 q 560 714 560 697 q 560 726 560 718 q 561 736 561 733 q 562 746 561 739 q 563 757 563 753 q 555 863 563 803 q 540 928 547 924 q 532 947 535 931 q 521 972 531 958 q 510 993 511 985 q 497 1014 507 1007 q 488 1028 488 1021 q 481 1035 488 1035 q 472 1031 472 1035 q 424 972 472 1022 q 364 882 401 950 q 344 854 350 856 q 324 832 333 847 q 315 804 315 817 q 311 786 315 786 q 300 770 308 786 q 283 738 292 754 q 274 719 275 721 q 257 690 263 703 q 249 638 249 669 q 261 583 249 594 q 276 576 267 579 q 292 574 285 574 m 346 908 q 353 923 346 914 q 361 939 361 932 q 367 949 361 949 q 371 954 371 949 q 401 990 371 960 q 440 1035 435 1024 q 460 1058 457 1056 q 483 1071 469 1071 q 507 1056 499 1071 q 519 1040 514 1040 q 524 1032 524 1040 q 531 1022 524 1028 q 539 1010 539 1015 q 546 992 539 1001 q 557 961 554 981 q 560 944 558 949 q 567 933 561 939 q 576 919 572 928 q 588 845 585 904 q 591 733 590 786 q 594 678 592 681 q 599 644 599 675 q 593 589 599 601 q 540 536 581 558 q 504 532 522 525 q 461 540 479 539 q 435 549 438 543 q 424 553 431 556 q 413 540 417 550 q 417 515 406 526 q 443 513 428 504 q 467 511 457 519 q 486 503 475 503 q 508 513 497 503 q 526 522 521 522 q 542 511 531 522 q 576 501 554 499 q 603 496 599 503 q 619 483 606 492 q 630 469 628 479 q 625 456 632 460 q 618 396 621 451 q 607 311 615 343 q 600 188 600 286 q 594 90 600 93 q 589 40 589 88 q 583 -61 589 0 q 574 -128 578 -122 q 565 -193 565 -144 q 571 -212 565 -212 q 593 -228 578 -212 q 604 -244 604 -239 q 558 -256 604 -256 q 526 -255 550 -256 q 488 -254 503 -254 l 440 -254 q 333 -258 369 -254 q 46 -275 206 -275 q 22 -274 24 -275 q 9 -255 17 -269 q 1 -235 1 -240 q 38 -228 1 -226 q 75 -226 74 -228 q 93 -96 85 -217 q 96 -22 96 -60 q 95 6 96 -12 q 94 32 94 25 q 94 55 94 40 q 93 75 93 69 q 97 125 93 108 q 107 253 104 149 q 117 363 108 354 q 124 386 124 369 q 130 451 124 410 q 140 497 136 492 q 150 514 147 503 q 231 525 151 522 q 258 526 240 525 q 283 526 276 526 q 325 524 314 526 q 349 521 342 518 q 361 553 361 528 q 354 558 361 557 q 338 558 347 560 q 322 551 328 556 q 288 544 315 544 q 258 551 261 544 q 249 558 256 558 q 227 573 240 558 q 214 596 214 588 q 208 614 214 608 q 208 631 203 619 q 213 646 210 633 q 219 669 215 658 q 225 681 222 681 q 232 696 228 681 q 240 711 236 711 q 247 726 244 711 q 254 742 250 742 q 263 754 260 742 q 276 778 264 764 q 289 806 288 792 q 292 823 290 817 q 296 831 294 829 q 302 839 297 833 q 311 854 307 844 q 329 882 326 881 q 336 892 336 886 q 342 899 336 899 q 346 908 346 899 z "},"Y":{"ha":699,"x_min":1,"x_max":699,"o":"m 447 160 q 437 108 447 146 q 426 54 426 69 q 422 27 426 38 q 415 0 417 17 q 388 -153 414 -17 q 381 -167 385 -167 q 374 -176 376 -167 q 356 -185 371 -187 q 340 -189 340 -181 q 333 -199 340 -196 q 318 -199 325 -201 q 303 -161 303 -192 q 315 -118 303 -133 q 326 -87 321 -112 q 335 -57 332 -62 q 343 -31 342 -43 q 350 -10 346 -10 q 357 17 354 -10 q 365 47 358 33 q 374 76 372 61 q 386 117 376 99 q 396 150 396 136 q 390 165 396 160 q 386 196 386 167 q 367 278 386 231 q 347 354 347 325 q 361 385 347 379 q 381 390 371 390 q 411 349 411 390 q 419 316 411 333 q 428 286 426 299 q 446 243 431 263 l 463 258 q 482 275 479 275 q 488 282 488 275 q 497 299 488 289 q 524 331 513 314 q 569 367 549 367 q 581 363 578 367 q 586 342 583 360 q 587 337 586 340 q 588 331 588 333 q 558 275 588 296 q 531 253 554 272 q 513 239 517 239 q 494 215 507 239 q 476 189 483 194 q 458 183 469 183 q 449 180 450 183 q 447 160 447 176 m 513 -87 q 520 -56 513 -79 q 528 -26 528 -33 q 532 -14 528 -14 q 549 26 535 -14 q 571 93 567 65 q 578 121 572 110 q 586 151 585 132 q 593 186 589 182 q 624 288 607 204 q 629 347 629 321 q 624 383 629 383 q 546 401 583 397 q 401 433 454 413 q 332 440 390 438 l 275 443 l 272 421 q 265 394 271 406 q 257 368 258 382 q 244 322 254 354 q 232 268 235 290 q 224 240 229 243 q 217 204 222 239 q 208 168 211 169 q 200 135 204 167 q 193 100 196 103 q 185 66 190 97 q 178 33 179 35 q 172 21 172 31 q 168 10 172 11 q 162 -25 165 10 q 153 -101 158 -60 q 142 -154 147 -143 q 136 -194 136 -165 q 136 -221 135 -217 q 147 -226 138 -225 q 165 -232 158 -229 q 286 -237 174 -237 q 368 -233 367 -237 q 419 -225 371 -228 q 471 -212 469 -221 q 486 -178 475 -200 q 500 -133 497 -157 q 507 -101 503 -101 q 513 -87 513 -99 m 644 951 q 640 967 643 953 q 634 996 638 982 q 626 1010 631 1010 q 610 997 621 1010 q 599 976 599 983 l 582 957 q 556 921 568 944 q 517 867 543 897 q 497 842 497 847 q 479 821 497 839 q 463 794 463 804 q 457 786 463 786 q 437 763 453 786 q 419 739 421 739 q 385 691 413 733 q 358 646 357 649 q 353 632 358 639 q 338 586 338 608 q 340 572 338 581 q 376 557 344 560 q 396 556 383 556 q 426 564 410 556 q 454 574 446 574 q 464 585 461 574 q 481 600 467 594 q 492 603 489 603 q 513 579 513 603 q 525 550 513 565 q 538 532 538 538 q 551 513 538 529 q 582 500 567 497 q 622 533 617 507 q 631 562 624 543 q 639 594 639 581 q 644 618 639 613 q 650 785 650 624 q 644 951 650 943 m 426 796 q 434 806 426 801 q 442 815 442 811 q 447 822 442 822 q 451 829 451 822 q 464 846 451 836 q 500 893 481 863 q 528 929 524 929 q 538 946 533 929 q 564 985 543 961 q 583 1014 583 1007 q 588 1019 583 1019 q 596 1031 593 1019 q 618 1040 600 1040 q 642 1036 633 1040 q 667 982 660 1022 q 675 951 672 954 q 681 786 681 943 q 675 606 681 633 q 672 585 675 603 q 666 556 669 568 q 660 543 663 543 q 651 522 654 543 q 642 496 649 503 q 617 481 636 489 q 581 472 597 472 q 515 507 538 472 q 501 524 504 524 q 500 515 500 524 q 494 496 500 511 q 488 475 488 481 q 497 467 488 467 q 513 460 506 467 q 546 453 518 453 q 575 446 572 453 q 614 439 578 439 q 669 429 668 433 q 676 415 669 419 q 690 362 681 411 q 699 282 699 313 q 690 254 699 254 q 685 242 685 254 q 681 229 685 229 q 672 201 678 229 q 664 174 667 174 q 660 160 663 174 q 653 133 657 147 q 650 118 650 119 q 642 88 644 110 q 613 19 635 47 q 604 4 604 11 q 596 -17 604 0 q 586 -54 589 -31 q 578 -79 583 -79 q 574 -89 574 -81 q 567 -111 574 -100 q 555 -151 561 -121 q 544 -192 549 -182 q 549 -225 528 -225 q 567 -233 558 -225 q 603 -242 578 -242 q 642 -249 631 -242 q 654 -257 654 -253 q 588 -267 654 -264 q 514 -274 524 -267 q 489 -274 503 -279 q 446 -268 472 -268 l 433 -268 q 326 -269 407 -269 q 97 -262 100 -269 q 88 -257 94 -257 q 82 -262 82 -257 q 67 -267 82 -267 q 50 -264 53 -268 q 31 -251 47 -260 q 7 -242 14 -242 q 2 -235 3 -242 q 3 -220 1 -229 q 6 -208 6 -211 q 10 -198 6 -200 q 32 -197 14 -196 l 39 -197 q 61 -191 56 -197 q 67 -169 67 -185 q 71 -156 67 -156 q 80 -141 75 -156 q 88 -125 85 -126 q 97 -60 92 -122 q 108 19 101 8 q 117 49 117 36 q 122 63 117 63 q 126 78 124 63 q 133 111 129 94 q 138 128 136 128 q 144 156 139 129 q 153 186 150 183 q 157 201 157 190 q 160 228 156 213 q 168 244 164 244 q 172 257 172 244 q 178 269 172 269 q 185 283 182 269 q 211 400 201 374 q 218 426 218 414 q 224 438 218 438 q 229 449 229 438 q 249 479 229 467 q 304 488 261 488 q 358 482 340 488 q 404 474 372 476 q 426 474 422 472 q 438 492 431 476 q 446 524 446 511 q 436 539 446 539 q 426 533 426 539 q 397 529 426 529 q 358 533 363 529 q 331 540 356 538 q 308 547 313 543 q 304 565 304 550 l 304 579 q 311 609 306 593 q 321 625 317 625 q 328 640 324 625 q 336 656 332 656 q 339 663 342 656 q 350 685 336 671 q 369 713 361 696 q 389 742 378 731 q 406 765 406 758 q 416 780 406 768 q 426 796 426 792 z "},"Z":{"ha":678,"x_min":0,"x_max":678,"o":"m 297 192 q 305 215 297 200 q 313 238 313 229 q 317 251 313 250 q 326 274 319 253 q 333 297 332 296 q 335 308 338 300 q 288 315 333 315 q 206 347 206 315 q 214 371 206 363 q 250 369 221 381 q 285 363 274 363 q 328 367 299 363 q 379 378 378 375 q 396 381 382 383 q 414 365 410 379 q 417 346 417 354 q 403 300 417 314 q 393 272 393 290 q 388 254 393 254 q 383 243 383 254 q 374 214 383 238 q 364 183 364 190 q 358 174 364 174 q 350 158 354 174 q 343 140 346 142 q 338 125 338 138 q 333 113 338 113 q 326 93 329 113 q 308 50 325 86 q 292 6 292 14 q 287 -8 292 -1 q 282 -25 282 -15 q 286 -37 282 -35 q 311 -42 290 -39 q 363 -43 322 -43 l 388 -43 l 410 -43 q 446 -53 436 -43 q 451 -79 457 -64 q 422 -94 447 -93 l 414 -94 q 388 -90 403 -94 q 364 -86 374 -86 l 356 -86 q 329 -90 353 -86 q 292 -96 306 -94 q 239 -106 249 -101 q 200 -100 213 -118 q 197 -92 197 -94 q 217 -43 197 -78 q 221 -25 221 -35 q 228 -6 221 -19 q 236 14 236 7 q 244 33 236 22 q 254 65 251 43 q 263 88 257 88 q 267 94 267 88 q 272 103 267 103 q 279 125 276 103 q 289 157 281 136 q 297 192 297 178 m 483 475 q 331 486 467 483 q 242 488 292 488 q 185 481 196 488 q 175 450 175 474 l 175 440 l 175 168 q 176 -115 175 -92 q 178 -138 176 -125 q 180 -160 179 -151 q 181 -171 181 -168 q 181 -178 181 -176 q 185 -180 182 -179 q 194 -179 189 -181 q 226 -174 199 -178 q 277 -167 253 -171 q 307 -161 301 -164 q 369 -156 318 -156 q 433 -161 422 -156 q 467 -167 438 -164 l 492 -169 l 499 -140 q 510 108 510 -90 q 506 181 510 178 q 503 228 503 183 l 503 267 q 504 353 504 292 q 503 407 504 393 l 499 467 l 483 475 m 253 629 q 269 642 256 629 q 285 656 283 656 q 298 665 289 656 q 307 679 307 675 q 328 685 307 685 l 347 685 l 350 658 q 368 619 353 632 q 386 610 382 610 q 403 597 390 610 q 438 583 417 583 q 463 579 461 583 q 471 575 464 576 q 484 574 478 574 q 490 578 490 575 q 503 586 490 583 q 531 671 531 593 q 525 714 531 711 q 521 732 521 717 l 521 739 q 517 804 521 764 q 510 846 513 844 q 506 869 506 850 q 499 901 506 892 q 485 957 489 914 q 460 1047 479 1010 q 436 1074 447 1074 l 433 1074 q 389 1049 403 1074 q 378 1035 381 1035 q 374 1026 374 1035 q 367 1013 374 1022 q 349 989 363 1008 q 339 978 346 985 q 328 967 332 971 q 322 955 325 963 q 318 940 318 947 q 313 929 318 929 q 306 915 308 929 q 290 885 304 906 q 275 857 276 865 q 263 840 272 843 q 251 829 251 838 q 244 815 251 822 q 227 789 238 808 q 217 763 217 769 q 211 757 217 757 q 206 749 206 757 q 200 738 206 739 q 177 698 193 733 q 161 650 161 663 q 172 624 161 635 q 210 604 189 604 q 218 608 217 604 q 232 614 221 614 q 243 622 238 614 q 253 629 249 629 m 232 843 q 247 869 232 847 q 263 894 263 892 q 267 906 263 903 q 290 954 281 914 q 297 969 293 969 q 303 976 303 969 q 322 1006 303 986 q 351 1046 339 1025 q 367 1067 363 1065 q 374 1078 374 1069 q 388 1092 374 1085 q 435 1101 404 1101 l 468 1101 l 478 1082 q 493 1057 488 1063 q 500 1040 500 1050 q 504 1028 500 1031 q 518 936 510 1024 q 525 906 521 917 q 543 796 533 883 q 551 771 546 771 q 558 719 556 771 q 567 658 561 667 q 568 651 568 657 q 558 614 568 646 l 544 576 l 542 575 q 536 571 540 574 q 529 565 532 568 q 488 554 514 554 q 421 563 461 554 q 375 576 381 571 q 360 583 371 583 q 344 567 349 583 q 360 539 339 539 q 376 533 371 539 q 469 528 382 528 l 558 525 q 567 496 561 501 q 571 400 571 492 q 565 263 571 278 q 563 221 563 257 q 565 119 563 165 q 568 56 567 90 q 570 5 569 22 q 571 -14 571 -12 q 568 -101 571 -15 l 565 -181 l 597 -183 q 646 -186 631 -186 q 678 -211 678 -186 q 642 -228 678 -228 q 619 -232 622 -228 q 578 -240 614 -240 q 543 -237 565 -240 q 464 -217 478 -225 q 443 -212 456 -212 q 425 -206 436 -212 q 371 -200 419 -200 q 301 -207 308 -200 q 278 -212 296 -212 q 254 -217 258 -212 q 186 -231 249 -222 q 76 -240 124 -240 q 19 -231 33 -240 q 3 -214 6 -219 q 3 -207 0 -211 q 14 -200 7 -203 q 28 -197 21 -197 q 39 -192 39 -197 q 69 -186 39 -186 q 96 -185 92 -186 q 100 -175 100 -183 q 104 -160 100 -164 q 110 -117 107 -158 q 116 -32 114 -75 q 119 14 118 11 q 125 67 125 28 q 131 111 125 110 q 133 172 133 114 q 125 417 133 304 q 124 454 124 431 q 125 481 124 479 q 131 493 131 486 q 176 525 131 518 q 201 533 201 528 q 238 539 201 539 q 281 543 268 539 q 288 563 283 544 q 292 596 292 582 q 286 610 292 610 q 272 603 276 610 q 239 582 263 592 q 201 571 214 571 q 157 594 181 571 q 138 617 140 610 q 135 649 135 625 q 156 711 135 693 q 163 732 157 713 q 174 753 168 751 q 181 763 181 756 q 190 776 181 769 q 204 797 201 785 q 211 813 207 813 q 218 825 214 813 q 226 838 222 838 q 232 843 232 838 z "},"a":{"ha":738,"x_min":1,"x_max":738,"o":"m 447 757 q 404 767 440 763 q 365 774 368 772 q 347 771 356 776 q 332 764 339 765 q 317 756 317 761 q 310 751 317 751 q 299 744 301 751 q 285 733 297 742 q 272 719 272 725 q 257 693 272 714 q 248 681 254 689 q 240 671 242 674 q 234 662 239 668 q 228 653 229 656 q 224 646 228 651 q 220 636 221 640 q 217 626 219 632 q 214 613 215 619 q 211 599 213 607 q 206 575 210 592 q 203 553 203 558 q 218 517 203 538 q 244 497 233 497 q 258 493 256 497 q 285 489 261 489 q 332 496 318 489 q 356 503 343 503 q 369 506 365 503 q 378 515 374 508 q 392 525 383 521 q 414 549 414 540 q 418 558 414 558 q 431 575 424 558 q 439 603 439 592 q 446 632 439 618 q 454 656 454 646 q 467 682 454 664 q 479 714 479 700 q 447 757 479 731 m 463 807 q 486 794 469 807 q 510 782 503 782 q 519 778 519 782 q 533 760 519 774 l 546 744 l 538 726 q 525 708 533 719 q 513 688 517 697 q 507 664 508 678 q 500 638 504 642 q 499 622 499 636 q 492 597 499 615 q 485 576 485 579 q 478 564 485 568 q 467 536 469 556 q 454 497 465 524 q 442 458 443 469 q 421 435 438 435 q 397 444 411 435 q 371 456 381 456 q 344 453 357 456 q 279 447 315 447 q 226 453 244 447 q 194 470 208 458 q 181 492 181 482 q 169 508 181 497 q 160 522 161 514 q 158 561 158 531 q 165 626 158 608 q 210 725 188 703 q 215 736 215 733 q 236 760 215 739 q 306 807 286 807 q 325 813 322 807 q 388 817 328 817 q 451 813 450 817 q 463 807 454 807 m 581 974 q 569 984 578 974 q 557 994 561 994 q 550 999 550 994 q 536 1008 550 1001 q 443 1018 517 1018 q 417 1017 424 1018 q 367 1002 411 1015 q 313 989 324 989 q 297 985 297 989 q 282 976 297 981 q 267 969 267 972 q 255 963 267 967 q 231 956 243 960 q 217 951 218 953 q 203 944 210 944 q 193 934 199 944 q 182 924 188 924 q 151 899 176 924 q 125 871 125 875 q 101 839 125 864 q 89 818 89 826 q 82 803 89 807 q 72 765 75 796 q 63 696 65 706 q 43 576 43 644 q 49 517 43 519 q 54 469 51 515 q 63 421 57 426 q 69 406 69 414 q 80 363 69 394 q 94 331 90 331 q 99 322 99 331 q 104 315 99 315 q 110 308 110 315 q 119 293 110 304 q 129 279 129 282 q 156 249 129 278 q 183 213 181 221 q 196 204 186 204 q 249 232 203 204 q 296 265 294 260 q 324 283 299 271 q 376 318 350 297 q 411 340 404 340 q 428 353 418 340 q 437 361 431 356 q 451 374 443 367 q 465 386 460 381 q 540 463 540 451 q 544 465 540 465 q 573 489 550 465 q 596 518 596 513 q 601 524 596 524 q 614 533 607 524 q 621 550 621 542 q 633 572 621 560 q 657 618 657 596 q 664 644 657 633 q 671 722 671 658 q 667 822 671 769 q 661 871 664 861 q 647 890 658 881 q 632 911 632 903 q 624 922 632 917 q 617 933 617 928 q 602 957 617 940 q 581 974 588 974 m 251 1013 q 259 1017 251 1013 q 267 1025 267 1021 q 287 1033 267 1029 q 307 1040 307 1038 q 328 1044 307 1042 q 370 1051 349 1047 q 392 1056 392 1054 q 450 1060 396 1060 q 504 1056 504 1060 q 531 1049 504 1051 q 560 1040 557 1046 q 575 1035 563 1035 q 596 1028 589 1035 q 624 1011 601 1022 q 664 972 651 999 q 679 958 665 968 q 693 940 693 947 q 698 926 693 932 q 703 914 703 921 q 711 896 703 904 q 728 828 718 888 q 738 731 738 769 q 710 593 738 653 q 697 561 697 565 q 686 544 697 556 q 675 522 675 531 q 665 501 675 513 q 654 485 656 490 q 646 472 651 472 q 642 467 642 472 q 601 421 642 460 q 594 413 600 419 q 583 401 589 406 q 574 396 578 396 q 549 376 572 396 q 524 356 525 356 q 511 347 522 356 q 456 310 474 310 l 453 310 l 451 310 q 428 298 444 310 q 399 272 411 286 q 375 254 381 254 q 368 250 368 254 q 360 244 368 244 q 343 234 354 244 q 329 224 332 224 q 321 217 324 224 q 302 202 318 210 q 283 192 286 194 q 274 183 282 190 q 257 169 265 176 q 241 154 249 163 q 233 142 233 146 q 226 128 233 133 q 218 92 218 122 q 217 75 218 83 q 217 61 217 67 q 217 54 217 56 q 190 46 217 49 q 147 25 168 44 q 129 3 129 7 q 121 -10 129 -1 q 131 -32 113 -17 q 175 -115 175 -74 q 171 -140 175 -140 q 165 -151 165 -140 q 153 -175 165 -165 q 131 -187 140 -187 q 117 -167 117 -187 q 124 -140 117 -153 q 131 -114 131 -129 q 124 -100 131 -100 q 119 -93 119 -100 q 114 -85 119 -85 q 93 -69 108 -85 q 76 -24 76 -53 q 92 25 76 4 q 111 47 108 47 q 124 55 117 47 q 125 68 131 63 q 119 93 119 74 q 126 118 119 115 q 132 149 132 119 q 118 190 132 175 q 104 214 104 204 q 99 224 104 224 q 63 277 88 224 q 39 353 39 331 q 33 367 39 367 q 28 375 28 367 q 21 394 28 385 q 13 433 13 406 q 8 464 13 461 q 1 535 1 467 q 18 708 1 689 q 24 726 24 714 q 33 765 24 735 q 43 803 43 796 q 52 838 43 814 q 67 867 61 861 q 74 881 74 874 q 81 890 74 885 q 89 901 89 896 q 93 908 89 908 q 118 929 94 908 q 147 949 138 949 q 156 953 156 949 q 165 963 156 956 q 185 978 174 971 l 196 985 q 203 989 197 986 q 215 994 210 992 q 221 1000 221 997 q 228 1004 221 1004 q 251 1013 235 1004 z "},"b":{"ha":718,"x_min":1,"x_max":718,"o":"m 469 610 q 428 624 457 624 l 410 624 q 349 618 361 624 q 322 583 338 613 q 306 546 306 553 q 297 525 306 542 q 285 491 294 521 q 265 453 276 461 q 256 428 251 439 q 265 418 258 419 q 300 417 271 417 q 342 424 340 417 q 374 435 344 432 q 410 447 401 439 q 425 457 417 457 q 432 463 432 457 q 449 478 432 468 q 486 553 486 500 l 486 561 q 469 610 485 594 m 199 424 q 219 464 199 426 q 239 507 239 501 q 244 518 239 518 q 247 522 246 518 q 249 533 247 526 q 251 544 250 540 q 263 581 260 563 q 274 610 265 601 q 285 629 285 621 q 294 651 285 639 q 306 685 306 668 q 312 708 306 700 q 319 731 318 717 q 326 751 322 751 q 331 763 328 751 q 338 786 335 774 q 343 800 342 799 q 351 818 351 811 q 364 854 351 826 q 376 903 376 882 q 381 924 376 924 q 389 933 386 924 q 407 944 392 944 q 419 940 417 944 q 422 922 422 936 q 411 863 422 863 q 407 846 407 863 q 381 743 407 832 q 369 693 372 719 l 367 672 l 399 676 q 428 678 410 678 q 539 606 504 678 q 547 572 547 592 q 546 543 547 556 q 540 505 543 514 q 519 481 536 496 q 507 469 515 476 q 492 456 499 461 q 482 447 486 450 q 418 404 444 417 q 390 386 393 392 q 348 374 389 379 q 269 368 307 368 q 233 372 242 368 q 210 394 222 376 q 199 424 199 413 m 411 371 q 429 379 411 375 q 447 386 447 383 q 453 390 447 388 q 463 395 458 393 q 467 399 468 397 q 473 412 464 401 q 488 422 482 422 q 493 426 493 422 q 503 432 493 432 q 517 439 514 432 q 540 457 518 443 q 576 483 558 468 q 599 497 593 497 q 604 506 604 497 q 615 515 604 513 q 651 579 631 519 q 658 597 654 588 q 664 609 663 606 q 667 621 665 613 q 670 635 669 629 q 672 655 671 640 q 673 685 672 669 q 674 728 674 700 l 674 764 q 660 878 674 878 q 656 885 656 878 q 622 926 656 893 q 571 968 588 958 q 529 979 549 979 q 508 983 508 979 q 496 990 508 986 q 469 995 483 993 q 453 997 454 997 q 447 998 451 997 q 440 999 443 999 q 377 992 417 999 q 335 982 338 986 q 318 974 332 974 q 303 969 306 974 q 283 963 301 967 q 265 954 265 958 q 243 946 265 949 q 214 933 221 943 q 201 924 207 924 q 178 907 194 924 q 113 839 129 872 q 99 817 103 817 q 89 796 94 817 q 71 736 85 779 q 60 586 60 699 q 61 487 60 506 q 71 451 63 468 q 82 419 82 426 q 88 411 82 411 q 96 394 92 411 q 103 376 100 376 q 110 360 107 376 q 119 338 113 346 q 156 297 125 329 q 204 265 186 265 q 236 272 222 265 q 257 279 247 279 q 265 285 265 279 q 272 290 265 290 q 285 297 281 290 q 308 307 292 304 q 325 315 325 310 q 332 321 325 321 q 369 340 339 321 q 400 360 399 360 q 411 371 411 365 m 386 1035 q 426 1040 418 1035 q 453 1043 435 1046 q 597 1001 588 1025 q 607 994 600 994 q 653 958 614 994 q 685 917 669 943 q 700 879 700 892 q 706 865 700 871 q 718 717 718 853 q 708 597 718 611 q 700 579 700 586 q 682 536 700 569 q 657 500 664 503 q 642 483 651 497 q 628 465 632 468 q 558 408 613 454 q 533 392 542 392 q 528 386 528 392 q 521 381 528 381 q 513 378 513 381 q 489 358 513 374 q 453 338 465 342 q 438 331 442 336 q 374 300 436 329 q 340 282 349 290 q 310 264 331 274 q 282 254 290 254 q 262 243 271 254 q 253 219 253 232 q 268 196 253 204 q 279 172 279 190 q 277 156 279 158 q 263 153 275 153 q 242 147 242 153 q 249 129 242 142 q 263 111 256 117 q 267 65 267 108 q 235 -40 267 3 q 219 -72 219 -62 q 229 -81 219 -81 q 243 -86 242 -81 q 260 -101 246 -93 q 289 -136 289 -119 q 276 -151 289 -147 q 261 -154 265 -154 q 218 -131 242 -154 q 194 -111 199 -111 q 179 -92 186 -111 q 171 -49 172 -74 l 171 -39 q 173 -15 171 -25 q 178 -1 175 -6 q 187 11 181 3 q 197 26 193 19 q 202 34 199 28 q 208 45 206 40 q 214 54 211 50 q 224 81 224 68 q 210 108 224 94 q 167 122 196 122 q 142 125 147 122 q 138 139 138 128 q 153 172 138 158 q 160 183 167 183 q 153 188 153 183 q 140 207 153 194 q 117 244 135 214 q 101 268 106 268 q 97 279 97 269 q 92 293 97 290 q 69 326 78 301 q 60 336 67 336 q 29 388 51 336 l 4 439 l 3 546 q 1 614 1 575 q 28 781 1 656 q 39 807 33 807 q 49 819 46 807 q 72 853 51 832 q 92 879 92 872 q 140 928 92 886 q 196 969 188 969 q 239 988 201 969 q 279 1010 276 1006 q 307 1017 283 1014 q 342 1028 331 1019 q 386 1035 350 1035 z "},"c":{"ha":676,"x_min":1,"x_max":676,"o":"m 329 836 q 306 822 310 822 q 297 815 301 822 q 288 807 293 807 q 281 800 281 807 q 272 778 281 793 q 257 758 264 764 q 247 726 247 750 q 271 656 247 679 q 285 633 285 642 q 292 624 285 628 q 315 617 300 621 q 332 614 329 614 q 354 611 346 611 q 436 646 406 611 q 471 665 454 665 q 488 661 485 665 q 489 638 490 657 q 475 616 488 628 q 453 604 463 604 q 440 592 443 604 q 433 581 439 583 q 396 575 426 579 q 376 572 386 574 q 360 570 367 571 q 350 569 354 569 q 339 570 344 569 q 324 572 333 571 q 306 575 315 574 q 258 590 267 582 q 244 599 250 599 q 226 613 239 599 q 207 640 214 626 q 194 711 196 660 l 194 736 q 204 776 194 767 q 214 793 214 789 q 228 810 214 797 q 246 822 242 822 q 250 833 250 822 q 266 849 250 840 q 283 864 282 858 q 306 875 286 872 q 326 882 326 878 q 358 892 326 892 q 428 883 411 892 q 451 878 439 878 q 471 874 463 878 q 479 856 476 869 q 478 838 482 843 q 461 832 474 832 q 417 843 442 832 q 379 851 400 851 q 329 836 351 851 m 413 386 q 428 407 413 389 q 443 429 443 425 q 450 438 443 438 q 469 454 457 438 q 500 499 493 482 q 526 536 513 519 q 544 561 544 557 q 556 589 544 568 q 571 610 567 610 q 583 626 576 610 l 596 651 q 606 719 600 660 q 615 786 613 778 q 618 826 618 793 q 607 929 618 896 q 583 965 599 954 q 549 1004 549 994 q 518 1032 549 1022 q 503 1042 507 1035 q 480 1049 501 1044 q 457 1056 458 1054 q 382 1064 449 1064 q 375 1063 379 1064 q 369 1063 371 1063 q 352 1056 364 1061 q 325 1049 340 1050 q 288 1032 306 1047 q 269 1019 275 1019 q 244 1006 264 1019 q 225 989 225 992 q 208 976 225 985 q 167 950 174 961 q 157 944 165 944 q 132 924 151 944 q 113 899 113 904 q 107 890 113 893 q 91 869 100 886 q 82 844 82 851 q 75 824 82 838 q 58 782 61 796 q 56 729 56 768 l 56 706 q 61 621 56 632 q 67 589 67 610 q 74 546 67 571 q 90 514 82 521 q 97 492 97 507 q 103 478 97 478 q 108 465 108 478 q 116 445 108 456 q 125 428 124 435 q 133 408 126 418 q 150 388 140 399 q 164 371 160 376 q 193 338 175 356 q 210 315 210 318 q 217 310 210 310 q 228 300 222 310 q 238 290 233 290 q 244 285 244 290 q 259 265 244 279 q 279 250 274 250 q 285 244 285 250 q 301 244 285 231 q 338 285 335 272 q 354 314 340 297 q 397 369 393 358 q 407 381 401 381 q 413 386 413 381 m 82 931 q 120 978 82 940 q 165 1015 158 1015 q 192 1026 171 1015 q 214 1040 214 1038 q 231 1047 214 1044 q 257 1064 246 1050 q 276 1075 265 1075 q 288 1081 285 1075 q 299 1085 289 1082 q 320 1090 310 1088 q 331 1096 331 1093 q 396 1101 331 1101 q 444 1097 442 1101 q 488 1089 447 1092 q 536 1079 529 1086 q 569 1054 542 1074 q 608 1018 586 1043 q 631 985 631 993 q 638 974 631 981 q 658 942 644 969 q 669 906 668 924 q 674 808 671 888 l 676 701 l 661 669 q 646 629 646 639 q 642 619 646 619 q 625 593 639 619 q 578 528 610 563 q 564 508 564 514 q 556 494 564 506 q 531 464 547 486 q 516 447 526 457 q 504 433 506 436 q 493 417 493 422 q 482 401 493 415 q 438 343 438 354 q 425 327 438 342 q 413 310 413 313 q 404 306 413 306 q 397 297 397 306 q 386 279 397 293 q 356 239 372 265 q 336 182 336 211 q 342 136 336 163 q 344 113 344 117 q 329 93 344 93 q 318 94 322 93 q 315 95 317 94 q 311 96 313 96 q 282 50 288 96 q 281 35 281 43 q 300 6 281 24 q 319 -14 315 -7 q 324 -37 322 -21 q 318 -69 325 -62 q 311 -86 311 -76 q 306 -97 311 -94 q 300 -118 300 -103 q 306 -139 300 -133 q 310 -153 314 -144 q 292 -165 306 -161 q 270 -169 275 -171 q 265 -154 265 -167 q 260 -139 265 -142 q 256 -124 256 -136 q 264 -82 256 -106 q 281 -53 272 -58 q 285 -46 285 -50 q 257 -15 285 -36 q 228 11 229 6 q 226 26 226 15 q 243 86 226 65 l 256 103 l 242 108 q 229 128 229 114 q 235 146 229 143 q 239 154 239 147 q 219 196 239 165 q 197 240 200 222 q 189 254 194 254 q 182 264 185 254 q 157 296 181 269 q 113 354 113 343 q 105 365 113 360 q 97 379 97 371 q 90 394 97 392 q 82 406 82 397 q 74 424 82 411 q 67 443 67 438 q 63 453 67 453 q 57 467 57 453 q 50 489 57 482 q 39 519 42 497 q 32 546 36 543 q 26 565 26 549 q 11 619 26 619 q 3 628 4 619 q 1 685 1 638 q 11 772 1 753 q 25 811 22 796 q 35 842 28 831 q 42 860 42 853 q 51 884 42 865 q 64 903 61 903 q 67 911 67 903 q 74 921 67 917 q 82 931 82 925 z "},"d":{"ha":638,"x_min":1,"x_max":638,"o":"m 364 717 q 314 729 344 729 q 290 724 296 729 q 269 715 279 715 q 238 701 261 715 q 206 674 215 686 q 197 643 197 664 q 206 602 197 621 q 226 583 214 583 q 238 581 238 583 q 289 569 238 569 q 314 571 306 569 q 364 594 346 576 q 383 642 383 614 q 381 683 383 665 q 364 717 376 710 m 313 1008 q 316 1018 313 1017 q 332 1019 319 1019 q 349 1017 346 1019 q 357 1001 353 1014 q 367 951 365 968 q 374 915 368 931 q 382 875 381 899 q 389 834 383 850 q 397 793 394 818 q 404 757 400 757 q 410 735 410 757 q 414 708 410 711 l 422 646 q 433 564 432 568 q 436 543 436 544 q 424 524 436 532 q 413 521 418 521 q 393 526 403 521 q 383 539 383 532 q 376 547 383 547 q 355 540 371 547 q 336 533 339 533 q 325 526 333 533 q 311 522 317 519 q 286 526 308 524 q 192 549 213 531 q 149 661 149 588 q 150 683 149 676 q 192 736 156 711 q 238 774 203 743 q 274 783 247 783 l 293 783 q 338 776 333 783 q 347 772 339 771 q 356 778 354 772 l 356 781 q 357 788 357 785 q 351 838 357 806 q 343 872 346 871 q 339 890 339 875 q 333 911 339 906 q 325 951 331 913 q 318 993 319 990 q 313 1008 313 996 m 450 486 q 460 503 450 492 q 469 519 469 514 q 482 532 469 526 q 504 551 492 536 q 509 559 506 554 q 515 567 513 564 q 519 571 518 571 q 526 582 526 574 q 532 590 526 588 q 539 617 536 593 q 551 643 540 640 q 564 657 558 644 q 574 671 569 669 q 579 783 579 675 q 574 914 579 907 q 564 938 567 921 q 556 954 561 954 q 551 961 551 954 q 542 974 551 967 q 526 992 531 982 q 495 1015 524 1000 q 463 1035 467 1031 q 353 1050 453 1044 q 308 1053 331 1051 q 273 1055 285 1054 q 254 1056 261 1056 q 222 1049 240 1056 q 170 1022 204 1042 q 136 1000 136 1003 q 123 990 136 999 q 110 976 110 981 q 106 969 110 969 q 72 903 103 969 q 64 876 64 883 q 60 868 64 868 q 51 842 56 868 q 43 817 47 817 q 40 797 40 817 q 38 774 43 779 q 33 725 33 769 q 39 657 33 663 q 44 632 44 654 q 49 609 44 618 q 54 589 54 600 q 64 567 54 576 q 75 549 75 556 q 80 535 75 542 q 85 524 85 529 q 92 498 85 515 q 101 474 100 481 q 117 442 103 463 q 219 318 193 346 l 246 290 l 264 299 q 282 311 282 307 q 297 318 282 315 q 315 333 313 321 q 343 371 318 346 q 368 404 368 396 q 385 428 368 410 q 408 447 403 447 q 419 460 413 447 q 438 475 428 474 q 450 486 450 478 m 64 447 q 57 463 61 447 q 49 478 53 478 q 44 490 44 478 q 40 503 44 503 q 24 540 36 503 q 17 579 22 544 q 8 618 11 614 q 1 725 1 625 q 8 851 1 828 q 19 883 17 883 q 24 896 24 883 q 31 926 24 908 q 43 944 38 944 q 51 956 49 944 q 66 980 53 961 q 81 1003 79 999 q 113 1033 81 1004 q 146 1065 146 1063 q 165 1074 146 1071 q 194 1083 185 1076 q 215 1090 204 1090 q 229 1096 226 1090 q 296 1100 233 1100 l 344 1100 q 441 1097 424 1099 q 465 1086 458 1094 q 494 1072 475 1075 q 553 1040 515 1069 q 592 997 592 1010 q 600 985 592 993 q 624 900 618 969 q 635 814 626 863 q 638 785 638 794 q 631 733 638 765 q 624 696 624 700 q 617 672 622 683 q 610 646 611 661 q 599 613 607 624 q 592 593 592 603 q 586 583 592 583 q 579 571 582 583 q 493 450 568 525 q 466 417 488 444 q 436 383 444 390 q 383 331 406 360 q 363 306 372 317 q 353 290 360 303 q 339 276 347 278 q 328 267 328 274 q 321 260 328 260 q 299 253 311 260 q 288 239 288 246 q 292 229 288 229 q 300 215 297 229 q 324 189 306 189 q 333 174 333 189 q 326 153 333 160 q 310 151 319 146 q 303 153 307 153 q 282 124 282 153 q 276 107 282 107 q 250 90 269 107 q 215 36 215 58 q 240 17 215 17 q 269 -1 251 17 q 289 -42 289 -18 q 271 -94 289 -61 q 262 -109 267 -101 q 254 -122 257 -117 l 251 -126 q 244 -140 246 -132 q 231 -164 242 -153 q 214 -175 221 -175 l 213 -175 q 196 -156 203 -172 q 196 -126 189 -139 q 210 -108 206 -110 q 217 -100 217 -106 q 231 -79 217 -96 q 239 -54 243 -65 q 232 -37 235 -49 q 224 -19 229 -25 q 208 -12 219 -14 q 176 1 192 -10 q 161 21 161 13 q 201 96 161 58 q 226 126 226 121 q 201 133 226 133 q 167 146 176 133 q 160 163 160 156 q 179 193 160 174 q 200 221 199 213 q 207 235 203 235 q 200 250 222 235 q 193 254 197 253 q 153 283 176 263 q 131 308 131 303 q 118 322 131 315 q 106 342 106 329 q 99 365 106 354 q 72 431 76 411 q 64 447 69 447 z "},"e":{"ha":643,"x_min":1,"x_max":642,"o":"m 283 776 q 274 782 279 782 q 227 745 256 782 q 199 693 199 708 q 226 677 199 685 q 282 669 254 669 q 321 678 313 669 q 332 710 332 689 q 322 751 332 732 q 297 771 311 771 q 283 776 286 771 m 194 568 q 202 551 197 568 q 213 533 207 533 q 219 526 219 533 q 248 507 219 517 q 306 497 276 497 q 390 532 357 497 q 414 546 401 543 q 433 536 426 549 q 436 524 436 532 q 414 493 436 504 q 388 472 403 488 q 368 461 378 463 q 311 460 358 460 q 232 469 250 460 q 208 478 215 478 q 186 496 203 478 q 169 519 169 514 q 160 532 169 522 q 146 597 146 546 q 149 635 146 610 q 165 715 160 708 q 178 739 172 728 q 228 801 208 801 q 249 810 235 801 q 301 817 265 817 q 336 814 317 817 q 371 792 349 811 q 404 756 393 774 q 413 722 413 743 q 407 703 413 707 q 401 690 401 700 q 392 669 401 682 q 381 653 382 657 q 360 640 378 642 q 342 629 342 639 q 330 617 342 622 q 306 611 318 611 q 292 614 300 611 q 263 619 281 619 q 224 629 243 619 q 197 639 199 639 q 188 628 192 639 q 186 613 186 624 q 194 568 186 568 m 97 817 q 103 831 103 826 q 99 835 103 835 q 91 829 94 835 q 89 817 88 824 l 90 804 l 97 817 m 111 853 q 113 856 113 853 q 111 858 113 858 q 108 856 108 858 q 111 853 108 853 m 528 531 q 534 533 528 531 q 539 539 539 535 q 557 585 539 543 q 575 632 575 626 q 579 644 575 644 q 585 651 585 644 q 592 665 585 658 q 600 718 600 672 q 596 742 600 742 q 579 779 592 742 q 572 813 578 783 q 564 847 567 843 q 536 892 553 883 q 518 908 518 901 q 501 938 518 918 q 474 958 486 953 q 421 968 461 963 q 386 978 393 971 q 364 979 372 992 q 341 971 363 976 q 318 964 319 965 q 288 953 314 960 q 238 942 261 947 q 214 933 214 936 q 201 929 214 929 q 189 925 189 929 q 169 900 189 919 q 135 850 150 881 q 96 786 103 786 q 88 792 88 786 q 83 797 88 797 q 78 779 78 797 q 69 758 78 761 q 60 737 65 757 q 53 715 54 717 q 33 613 44 706 q 36 582 31 593 q 44 540 42 571 q 68 429 56 444 q 75 406 74 418 q 149 288 83 360 q 204 233 199 233 q 214 242 206 233 q 231 250 222 250 q 240 254 240 250 q 254 261 240 258 q 276 278 265 264 q 293 290 286 290 q 310 310 300 290 q 383 392 329 346 q 402 409 390 397 q 417 422 414 421 q 444 443 433 436 q 490 485 463 456 q 518 521 518 515 q 528 531 518 526 m 143 960 q 161 967 149 960 q 181 974 174 974 q 189 979 189 974 q 199 988 189 985 q 237 1005 207 990 q 276 1022 267 1019 q 310 1031 296 1031 q 332 1035 321 1031 q 354 1042 343 1040 q 363 1042 357 1042 q 372 1043 368 1043 q 443 1035 435 1043 q 467 1028 449 1031 q 529 985 488 1025 q 572 935 569 947 q 594 906 574 931 q 615 875 615 882 q 619 868 615 868 q 626 858 622 868 q 632 835 629 847 q 636 822 635 824 q 642 732 642 815 q 636 646 642 647 q 626 624 629 642 q 619 604 624 604 q 611 588 617 604 q 604 571 606 572 q 600 558 600 569 q 596 549 600 549 q 590 542 593 549 q 585 527 588 535 q 581 518 582 519 q 568 498 576 515 q 560 476 560 481 q 542 449 560 471 q 521 426 525 426 q 506 410 515 426 q 438 344 494 397 q 381 299 403 313 q 338 265 354 282 q 311 247 322 250 q 300 239 300 244 q 294 235 300 235 q 265 218 286 235 l 240 201 l 243 171 q 254 129 246 144 q 260 106 263 115 q 251 97 258 99 q 218 93 244 94 q 183 90 192 92 q 167 76 175 88 q 154 50 154 61 q 172 19 154 36 q 189 -1 186 7 q 192 -36 192 -8 q 186 -79 192 -76 q 178 -91 183 -81 q 158 -100 172 -101 q 139 -86 140 -99 q 144 -69 136 -75 q 150 -40 150 -68 q 138 -3 150 -15 q 108 57 108 24 q 118 86 108 69 q 122 121 128 104 q 128 149 118 139 q 131 186 147 165 q 124 206 124 196 q 116 217 124 213 q 108 226 108 221 q 94 250 108 232 q 79 275 81 268 q 72 290 76 290 q 65 310 69 290 q 58 331 61 331 q 50 357 53 331 q 35 400 49 375 q 19 439 21 425 q 11 463 17 460 q 3 539 6 465 q 1 589 1 556 q 18 740 1 707 q 28 774 24 750 q 40 807 33 797 q 47 831 47 818 q 52 844 47 838 q 57 858 57 850 q 64 871 57 868 q 76 889 69 874 q 88 908 82 904 q 97 922 97 915 q 106 929 97 929 q 117 937 111 929 q 126 944 122 944 q 133 951 133 944 q 143 960 133 960 z "},"f":{"ha":696,"x_min":-3,"x_max":694,"o":"m 368 925 q 415 939 388 939 q 442 933 442 939 q 446 929 442 929 q 474 907 451 929 q 500 853 497 883 q 501 835 501 846 q 489 803 501 821 q 463 779 471 779 q 451 795 454 779 q 445 832 449 811 q 436 858 442 853 q 404 869 428 867 q 389 871 399 871 q 369 861 375 871 q 360 828 363 851 q 351 797 357 800 q 335 726 338 788 l 333 688 l 381 686 q 435 676 428 685 q 442 650 442 667 q 436 624 442 638 q 417 615 431 615 q 383 617 399 615 q 349 618 368 618 q 333 614 336 618 q 321 553 321 576 q 324 544 321 544 q 325 506 338 542 q 315 444 321 492 q 306 374 308 386 q 296 360 303 361 q 275 361 290 358 q 267 364 269 363 q 265 369 265 365 q 264 383 264 374 l 264 410 q 269 460 264 454 q 275 482 275 465 q 281 507 275 501 q 289 571 286 513 l 292 629 l 240 629 q 185 636 192 629 q 180 645 182 639 q 178 656 178 651 q 182 660 179 660 q 190 672 185 660 q 215 685 196 683 q 233 682 233 688 q 246 678 233 678 q 279 683 260 678 q 287 687 285 685 q 290 699 289 689 q 290 736 290 710 l 290 781 q 294 843 290 843 q 301 860 299 843 q 313 885 304 872 q 329 899 322 899 q 342 904 336 899 q 353 913 343 906 q 368 925 363 921 m 589 603 q 597 617 589 611 q 604 629 604 622 q 608 640 604 640 q 615 651 613 640 q 643 729 625 690 q 650 794 650 746 q 644 844 650 839 q 639 858 639 847 q 626 888 639 868 q 611 925 614 908 q 603 942 610 932 q 588 960 596 953 q 569 976 579 967 q 557 988 560 985 q 517 1013 539 1006 q 508 1019 508 1014 q 426 1042 508 1036 q 374 1050 379 1044 q 354 1054 369 1054 q 325 1047 332 1054 q 313 1040 318 1040 q 306 1036 306 1040 q 288 1028 306 1031 q 224 1000 254 1021 q 199 988 206 989 q 147 947 185 985 q 88 854 88 888 q 81 840 88 844 q 74 685 74 839 q 81 518 74 528 q 101 439 86 507 q 107 397 107 417 q 113 376 107 376 q 118 368 118 376 q 125 344 118 361 q 132 322 132 328 q 136 315 132 315 q 153 289 139 315 q 188 244 175 244 q 193 236 193 244 q 204 229 193 229 q 214 225 214 229 q 225 218 214 218 q 243 224 236 218 q 310 288 296 263 q 375 359 325 311 q 435 407 425 407 q 442 411 442 407 q 449 417 442 417 q 459 427 454 417 q 467 438 464 438 q 495 460 472 438 q 518 489 518 483 q 522 497 518 497 q 538 520 525 497 q 554 543 550 543 q 558 551 558 543 q 574 576 558 556 q 589 603 589 597 m 107 236 q 97 251 107 240 q 88 267 88 261 q 75 294 88 274 q 57 317 63 314 q 49 340 53 318 q 42 364 44 363 q 33 406 39 365 q 25 450 28 447 q 14 586 14 464 l 14 599 l 14 610 q 8 644 14 631 q 8 683 -3 663 q 17 747 17 700 q 24 817 17 799 q 33 858 31 836 q 42 886 36 883 q 46 900 46 889 q 51 919 46 907 q 63 944 56 931 q 72 960 71 957 q 92 985 81 974 q 106 1006 104 1000 q 113 1015 108 1015 q 122 1018 117 1015 q 131 1026 126 1021 q 139 1032 136 1031 q 169 1050 146 1039 q 197 1061 192 1061 q 204 1065 204 1061 q 211 1071 204 1071 q 219 1075 219 1071 q 251 1083 219 1078 q 282 1090 282 1089 q 325 1101 282 1101 q 358 1106 350 1101 q 393 1110 369 1110 q 426 1106 418 1110 q 474 1097 439 1100 q 536 1069 521 1094 q 567 1043 538 1067 q 625 985 599 1018 q 643 961 639 965 q 653 942 650 954 q 660 925 656 926 q 665 913 665 922 q 672 900 665 903 q 682 870 676 899 q 690 840 688 842 q 694 799 694 836 q 690 764 694 767 q 685 731 685 761 q 681 700 685 700 q 675 687 678 700 q 669 660 672 674 q 664 644 665 646 q 656 619 658 642 q 639 568 653 582 l 625 543 q 599 502 613 521 q 558 453 585 483 q 525 418 531 424 q 503 392 503 396 q 483 367 503 389 q 451 321 469 353 q 435 298 443 306 q 414 281 426 290 q 392 261 401 271 q 342 219 371 238 q 315 197 315 203 q 308 193 315 193 q 286 182 297 193 q 279 158 272 169 q 293 74 293 133 q 292 68 293 71 l 292 65 q 263 63 290 63 q 228 54 238 63 q 219 22 219 46 l 219 7 q 233 -39 221 -26 q 254 -78 244 -51 q 264 -119 264 -104 q 262 -134 264 -132 q 244 -136 260 -136 q 227 -133 231 -136 q 219 -115 224 -131 q 206 -89 215 -99 q 199 -75 199 -82 q 190 -67 199 -69 q 183 -53 183 -64 q 175 -33 183 -44 q 164 15 165 -24 q 156 58 163 54 q 149 81 149 63 q 157 113 149 101 q 161 144 167 124 q 153 164 156 164 q 146 176 149 164 q 131 201 143 189 q 118 221 118 214 q 113 229 118 229 q 107 236 107 229 z "},"g":{"ha":690,"x_min":1,"x_max":689,"o":"m 394 764 q 361 774 385 774 q 336 767 340 774 q 315 753 332 763 q 293 718 293 739 q 296 703 293 708 q 320 685 300 694 q 353 675 340 675 q 383 688 363 675 q 408 710 403 700 l 408 711 q 410 715 410 714 q 394 764 410 749 m 332 835 q 372 846 336 846 q 431 838 426 846 q 438 832 433 832 q 457 822 442 832 q 475 767 472 811 q 486 696 478 728 q 492 656 492 671 q 467 533 492 589 q 453 496 456 508 q 413 432 440 453 q 386 410 388 413 q 319 403 382 403 q 272 404 288 403 q 240 409 247 407 q 226 421 232 411 q 214 438 221 431 q 197 482 201 449 q 189 513 194 513 q 185 517 186 513 q 185 527 183 521 q 190 536 186 533 q 211 546 197 543 q 222 546 219 547 q 226 533 224 544 q 235 518 229 518 q 242 497 239 518 q 254 469 244 482 q 274 457 264 457 q 281 453 278 457 q 321 446 283 449 l 339 446 q 371 457 360 446 q 385 485 382 472 q 392 497 388 497 q 397 506 397 497 q 403 514 397 513 q 411 582 410 517 l 413 646 l 383 642 q 331 639 350 639 q 290 647 311 639 q 269 663 269 656 q 257 683 269 671 q 243 731 243 699 q 245 763 243 756 q 258 781 247 769 q 325 828 310 828 q 332 835 329 828 m 381 336 q 392 349 383 336 q 403 361 401 361 q 482 431 408 361 l 501 447 q 518 463 504 447 q 548 499 532 479 q 568 522 564 518 q 583 550 581 535 q 592 567 585 557 q 600 588 600 578 q 615 628 600 600 q 631 710 629 654 q 621 786 631 764 q 607 850 610 810 q 581 952 601 918 q 518 1006 561 986 q 453 1032 472 1025 q 376 1043 408 1043 q 328 1032 340 1043 q 310 1025 318 1025 q 298 1017 304 1025 q 285 1010 292 1010 q 275 1006 275 1010 q 254 989 275 1001 q 203 949 239 981 q 168 911 168 917 q 115 860 168 903 q 90 829 99 847 q 78 813 83 813 q 61 775 71 813 q 51 710 51 738 q 46 657 51 667 q 46 635 40 643 q 51 608 51 628 q 55 586 51 599 q 64 559 58 574 q 71 540 69 544 q 81 515 74 529 q 94 476 83 511 q 113 433 106 440 q 133 399 122 419 q 151 367 142 381 q 169 336 161 353 q 188 310 179 321 q 199 292 199 299 q 204 285 199 285 q 210 278 210 285 q 233 244 210 271 l 258 218 l 299 261 q 381 336 372 336 m 158 201 q 141 226 158 204 q 124 253 124 249 q 113 264 124 258 q 100 275 101 269 q 92 285 97 285 q 88 292 88 285 q 65 322 88 297 q 42 360 42 349 q 38 374 42 372 q 29 406 35 375 q 22 439 24 438 q 14 525 17 451 q 6 604 11 604 q 1 668 1 604 q 6 731 1 731 q 14 756 10 731 q 21 783 18 782 q 28 808 24 785 q 38 832 33 832 q 42 840 42 832 q 46 847 42 847 q 56 860 50 847 q 93 906 61 874 q 125 946 125 940 q 134 960 125 951 q 149 969 143 969 q 153 974 153 969 q 178 1002 153 979 q 214 1028 204 1025 q 225 1036 225 1031 q 232 1040 225 1040 q 262 1056 238 1040 q 289 1076 286 1071 q 310 1083 293 1081 q 340 1094 325 1086 q 424 1100 351 1100 q 507 1093 503 1100 q 528 1085 510 1088 q 553 1072 539 1083 q 576 1058 567 1060 q 589 1050 589 1056 q 596 1046 589 1046 q 632 1015 601 1046 q 676 947 665 983 q 689 824 686 910 l 689 788 q 686 742 689 742 q 681 716 683 742 q 675 665 678 690 q 671 638 672 639 q 663 613 665 635 q 644 545 657 578 q 622 513 631 513 q 615 508 615 513 q 503 392 615 490 q 461 351 468 361 q 422 315 431 315 q 385 283 417 315 q 342 233 354 251 q 318 201 339 229 q 314 178 313 193 q 321 164 315 164 q 326 144 326 164 q 333 117 326 126 q 338 97 340 108 q 304 86 336 88 l 272 85 l 268 61 q 253 36 263 38 q 239 22 239 35 q 248 3 239 14 q 269 -11 257 -7 q 296 -33 296 -19 q 306 -49 296 -39 q 318 -71 315 -58 q 320 -80 321 -76 q 317 -84 319 -83 q 306 -85 314 -85 q 272 -75 294 -85 q 246 -58 249 -65 q 231 -54 242 -54 q 197 -32 211 -54 q 194 -14 189 -18 q 197 10 197 -12 q 203 31 197 18 q 210 54 210 44 q 197 74 210 69 q 181 92 181 78 q 199 126 181 106 q 210 144 210 138 q 172 186 210 156 q 158 201 158 197 z "},"h":{"ha":593,"x_min":1,"x_max":593,"o":"m 360 510 q 365 545 360 531 q 371 581 371 560 q 357 622 371 610 q 301 642 335 642 q 281 640 288 642 q 238 619 246 635 q 229 539 231 604 q 222 446 229 469 q 215 429 218 432 q 197 426 211 426 q 174 443 174 426 q 178 464 174 451 q 190 563 181 474 q 200 663 199 653 q 206 726 203 682 q 222 886 211 825 q 228 936 228 914 q 235 968 228 961 q 268 969 247 981 q 274 935 274 964 q 264 864 274 883 q 249 804 256 849 q 242 725 242 760 q 242 715 242 721 q 243 706 243 708 l 246 683 l 282 682 q 396 642 396 679 q 400 635 396 635 q 410 578 410 635 q 407 507 410 563 q 400 431 404 447 q 382 414 396 414 q 378 415 381 414 q 372 415 375 415 q 353 436 353 417 q 356 458 353 442 q 360 510 360 476 m 86 901 q 76 878 86 894 q 67 853 67 861 q 61 843 67 843 q 58 839 58 843 q 58 829 58 835 q 57 821 58 824 q 47 793 49 810 q 40 771 44 771 q 36 735 36 771 q 42 612 36 683 q 56 525 49 540 q 63 496 60 517 q 75 442 65 479 q 88 390 85 404 q 96 361 92 361 q 104 332 101 361 q 119 279 107 303 q 157 192 157 208 q 169 169 157 182 q 190 161 181 161 q 232 179 206 161 q 258 193 250 193 q 264 199 264 193 q 289 233 264 206 q 324 265 314 260 q 340 283 335 272 q 364 307 343 294 q 394 332 385 319 q 408 346 406 346 q 424 358 414 346 q 446 374 433 371 q 457 381 457 376 q 468 396 457 385 q 502 444 482 411 q 522 485 522 478 q 533 517 522 497 q 543 552 542 533 q 544 646 544 571 q 539 757 544 751 q 531 804 533 765 q 519 853 529 840 q 513 868 513 860 q 446 938 513 879 q 372 974 406 974 q 336 983 358 974 q 246 997 307 996 q 206 999 228 999 q 154 986 178 999 q 117 956 128 972 q 103 939 107 939 q 92 925 99 939 q 86 901 86 911 m 406 270 q 395 260 406 270 q 382 250 383 250 q 361 232 381 250 q 339 214 342 214 q 327 207 335 214 q 319 197 319 200 q 275 153 319 190 q 269 133 264 143 q 281 122 278 122 q 283 117 283 122 q 301 93 283 114 q 318 67 318 72 q 286 58 318 61 q 244 46 257 57 q 233 31 233 38 q 225 19 233 28 q 232 -1 215 13 q 249 -24 249 -15 q 257 -36 249 -31 q 265 -62 265 -44 q 258 -99 265 -89 q 233 -110 251 -110 q 215 -108 222 -110 q 193 -93 193 -106 q 203 -69 193 -82 q 206 -49 213 -58 q 190 -39 196 -39 q 174 -15 183 -39 q 164 25 164 10 q 167 33 164 31 q 172 48 174 39 q 161 58 171 57 q 113 132 147 61 q 96 178 106 146 q 86 218 86 210 q 81 229 86 229 q 76 239 76 229 q 68 257 76 246 q 61 281 61 267 q 57 297 61 294 q 49 333 54 300 q 40 369 43 367 q 32 401 33 379 q 25 437 31 421 q 18 479 19 453 q 10 518 15 518 q 3 647 6 518 q 1 739 1 689 q 7 793 1 782 q 15 822 10 801 q 25 850 21 843 q 28 863 26 851 q 31 886 29 875 q 36 897 33 897 q 40 904 40 900 q 53 924 40 911 q 69 954 67 938 q 99 1001 74 971 q 136 1031 125 1031 q 161 1036 150 1031 q 222 1042 181 1042 l 246 1042 q 351 1025 313 1040 q 400 1010 388 1010 q 444 992 414 1010 q 490 958 475 975 q 513 944 501 944 q 522 939 522 944 q 540 910 522 936 q 558 879 558 885 q 574 804 558 871 q 592 674 589 740 q 592 654 592 667 q 593 636 593 642 q 574 488 593 517 q 560 460 565 478 q 524 396 554 444 q 483 338 494 347 q 472 321 472 329 q 467 315 472 315 q 450 303 464 315 q 432 290 436 290 q 406 270 429 290 z "},"i":{"ha":718,"x_min":1,"x_max":718,"o":"m 306 683 q 322 690 311 690 q 346 681 336 690 q 354 653 356 671 q 349 574 351 629 q 329 429 347 479 q 299 388 315 388 l 296 388 q 285 392 288 389 q 283 414 283 396 l 283 432 q 290 479 283 463 q 297 521 296 496 q 306 568 299 539 q 313 614 313 597 q 306 656 313 628 q 306 683 300 678 m 319 803 q 353 813 329 813 q 367 807 367 813 q 379 800 367 803 q 392 779 392 797 q 386 761 392 761 q 382 754 382 761 q 342 742 382 742 q 317 747 322 742 q 311 769 311 753 q 319 803 311 792 m 639 685 q 647 706 642 685 q 656 726 653 726 q 661 741 658 726 q 667 772 664 756 q 671 792 669 789 q 676 836 676 814 q 668 886 676 869 q 663 901 667 890 q 656 915 658 911 q 611 989 636 964 q 586 1010 590 1010 q 568 1021 585 1010 q 549 1036 551 1032 q 540 1040 547 1038 q 525 1046 532 1043 q 518 1050 518 1049 q 492 1063 518 1056 q 422 1071 467 1071 q 382 1065 389 1071 q 346 1061 375 1061 q 257 1042 310 1061 q 188 1000 207 1019 q 110 914 118 939 q 103 897 108 910 q 95 873 97 883 q 93 846 93 863 q 88 810 93 813 q 83 732 83 808 q 78 642 83 656 q 74 603 74 629 q 81 526 74 571 q 88 467 88 489 q 93 444 88 447 q 101 411 97 443 q 108 378 106 379 q 115 350 113 375 q 124 322 118 328 q 128 313 128 319 q 143 280 128 308 q 158 247 158 251 q 183 214 158 242 q 218 189 207 189 q 223 190 219 189 q 229 190 226 190 q 361 311 254 193 q 469 422 397 350 q 544 506 544 497 q 549 513 544 513 q 554 518 551 513 q 560 531 557 524 q 565 539 564 538 q 583 571 572 547 q 594 603 594 594 q 601 617 594 614 q 610 626 610 619 q 622 653 610 632 q 635 679 635 675 q 639 685 635 685 m 414 282 q 375 244 376 244 q 356 229 374 244 q 335 214 338 214 q 321 203 331 214 q 311 188 311 193 q 306 186 311 185 q 300 182 300 188 q 294 174 300 174 q 278 163 289 174 q 264 151 267 153 q 261 147 261 151 q 281 111 261 140 q 300 74 300 82 q 295 62 300 64 q 272 58 290 60 q 249 55 254 57 q 244 44 244 53 q 251 18 244 32 q 271 -94 271 -24 q 267 -136 271 -119 q 260 -151 264 -147 q 246 -156 256 -154 l 229 -157 l 229 -96 q 225 -32 229 -33 q 217 -3 219 -25 q 201 44 213 31 q 167 57 190 57 q 136 78 136 57 q 158 114 136 93 q 174 135 174 126 q 179 143 174 143 q 183 146 183 143 q 157 179 183 153 q 100 260 106 233 q 93 282 99 271 q 86 307 88 293 q 75 335 83 326 q 67 356 67 343 q 63 374 67 372 q 54 401 60 375 q 46 426 49 426 q 42 438 42 426 q 38 447 42 447 q 31 460 35 447 q 25 486 28 472 q 21 501 22 500 q 13 546 15 507 q 6 583 10 583 q 1 643 1 583 q 6 707 1 703 q 13 756 8 710 q 19 804 18 801 q 26 844 19 821 q 40 875 32 868 q 51 892 51 886 q 67 937 51 904 q 89 971 82 969 q 97 982 97 972 q 103 989 97 989 q 108 1000 108 989 q 119 1015 108 1011 q 150 1036 129 1018 q 190 1057 171 1056 q 225 1069 215 1060 q 249 1083 236 1081 q 265 1092 263 1086 q 278 1097 267 1093 q 300 1103 289 1100 q 311 1107 311 1106 q 357 1110 311 1110 l 393 1110 q 522 1094 507 1106 q 542 1088 526 1090 q 567 1074 556 1085 q 613 1043 579 1060 q 651 1013 626 1038 q 675 981 675 988 q 681 974 675 974 q 696 953 686 974 q 706 922 706 932 q 713 904 706 911 q 718 828 718 899 q 713 750 718 761 q 707 724 707 742 q 690 635 703 647 q 681 615 681 625 q 671 593 681 606 q 656 567 665 586 q 622 522 649 551 q 610 506 610 510 q 592 481 610 503 q 583 467 590 478 q 572 448 576 456 q 560 433 567 440 q 549 426 553 426 q 540 415 543 426 q 525 396 538 404 q 514 385 514 389 q 463 329 514 375 q 452 319 460 326 q 433 301 444 313 q 414 282 422 290 z "},"j":{"ha":689,"x_min":3,"x_max":689,"o":"m 339 768 q 372 761 365 771 l 383 688 q 392 529 392 617 q 378 396 392 410 q 369 385 369 388 q 358 365 369 379 q 342 351 346 351 q 329 340 338 351 q 289 325 321 331 l 265 321 q 232 317 242 317 q 224 319 224 317 q 208 328 224 325 q 167 347 167 339 q 154 365 167 353 q 143 385 144 375 q 142 435 142 394 l 142 490 l 157 499 q 171 505 167 506 q 183 497 175 504 q 197 443 196 485 q 201 403 199 413 q 215 382 204 393 q 242 368 229 368 l 254 368 q 288 379 279 371 q 314 464 314 406 q 321 501 314 494 q 329 588 329 510 q 325 676 329 638 q 321 731 321 713 q 339 768 321 767 m 338 910 q 374 914 342 914 l 406 914 l 406 899 q 391 867 406 881 q 360 853 376 853 q 342 861 347 853 q 335 894 335 871 q 338 910 335 907 m 608 579 q 613 592 608 586 q 618 604 618 597 q 624 615 618 613 q 633 668 628 618 q 638 708 635 685 q 642 751 640 732 q 644 786 644 769 q 640 840 644 811 q 631 906 633 878 q 625 927 629 918 q 613 946 621 936 q 600 963 604 956 q 585 979 589 979 q 575 986 578 979 q 478 1032 561 1006 q 392 1047 432 1046 l 367 1047 q 274 1035 274 1047 q 263 1031 274 1031 q 225 1017 249 1031 q 185 985 201 1003 q 163 961 163 963 q 150 942 163 960 q 138 921 138 924 q 126 893 138 915 q 111 869 114 871 q 107 857 107 867 q 99 839 107 847 q 92 813 92 832 q 86 789 92 799 q 81 764 81 779 q 76 742 81 742 q 69 704 72 742 q 61 667 67 669 q 56 631 56 664 q 61 576 56 604 q 69 508 67 553 q 76 454 72 464 q 79 438 76 453 q 85 409 82 422 q 92 396 89 396 q 96 390 96 396 q 110 368 96 385 q 124 340 119 358 q 132 325 126 325 q 139 313 135 325 q 147 300 143 300 q 153 294 153 300 q 170 272 153 289 q 193 254 188 254 q 197 250 197 254 q 210 233 197 247 q 242 205 222 219 q 276 190 263 190 q 294 199 288 190 q 322 221 301 208 q 354 247 339 232 q 369 267 369 261 q 387 291 369 272 q 411 313 404 310 q 421 324 421 315 q 446 357 421 329 q 460 373 450 363 q 478 392 471 383 q 490 406 486 400 q 529 449 524 443 q 556 484 540 460 q 585 518 572 508 q 596 544 599 532 q 601 563 594 553 q 608 579 608 574 m 264 1075 q 324 1083 264 1083 l 394 1083 q 496 1076 494 1083 q 519 1061 497 1072 q 547 1050 540 1050 q 570 1041 553 1050 q 590 1026 588 1032 q 599 1019 593 1019 q 622 1003 604 1019 q 646 975 640 986 q 678 874 672 928 q 685 843 681 843 q 689 789 689 843 q 685 736 689 736 q 679 700 679 736 q 660 556 679 624 q 654 539 658 550 q 650 524 650 528 q 640 500 647 510 q 633 482 633 490 q 629 472 633 472 q 624 465 624 472 q 613 446 624 460 q 589 411 603 436 q 553 361 581 392 q 528 331 528 333 q 522 325 528 325 q 506 313 519 325 q 489 300 492 300 q 463 282 483 300 q 375 210 450 271 q 358 194 372 207 q 335 174 343 181 q 311 143 311 156 q 312 139 311 142 q 313 133 313 136 q 319 113 315 117 q 332 92 324 110 q 340 71 340 75 q 349 58 340 64 q 343 42 364 47 q 325 40 336 40 l 321 40 q 289 22 289 40 q 278 -4 289 18 q 268 -31 268 -26 q 251 -75 268 -44 q 244 -108 244 -92 q 246 -139 244 -126 q 247 -172 247 -154 q 245 -184 247 -182 q 238 -186 243 -186 q 220 -181 226 -186 q 206 -160 214 -176 q 199 -121 199 -146 q 200 -76 199 -96 q 208 -14 203 -14 q 214 -4 211 -14 q 220 17 217 6 q 226 29 224 28 q 231 38 231 32 q 227 47 231 43 q 219 51 224 51 q 213 47 213 51 q 200 42 213 42 q 188 36 188 42 q 182 32 188 32 q 166 41 175 32 q 157 57 157 50 q 167 73 157 64 q 190 85 178 82 q 203 92 203 88 q 214 100 203 97 q 228 119 226 101 q 224 138 231 138 q 184 164 215 138 q 153 197 153 190 q 103 257 153 201 q 76 290 85 279 q 60 310 64 310 q 54 324 57 310 q 40 347 51 336 q 31 363 31 357 q 22 383 31 369 q 13 435 15 394 q 4 472 10 472 q 3 492 3 472 q 4 544 3 508 q 6 582 6 581 q 16 652 6 618 q 28 711 26 686 q 36 754 31 751 q 40 774 40 756 q 45 799 40 782 q 56 836 50 817 q 64 860 63 856 q 86 906 74 897 q 93 925 90 908 q 107 951 94 939 q 117 967 117 961 q 124 981 117 974 q 133 996 126 983 q 150 1011 139 1008 q 163 1019 163 1014 q 169 1025 163 1025 q 188 1035 174 1025 q 204 1046 201 1046 q 229 1058 207 1046 q 256 1071 251 1071 q 264 1075 264 1071 z "},"k":{"ha":688,"x_min":1,"x_max":688,"o":"m 286 897 l 290 974 l 339 974 l 338 933 q 319 771 328 786 q 319 738 307 750 q 339 735 324 733 q 354 742 354 736 q 363 746 354 746 q 372 753 369 746 q 400 769 374 758 q 436 797 425 779 q 467 817 447 817 q 490 810 481 817 q 500 796 500 804 q 499 790 500 792 q 453 736 496 781 q 426 718 443 726 q 399 700 408 710 l 382 686 l 392 669 q 408 649 403 650 q 415 639 415 646 q 460 586 415 629 q 499 536 494 551 q 496 527 500 531 q 474 518 492 524 l 446 510 l 443 524 q 435 539 440 539 q 428 549 431 539 q 401 582 425 558 q 358 631 381 603 q 335 657 339 657 q 318 650 329 657 q 299 600 299 642 q 293 578 299 581 q 288 506 288 576 q 278 425 286 433 q 258 419 269 415 q 244 460 244 425 q 247 504 244 475 q 250 543 250 533 q 263 688 254 675 q 269 751 264 690 q 278 814 275 811 q 286 897 283 819 m 594 619 q 597 624 594 619 q 603 629 600 629 q 610 644 606 629 q 618 660 614 660 q 622 664 622 660 q 628 683 622 667 q 636 764 633 697 q 637 790 636 775 q 638 810 638 806 q 626 847 638 832 q 613 868 613 867 q 596 892 613 872 q 579 914 579 911 q 565 935 576 925 q 544 944 554 944 q 528 951 535 944 q 485 976 526 953 q 442 1003 443 999 q 417 1010 439 1010 q 378 1017 394 1010 q 267 1028 353 1028 q 246 1026 250 1028 q 233 1021 243 1025 q 213 1013 222 1017 q 199 1010 203 1010 q 186 1000 193 1010 q 146 967 176 990 q 98 917 121 949 q 75 869 75 885 q 71 856 75 858 q 61 822 67 854 q 54 788 56 790 q 54 775 47 781 q 60 751 60 769 q 56 732 60 739 q 56 717 53 726 q 65 663 60 710 q 86 558 75 558 q 90 551 90 558 q 96 535 90 546 q 99 519 97 533 q 105 491 101 504 q 111 478 108 478 q 118 458 114 478 q 126 438 122 438 q 131 429 131 438 q 138 419 131 425 q 146 410 146 414 q 161 384 146 406 q 176 360 176 363 q 192 343 176 358 q 214 314 204 331 q 249 282 222 299 q 297 263 276 265 q 308 261 301 261 q 336 279 318 261 q 367 317 357 300 q 381 336 378 336 q 385 342 385 336 q 399 361 385 347 q 415 378 401 364 q 435 399 428 392 q 460 422 456 422 q 474 438 463 422 q 490 453 486 453 q 496 458 496 453 q 517 488 496 467 q 536 511 536 507 q 551 537 536 513 q 567 564 567 561 q 576 583 567 571 q 583 598 578 586 q 594 619 589 610 m 56 936 q 63 947 56 942 q 71 957 71 953 q 95 988 71 964 q 136 1019 119 1011 q 175 1035 146 1025 q 215 1051 204 1044 q 257 1060 229 1060 q 304 1058 283 1060 q 393 1047 378 1057 q 433 1040 404 1040 q 467 1031 460 1040 q 478 1019 475 1019 q 521 997 481 1019 q 565 974 561 974 q 590 960 575 974 q 614 929 606 946 q 629 917 622 914 l 631 917 q 648 904 638 917 q 658 882 658 892 q 663 869 658 874 q 679 815 669 863 q 688 767 688 778 q 683 742 688 756 q 669 687 682 736 q 647 622 656 638 q 638 597 638 603 q 619 554 638 589 q 590 507 601 519 q 564 474 578 494 q 551 457 554 457 q 539 442 547 457 q 494 386 531 424 q 425 300 425 313 q 413 292 425 297 q 400 286 400 288 q 372 251 400 282 q 343 204 343 219 q 351 189 343 194 q 358 171 360 182 q 344 154 356 160 q 328 140 335 150 q 317 133 324 133 q 300 122 311 133 q 292 71 292 113 q 299 26 292 29 q 306 -22 301 25 q 314 -69 311 -68 q 319 -93 319 -75 q 294 -122 319 -114 q 283 -122 288 -125 q 274 -104 279 -118 q 261 -49 264 -82 q 250 -6 258 -12 q 243 11 243 1 q 238 25 243 22 q 233 65 233 26 l 233 83 q 222 108 233 103 q 207 136 207 115 q 214 156 207 149 q 222 176 222 164 q 224 190 222 182 q 225 203 226 199 q 217 215 224 208 q 188 250 207 225 q 165 274 169 274 q 161 282 161 278 q 149 292 161 286 q 136 303 136 297 q 121 326 136 308 q 106 349 106 344 q 93 367 106 357 q 79 396 82 376 q 71 417 76 417 q 63 438 65 417 q 56 457 61 449 q 50 474 50 465 q 43 499 50 488 q 33 527 38 507 q 24 579 29 547 q 15 622 18 611 q 1 728 1 692 q 6 767 1 747 q 15 806 14 804 q 19 828 19 810 q 24 857 19 849 q 47 915 47 904 q 51 929 47 929 q 56 936 56 929 z "},"l":{"ha":603,"x_min":1,"x_max":603,"o":"m 249 954 q 263 959 251 960 q 281 953 275 958 q 288 931 288 946 q 294 906 288 915 q 304 839 301 896 q 311 775 307 785 q 321 724 313 772 q 346 543 342 597 q 353 500 349 508 q 371 413 368 463 l 374 367 l 357 367 q 329 385 335 367 q 313 493 324 403 q 300 556 307 540 q 292 580 294 565 q 286 614 289 594 q 282 642 283 633 q 276 693 276 669 q 269 728 276 718 q 261 785 261 739 q 258 832 261 832 q 251 874 256 832 q 247 940 247 915 q 249 954 247 953 m 454 363 q 459 380 454 372 q 464 400 464 388 q 477 446 464 414 q 492 489 490 478 q 500 508 494 508 q 507 544 504 508 q 521 603 510 576 q 531 636 531 628 q 521 657 531 647 q 510 729 510 667 q 503 797 510 790 q 493 829 496 804 q 489 854 492 846 q 480 873 486 863 q 469 894 474 883 q 453 920 467 901 q 438 957 440 939 q 419 988 436 976 q 382 1003 401 1000 q 363 1010 363 1006 q 317 1014 363 1014 q 213 1003 217 1013 q 193 985 210 994 q 175 969 175 975 q 167 956 175 963 q 151 949 160 949 q 111 914 138 949 q 82 879 83 881 q 65 843 65 861 q 49 796 65 829 q 44 735 44 788 q 49 678 44 682 q 57 653 53 675 q 60 615 61 631 q 65 588 60 597 q 80 544 69 581 q 97 500 90 508 q 110 479 110 488 q 120 450 110 474 q 131 424 131 426 q 151 407 131 419 q 171 390 171 394 q 184 373 171 385 q 203 361 197 361 q 244 314 213 361 q 249 306 246 313 q 254 295 251 300 q 261 290 257 290 q 269 281 267 290 q 297 246 272 272 q 328 219 322 219 q 331 218 329 219 q 335 214 332 217 q 340 210 339 211 q 379 200 347 203 q 405 201 401 199 q 411 213 408 203 q 415 227 411 217 q 419 242 419 238 q 423 261 421 244 q 428 292 425 278 q 435 306 432 306 q 442 328 438 306 q 450 351 446 351 q 454 363 454 351 m 157 1015 q 176 1025 161 1015 q 196 1035 190 1035 q 214 1046 203 1035 q 251 1058 224 1056 q 276 1067 276 1061 q 292 1072 276 1069 q 315 1074 299 1074 q 393 1057 361 1074 q 428 1036 424 1040 q 440 1031 433 1031 q 496 978 446 1031 q 561 903 561 911 q 568 885 561 894 q 579 851 576 874 q 586 824 582 825 q 592 807 592 821 q 596 789 592 793 q 603 661 603 782 q 597 565 603 567 q 592 554 592 563 q 584 530 592 549 q 576 504 576 511 q 571 490 576 493 q 564 461 569 489 q 556 432 558 433 q 547 406 551 431 q 540 379 543 382 q 537 365 540 378 q 529 342 533 353 q 524 331 525 331 q 522 321 522 331 q 511 291 522 314 q 500 265 500 268 q 490 235 500 257 q 475 214 479 214 q 482 186 461 214 q 494 160 494 168 q 506 136 494 150 q 515 104 515 125 q 510 92 515 92 q 485 72 501 92 q 469 42 469 51 q 477 13 469 32 q 492 -10 485 -6 q 496 -56 496 -11 q 490 -119 496 -114 q 485 -136 485 -122 q 461 -151 483 -149 q 436 -149 443 -153 q 435 -135 429 -146 q 443 -78 440 -122 q 444 -49 444 -65 q 432 -7 444 -28 q 421 26 418 14 q 422 39 422 31 q 406 57 422 57 l 403 57 l 393 57 q 368 69 368 57 q 379 104 368 78 q 388 129 388 126 q 363 146 388 144 q 276 175 310 154 q 254 184 271 178 q 224 196 238 190 q 211 204 211 201 q 206 208 211 208 q 180 230 201 208 q 142 272 158 251 q 131 296 131 283 q 123 308 131 303 q 115 317 115 313 q 105 342 115 324 q 85 371 94 361 q 74 392 74 385 q 69 401 74 401 q 54 424 64 401 q 42 465 44 447 q 35 490 40 481 q 7 617 29 501 q 1 701 1 646 q 19 832 1 832 q 24 842 24 832 q 34 881 24 856 q 56 918 44 906 q 69 939 69 938 q 75 944 69 944 q 97 964 83 944 q 131 996 110 982 q 150 1011 150 1008 q 157 1015 150 1015 z "},"m":{"ha":593,"x_min":1,"x_max":593,"o":"m 325 717 q 385 740 339 731 q 428 712 418 735 q 442 619 439 689 q 443 540 443 593 l 443 519 l 442 488 l 424 488 q 397 503 408 488 q 388 572 388 515 q 392 651 388 633 q 394 674 394 671 q 372 690 394 690 q 333 668 342 690 q 329 618 329 658 q 335 560 329 565 q 342 508 339 557 q 342 494 342 503 q 343 483 343 486 q 331 457 343 457 q 306 465 322 457 q 294 471 297 469 q 289 477 292 472 q 285 490 286 482 q 285 513 285 497 l 285 549 l 285 565 q 278 619 285 599 q 269 651 269 644 q 239 675 269 675 q 203 666 224 675 q 183 651 183 657 q 176 639 183 646 q 169 600 169 632 q 171 542 169 567 q 179 447 172 451 q 176 430 185 443 q 160 417 168 417 q 143 428 151 417 q 131 564 136 438 q 126 697 126 672 q 129 719 126 717 q 147 724 131 721 q 168 714 164 726 q 188 707 178 688 q 219 718 190 715 q 260 722 247 722 q 285 711 278 722 q 299 701 290 701 q 325 717 307 701 m 483 492 q 490 510 483 500 q 497 528 497 519 q 503 551 497 540 q 524 608 524 597 q 528 622 524 618 q 549 715 538 632 q 551 763 551 735 q 543 872 551 872 q 539 892 539 872 q 525 928 539 910 q 501 964 517 939 q 474 998 494 976 q 450 1019 454 1019 q 435 1034 447 1019 q 422 1051 422 1049 q 413 1056 422 1056 q 396 1063 403 1056 q 364 1072 389 1069 q 347 1074 357 1074 q 319 1065 336 1074 q 289 1057 303 1057 q 269 1058 276 1057 q 236 1053 240 1061 q 225 1046 233 1046 q 188 1018 215 1046 q 149 985 160 990 q 139 972 139 978 q 131 963 139 968 q 124 951 124 957 q 118 944 124 944 q 110 929 114 944 q 103 914 106 914 q 93 884 99 914 q 88 832 88 854 q 82 806 88 808 q 63 647 69 801 q 61 550 61 615 q 67 432 61 432 q 74 399 71 432 q 88 351 75 368 q 97 326 97 339 q 115 299 97 319 q 133 272 133 278 q 161 239 133 264 q 199 214 189 214 q 219 199 207 214 q 246 179 235 179 q 307 225 261 179 q 358 288 356 274 q 371 310 361 303 q 392 340 379 317 q 407 361 403 361 q 415 374 411 361 q 422 386 419 386 q 428 394 428 386 q 438 411 428 400 q 447 428 447 422 q 458 451 447 436 q 471 471 469 465 q 478 482 474 482 q 483 492 483 482 m 210 1081 q 225 1089 210 1085 q 240 1096 240 1093 q 282 1104 240 1099 q 360 1110 325 1110 q 436 1088 415 1110 q 453 1075 449 1075 q 496 1038 458 1075 q 543 997 533 1000 q 567 942 558 993 q 578 908 569 924 q 585 847 585 894 q 590 793 585 799 q 593 764 593 790 q 587 660 593 722 q 575 593 581 599 q 569 575 569 588 q 559 544 569 568 q 549 513 549 521 q 544 497 549 497 q 540 486 540 497 q 521 447 540 476 q 500 411 501 417 q 485 389 497 399 q 472 372 472 379 q 461 351 472 363 q 437 313 453 343 q 414 276 421 283 q 399 252 406 269 q 379 228 392 235 q 329 175 336 197 q 321 164 326 164 q 315 153 315 164 q 321 143 315 143 q 326 131 326 143 q 333 114 326 117 q 343 93 340 111 q 344 88 343 92 q 344 83 344 85 q 329 64 344 64 q 317 68 322 64 q 308 69 314 69 q 274 15 281 69 q 265 -14 271 -14 q 258 -76 258 -14 l 257 -139 l 239 -140 l 231 -140 q 217 -133 222 -140 q 200 -94 213 -125 q 199 -72 199 -90 q 210 22 199 -3 q 215 43 215 32 q 201 68 215 61 q 197 97 178 81 q 190 126 214 111 q 154 158 175 135 q 131 192 133 181 q 124 204 128 204 q 115 213 117 204 q 96 240 113 224 q 44 344 57 285 q 35 370 43 353 q 26 396 26 388 q 22 401 26 401 q 17 413 17 401 q 11 431 17 425 q 1 578 1 440 q 11 732 1 713 q 17 763 17 743 q 30 819 17 779 q 44 878 43 858 q 63 933 51 933 q 69 946 67 933 q 133 1022 72 957 q 172 1056 165 1056 q 185 1065 175 1056 q 201 1075 196 1075 q 210 1081 210 1075 z "},"n":{"ha":607,"x_min":1,"x_max":607,"o":"m 339 840 q 351 819 339 838 q 364 800 364 801 q 371 783 364 797 q 391 724 388 744 q 394 654 394 703 q 389 586 394 590 q 388 554 385 585 q 389 536 389 547 q 369 503 389 503 q 360 507 360 503 q 344 528 360 513 l 329 544 l 329 635 q 322 742 329 726 q 314 769 314 758 q 292 797 314 781 q 260 813 269 813 q 253 807 253 813 q 239 797 253 803 q 214 783 222 792 q 202 757 204 776 q 200 644 200 738 l 200 515 l 181 514 q 164 514 167 513 q 161 525 161 515 q 157 549 161 540 q 148 658 153 557 q 143 824 143 758 q 146 868 143 863 q 163 878 151 878 q 193 857 183 878 q 203 842 200 843 q 217 844 207 840 q 232 854 226 849 q 268 861 236 858 q 289 863 276 863 q 321 856 304 863 q 339 840 339 849 m 397 374 q 399 380 397 374 q 404 386 401 386 q 411 401 407 386 q 419 417 415 417 q 429 431 425 417 q 444 456 436 447 q 456 475 456 467 q 460 485 456 483 q 468 504 465 488 q 486 551 471 521 q 522 665 522 629 l 522 676 q 529 708 519 693 q 538 757 538 722 q 532 783 538 782 q 525 806 528 788 q 509 853 524 819 q 493 901 494 888 q 481 932 490 922 q 471 946 471 939 q 407 985 471 956 q 379 997 401 989 q 293 1004 363 1004 q 189 994 210 1004 q 115 949 156 981 q 75 904 75 918 q 68 896 75 899 q 56 870 61 893 q 49 843 51 847 q 43 776 43 832 q 50 699 43 708 q 60 657 57 692 q 65 625 63 625 q 71 613 71 625 q 79 590 71 599 q 89 558 89 581 q 96 535 89 539 q 101 525 101 532 q 106 518 101 518 q 113 506 110 518 q 128 478 115 494 q 144 454 142 461 q 174 414 153 436 q 197 383 197 388 q 213 364 197 379 q 231 338 228 347 q 240 325 233 325 q 256 310 247 325 q 275 278 263 292 q 289 258 289 261 q 299 238 289 251 q 315 224 310 224 q 337 254 319 224 q 354 293 354 285 q 361 304 354 300 q 372 326 369 313 q 381 340 375 340 q 385 351 385 340 q 390 361 385 361 q 397 374 393 361 m 86 471 q 78 484 86 478 q 71 496 71 490 q 65 503 71 503 q 60 513 60 503 q 32 583 60 542 q 17 619 18 607 q 8 646 15 633 q 1 746 1 660 q 4 813 1 779 q 20 896 11 874 q 56 947 29 918 q 104 1001 76 969 q 129 1019 122 1019 q 147 1031 136 1019 q 176 1047 154 1038 q 297 1056 197 1056 q 393 1049 376 1056 q 450 1022 435 1028 q 506 985 468 1015 q 558 933 543 954 q 585 883 572 914 q 597 833 597 853 q 603 814 597 817 q 607 757 607 811 q 603 686 607 694 q 597 651 600 682 q 592 617 593 621 q 588 601 592 615 q 582 572 585 586 q 578 558 579 558 q 571 543 575 558 q 563 528 567 528 q 554 513 558 528 q 546 497 550 497 q 542 492 542 497 q 534 477 542 488 q 526 461 526 467 q 514 439 526 451 q 492 401 504 429 q 460 347 471 364 q 440 311 440 318 q 436 306 440 306 q 430 300 433 306 q 423 285 426 294 q 418 275 419 276 q 396 217 396 238 q 397 192 396 203 q 413 131 399 160 q 418 100 424 106 q 407 92 410 92 q 383 84 400 92 q 360 75 367 76 q 315 31 335 69 q 304 -4 304 8 q 338 -25 304 -25 q 375 -33 356 -25 q 392 -43 389 -39 q 394 -62 394 -47 q 378 -100 394 -83 q 351 -142 351 -126 q 363 -151 351 -151 q 368 -160 369 -151 q 342 -171 365 -171 q 315 -162 324 -171 q 300 -139 300 -150 q 318 -107 300 -129 q 338 -81 338 -85 q 318 -68 338 -74 q 300 -60 307 -65 q 285 -53 293 -54 q 265 -7 265 -47 q 275 46 265 26 q 278 72 289 72 q 261 86 261 72 q 265 108 261 94 q 276 138 267 114 q 285 172 285 163 q 281 185 285 181 q 260 217 275 190 q 240 250 246 244 q 194 317 210 289 q 163 360 181 342 q 142 389 142 381 q 121 417 142 396 q 86 471 86 451 z "},"o":{"ha":628,"x_min":1,"x_max":628,"o":"m 608 979 q 607 979 608 979 q 606 982 606 979 q 608 985 606 985 q 611 982 611 985 q 608 979 611 979 m 392 701 q 360 736 381 726 q 303 746 340 746 q 256 736 256 746 q 240 711 256 732 l 224 690 l 228 646 q 236 597 231 603 q 240 583 240 593 q 256 561 240 576 q 285 539 271 546 q 306 533 294 533 q 332 543 321 533 q 350 554 346 554 q 372 571 356 554 q 400 606 389 588 q 413 649 413 624 q 408 669 413 661 q 392 701 401 681 m 232 518 q 223 526 228 518 q 213 533 218 533 q 206 538 206 533 q 190 558 206 540 q 169 625 169 581 q 170 640 169 629 q 171 657 171 650 q 186 728 172 703 q 249 786 217 786 q 268 792 265 786 q 292 797 271 797 q 351 789 318 797 q 415 756 389 781 q 450 714 442 735 q 460 649 460 692 q 451 603 460 611 q 443 590 443 594 q 432 572 443 586 q 418 556 431 571 q 395 529 406 540 q 379 518 385 518 q 363 508 375 518 q 303 497 350 497 q 247 508 257 497 q 232 518 238 518 m 140 219 q 160 204 142 219 q 179 189 178 189 q 213 215 183 189 q 251 251 242 240 q 289 285 276 285 q 300 292 297 285 q 331 320 306 300 q 361 340 356 340 q 367 346 367 340 q 389 364 367 349 q 417 388 413 381 q 429 396 425 396 q 443 405 435 396 q 456 424 451 414 q 463 432 458 432 q 471 442 468 432 q 485 463 472 446 q 499 488 499 479 q 504 500 499 494 q 540 603 517 513 q 568 742 564 693 l 568 757 q 554 913 568 850 q 533 950 546 938 q 519 972 519 967 q 514 979 519 979 q 510 986 510 979 q 485 1011 510 992 q 454 1031 461 1031 q 429 1040 449 1031 q 349 1053 403 1053 q 283 1040 299 1053 q 250 1028 269 1031 q 225 1019 225 1025 q 221 1015 225 1015 q 201 1000 217 1015 q 176 983 193 990 q 151 961 158 975 q 139 944 142 944 q 114 911 135 944 q 82 856 93 878 q 61 771 69 828 q 49 703 53 724 q 46 621 46 681 q 53 469 46 483 q 63 429 57 460 q 82 353 71 378 q 89 321 89 339 q 126 236 89 301 q 140 219 136 219 m 269 1 q 278 -6 274 1 q 288 -14 282 -14 q 308 -26 299 -14 q 319 -56 317 -39 q 321 -75 321 -61 q 307 -136 321 -132 q 293 -143 304 -137 q 276 -149 282 -149 q 260 -132 267 -149 q 258 -124 258 -129 q 261 -99 258 -117 q 264 -72 264 -81 q 253 -54 264 -54 q 246 -50 246 -54 q 207 -7 246 -46 q 117 47 153 47 q 103 56 103 47 q 117 81 103 65 q 135 108 135 101 q 143 124 135 114 q 142 143 151 133 q 126 161 133 156 q 108 188 121 165 q 81 228 96 213 q 61 260 64 244 q 53 275 58 275 q 13 497 36 275 q 1 650 1 579 q 3 686 1 676 q 6 721 3 693 q 11 763 10 749 q 21 813 15 806 q 31 844 29 824 q 38 868 33 868 q 46 890 43 868 q 56 921 49 911 q 63 942 63 931 q 74 957 63 953 q 101 977 81 958 q 129 997 121 996 q 149 1008 140 1000 q 157 1021 158 1017 l 163 1024 q 174 1030 168 1026 q 179 1035 179 1033 q 185 1040 179 1040 q 203 1053 190 1040 q 242 1068 219 1067 q 265 1076 265 1071 q 275 1081 265 1081 q 296 1088 285 1081 q 367 1094 310 1094 q 410 1090 406 1094 q 422 1086 411 1086 q 449 1076 426 1086 q 478 1065 472 1065 q 483 1061 483 1065 q 496 1053 483 1056 q 517 1040 506 1050 q 531 1031 524 1031 q 567 1010 547 1031 q 593 967 586 990 q 608 944 596 954 q 624 894 621 935 q 628 776 628 849 q 622 675 628 681 q 614 647 619 671 q 606 621 608 624 q 600 610 600 618 q 593 588 600 599 q 583 554 586 576 q 556 494 578 518 q 542 469 544 483 q 500 407 533 440 q 489 386 489 396 q 479 364 489 376 q 468 346 468 350 q 464 340 468 340 q 450 322 460 340 q 413 283 440 307 q 381 256 385 260 q 354 235 360 235 q 321 204 349 235 q 278 165 299 182 q 260 150 261 154 q 250 143 257 143 q 237 134 243 143 q 231 115 231 125 q 236 103 231 103 q 240 96 240 103 q 251 83 240 92 q 261 67 261 78 q 246 47 261 51 q 232 36 232 44 q 247 16 232 31 q 269 1 263 1 z "},"p":{"ha":667,"x_min":1,"x_max":667,"o":"m 301 368 q 304 371 301 371 q 307 368 307 371 q 304 367 307 367 q 301 368 301 367 m 319 819 q 286 828 300 828 q 253 813 268 828 l 239 797 l 242 742 q 246 697 243 711 q 253 676 249 682 q 268 669 258 669 q 339 710 286 669 q 363 761 363 729 q 360 776 363 765 q 319 819 353 807 m 261 608 q 266 591 261 599 q 271 574 271 583 q 275 556 271 558 q 283 525 278 554 q 292 494 289 496 q 296 479 296 492 q 303 446 296 464 q 307 431 307 435 q 303 424 307 425 q 294 421 300 422 q 285 417 289 419 q 268 413 276 413 q 246 454 246 413 q 242 494 246 474 q 233 539 239 514 q 224 579 226 564 q 203 633 217 622 q 200 657 182 651 q 210 678 210 661 q 206 699 210 697 q 200 715 200 701 q 194 732 200 729 q 185 767 190 735 q 183 790 183 776 q 192 822 183 811 q 222 844 200 833 q 256 858 253 858 q 261 863 261 858 q 317 868 261 868 q 354 864 353 868 q 379 854 358 861 q 403 844 400 847 q 415 838 410 838 q 428 824 422 838 q 436 808 435 810 q 443 772 443 801 q 435 719 443 736 q 406 682 426 704 q 371 653 385 660 q 342 642 357 644 q 324 635 326 639 q 307 629 321 629 q 276 626 293 629 q 261 608 261 624 m 569 529 q 575 545 569 538 q 581 560 581 553 q 588 585 581 574 q 597 625 594 597 q 604 656 600 651 q 615 712 608 658 q 622 801 622 765 q 617 888 622 860 q 608 923 613 914 q 586 947 603 932 q 535 983 563 971 q 496 995 514 993 q 394 999 478 997 l 381 999 q 285 997 301 999 q 247 986 269 996 q 240 983 243 985 q 233 980 238 982 q 222 976 228 978 q 154 940 183 961 q 118 900 125 918 q 103 888 115 893 q 89 871 90 882 q 75 844 86 856 q 63 803 63 832 q 56 767 63 772 q 47 711 47 758 q 46 653 47 658 q 43 640 43 644 q 75 567 43 614 q 104 513 104 522 q 108 503 104 503 q 114 497 114 503 q 125 481 114 489 q 147 450 139 467 q 165 428 157 431 q 175 421 175 425 q 192 400 175 415 q 222 378 208 385 q 250 360 236 371 q 261 353 261 349 q 278 343 261 356 q 314 331 294 331 q 335 322 333 331 q 346 315 338 315 q 360 311 356 315 q 403 303 365 306 l 440 299 l 450 314 q 458 335 458 331 q 478 373 458 339 q 504 411 499 407 q 527 449 508 415 q 550 488 546 483 q 569 529 569 507 m 533 -146 q 511 -138 525 -146 q 490 -131 497 -131 q 475 -124 478 -131 q 467 -115 472 -115 q 447 -100 460 -115 q 433 -60 433 -85 q 440 -35 433 -35 q 457 -25 447 -35 q 496 1 465 -17 q 550 57 550 31 q 528 82 550 72 q 494 92 506 92 q 474 106 485 92 q 460 117 465 115 q 435 115 454 118 l 408 113 l 408 147 q 413 186 408 183 q 418 208 418 189 q 413 228 418 222 q 383 250 407 235 q 331 274 349 271 q 310 280 318 275 q 288 285 301 285 q 249 299 274 285 q 218 324 225 313 q 206 331 215 331 q 194 336 194 331 q 188 340 194 340 q 170 356 182 340 q 153 374 158 372 q 144 386 144 375 q 140 396 144 396 q 117 413 135 396 q 99 436 99 431 q 93 442 99 442 q 89 450 89 442 q 76 463 89 457 q 62 472 68 465 q 49 490 56 479 q 40 504 43 500 q 28 531 28 519 q 24 543 28 543 q 15 583 18 543 q 7 635 13 625 q 1 711 1 649 q 7 785 1 774 q 11 797 8 786 q 17 817 14 807 q 22 828 19 828 q 29 847 26 828 q 49 892 32 871 q 118 956 64 914 q 196 1004 172 997 l 233 1017 q 258 1026 247 1024 q 317 1028 263 1028 q 535 1022 496 1028 q 578 1003 558 1017 q 613 979 603 985 q 656 919 642 964 q 667 803 667 889 q 661 713 667 718 q 651 672 657 708 q 629 561 635 567 q 625 546 625 558 q 621 532 625 533 q 613 500 618 531 q 603 467 607 469 q 596 457 596 463 q 582 438 596 454 q 544 386 544 397 q 533 360 544 382 q 501 297 506 303 q 494 275 494 286 q 506 249 494 260 q 517 231 514 240 q 539 200 519 219 q 560 172 560 179 q 548 158 560 167 q 528 149 536 149 q 525 138 515 149 l 533 133 q 567 116 543 133 q 590 92 590 99 q 596 79 590 82 q 601 51 601 75 q 581 -14 601 -14 q 572 -22 575 -14 q 560 -33 571 -28 q 547 -44 549 -37 q 522 -64 544 -54 q 499 -79 499 -75 q 514 -90 499 -83 q 544 -132 544 -103 q 533 -146 544 -146 z "},"q":{"ha":586,"x_min":1,"x_max":586,"o":"m 285 903 q 253 908 271 908 q 210 886 232 908 q 186 856 186 863 q 181 836 186 850 q 188 806 175 825 q 206 786 199 786 q 214 779 211 786 q 233 771 217 771 q 268 792 249 771 q 288 818 288 814 q 294 835 288 825 q 303 864 303 844 q 285 903 303 894 m 282 949 q 294 953 289 953 q 311 949 300 953 q 326 946 322 946 q 346 949 343 943 q 375 943 354 961 q 386 918 386 933 q 385 889 386 903 q 378 842 383 860 q 371 803 372 824 q 364 771 368 771 q 357 722 360 771 q 349 665 354 674 l 347 654 q 342 628 344 643 q 339 604 339 614 q 344 589 339 589 q 360 599 353 589 q 447 675 429 675 q 463 664 463 675 q 453 628 463 651 q 438 604 443 604 q 418 590 429 604 q 388 565 411 581 q 358 540 365 549 q 343 528 349 528 q 338 521 338 528 q 337 514 338 518 q 336 508 336 510 q 335 503 336 507 q 333 496 333 499 q 321 488 333 488 q 297 472 308 488 q 260 460 282 451 q 251 493 251 464 q 257 513 251 513 q 261 521 261 513 q 260 535 261 525 q 258 547 258 544 q 261 554 258 554 q 267 596 267 554 q 275 672 267 633 q 286 732 286 717 q 276 742 286 742 q 256 733 267 742 q 221 726 249 726 q 179 733 193 726 q 151 765 161 743 q 138 835 138 800 q 140 850 138 847 q 146 863 146 853 q 179 918 146 892 q 251 944 213 944 q 282 949 275 944 m 478 633 q 487 649 478 633 q 496 669 496 664 q 506 690 496 675 q 515 710 515 706 q 524 729 515 715 q 531 754 531 743 q 536 769 531 767 q 540 813 540 772 q 536 856 540 853 q 531 872 531 858 q 519 904 531 885 q 479 951 504 926 q 444 976 454 975 q 435 978 442 976 q 419 983 429 981 q 404 988 410 986 q 250 1000 361 1000 q 194 994 196 1000 q 181 989 192 989 q 110 959 154 989 q 63 908 67 929 q 60 898 63 907 q 56 878 58 889 q 53 860 54 868 q 43 724 43 818 q 49 656 43 667 q 54 638 50 654 q 63 605 58 621 q 69 589 68 589 q 78 566 74 589 q 85 543 82 543 q 92 528 89 543 q 105 497 93 518 q 118 471 117 476 q 126 463 119 463 q 131 454 131 463 q 138 444 131 449 q 146 435 146 439 q 161 410 146 431 q 178 386 176 389 q 192 374 181 376 q 201 367 201 371 q 214 350 201 365 q 244 319 226 335 q 269 303 261 303 q 278 315 278 303 q 290 338 278 325 q 303 356 303 350 q 323 381 303 358 q 343 406 343 403 q 350 415 343 413 q 373 442 357 419 q 394 482 389 465 q 407 507 404 504 q 414 521 414 514 q 418 528 414 528 q 426 543 422 528 q 435 558 431 558 q 439 567 439 558 q 449 583 439 572 q 460 599 460 594 q 478 633 460 603 m 107 410 q 101 419 107 410 q 94 433 94 429 q 85 449 94 438 q 75 467 75 460 q 57 508 75 481 q 39 560 39 538 q 35 578 39 569 q 11 667 15 619 q 4 707 8 703 q 1 772 1 710 q 29 928 4 872 q 39 954 39 947 q 74 991 39 961 q 128 1029 110 1021 q 229 1043 140 1036 q 321 1049 292 1049 l 324 1049 q 363 1043 335 1049 q 396 1035 392 1038 q 411 1031 400 1031 q 496 1003 413 1031 q 511 985 503 1000 q 533 960 519 968 q 563 918 550 949 q 582 885 575 889 q 586 847 586 883 q 575 739 586 758 q 567 713 567 722 q 559 688 567 706 q 551 665 551 671 q 538 647 551 660 q 525 631 525 635 q 513 604 525 626 q 500 581 500 582 q 482 550 500 578 q 460 518 464 522 q 443 478 443 501 q 440 463 443 463 q 432 449 435 463 q 410 410 429 433 q 381 364 388 379 q 368 340 369 342 q 361 325 364 335 q 340 292 358 313 q 322 268 322 271 q 350 235 322 260 q 358 221 358 226 q 374 201 358 217 q 389 179 389 186 q 374 157 389 172 q 340 143 358 143 l 325 143 q 315 144 321 143 q 308 144 310 144 q 288 133 288 144 q 297 106 288 128 q 308 60 308 81 q 313 33 308 36 q 318 11 318 29 q 310 -31 318 -14 q 293 -74 293 -64 q 285 -90 293 -82 q 276 -124 279 -96 q 272 -144 275 -140 q 261 -147 269 -149 q 234 -142 240 -146 q 225 -125 228 -137 q 222 -93 222 -103 q 226 -72 222 -76 q 235 -54 232 -69 q 250 -18 238 -39 q 263 26 263 1 q 254 51 263 44 q 247 63 247 58 q 239 75 247 67 q 232 92 232 82 q 226 106 232 103 q 221 126 221 108 q 215 143 221 143 q 201 153 210 143 q 192 168 192 163 q 203 193 192 174 l 214 215 l 197 249 q 181 288 181 282 q 171 306 181 292 q 161 324 161 319 q 156 331 161 331 q 150 338 150 331 q 135 364 150 342 q 119 389 119 386 q 107 410 119 390 z "},"r":{"ha":636,"x_min":1,"x_max":636,"o":"m 218 868 q 215 879 215 874 q 223 903 215 892 q 240 914 231 914 q 265 897 251 914 q 278 867 278 881 q 282 851 278 856 q 288 850 283 850 q 324 863 317 850 q 390 868 328 868 q 442 864 438 868 q 464 858 447 858 q 510 838 504 858 q 517 828 513 828 q 521 822 519 828 q 520 810 522 817 q 515 803 518 804 q 479 801 511 801 q 438 815 449 803 q 415 828 429 828 q 397 826 404 828 q 325 808 329 819 q 311 801 322 801 q 296 794 299 801 q 285 786 293 786 q 281 750 281 786 q 289 589 281 622 q 290 565 290 581 q 271 533 290 533 q 245 556 257 533 q 233 603 233 579 q 238 626 233 617 q 239 664 244 639 q 233 721 233 694 q 228 754 233 751 q 224 807 224 756 q 218 868 224 858 m 414 1031 q 378 1035 393 1031 q 336 1040 364 1040 q 292 1035 294 1040 q 268 1031 289 1031 q 182 997 233 1031 q 153 963 169 989 q 136 926 136 938 q 128 913 136 922 q 121 897 121 903 q 117 888 121 888 q 97 855 113 888 q 81 813 81 822 q 76 801 81 801 q 75 790 75 801 q 83 710 75 764 q 96 656 90 657 q 101 639 101 653 q 114 614 101 625 q 125 586 132 599 q 121 583 124 583 q 117 580 118 583 q 117 573 115 576 q 122 568 119 569 q 129 542 125 567 q 138 518 133 518 q 142 511 142 518 q 149 500 142 503 q 157 485 151 499 q 167 472 163 472 q 175 455 171 472 q 182 438 179 438 q 194 421 183 438 q 278 310 221 375 q 293 289 293 292 q 304 285 293 285 q 314 290 314 285 q 321 294 314 294 q 329 300 329 294 q 364 349 329 306 q 369 360 369 357 q 380 374 369 363 q 390 389 390 385 q 394 396 390 396 q 401 407 399 396 q 415 421 404 418 q 425 426 425 424 q 438 444 425 429 q 457 479 453 463 q 467 497 463 497 q 471 506 471 497 q 486 528 471 510 q 501 551 501 547 q 507 558 501 558 q 514 571 511 558 q 525 586 517 583 q 532 597 532 589 q 538 604 532 604 q 542 614 542 604 q 554 635 542 619 q 567 658 567 651 q 574 675 567 668 q 581 794 581 682 q 575 888 581 883 q 564 910 569 890 q 533 959 561 924 q 497 994 506 994 q 485 1001 492 994 q 414 1031 456 1031 m 357 -60 q 375 -37 375 -39 q 362 -21 375 -36 q 349 -3 349 -6 q 338 18 349 4 q 314 63 328 31 q 299 92 301 92 q 292 88 297 92 q 278 83 288 83 q 251 96 257 83 q 252 110 250 101 q 258 122 254 119 q 286 190 279 138 q 288 206 288 197 q 272 240 288 219 q 249 265 253 265 q 190 306 238 265 q 142 356 142 346 q 114 388 142 357 q 86 426 86 418 q 82 439 86 431 q 67 476 81 442 q 51 513 53 511 q 35 546 35 529 q 28 557 35 554 q 15 599 21 560 q 8 638 13 611 q 4 668 4 665 q 1 731 1 690 q 7 828 1 808 l 11 849 q 50 918 15 865 q 106 992 85 971 q 150 1028 122 1010 q 172 1046 172 1042 q 190 1054 172 1049 q 208 1061 207 1060 q 250 1070 210 1065 q 293 1076 290 1075 q 344 1081 301 1081 q 392 1076 388 1081 q 431 1069 393 1075 q 469 1061 468 1064 q 481 1056 472 1056 q 494 1049 492 1056 q 511 1037 496 1046 q 526 1021 526 1028 q 535 1015 526 1015 q 565 993 543 1015 q 593 956 586 971 q 604 939 601 939 q 608 928 608 939 q 621 890 608 915 q 634 857 632 871 q 636 789 636 843 q 629 704 636 711 q 624 688 624 700 q 617 669 624 679 q 610 651 611 660 q 601 615 604 624 q 591 595 599 606 q 576 571 583 585 q 561 544 565 549 q 557 535 557 542 q 554 528 557 528 q 538 494 550 528 q 518 456 524 460 q 511 444 511 451 q 507 438 511 438 q 499 422 501 438 q 485 400 496 408 q 428 315 468 389 q 395 281 426 314 q 364 244 364 249 q 379 202 364 236 q 400 165 394 168 q 405 149 408 160 q 390 132 401 138 q 375 119 375 125 q 369 113 375 113 q 364 97 364 113 q 369 82 364 82 q 375 75 375 82 q 403 40 375 68 l 431 13 l 431 -58 l 404 -87 q 364 -135 364 -129 q 356 -144 364 -139 q 351 -150 351 -147 q 363 -170 351 -156 q 374 -190 374 -185 q 367 -199 374 -197 q 347 -203 357 -203 q 316 -189 328 -203 q 304 -151 304 -175 q 357 -60 304 -118 z "},"s":{"ha":653,"x_min":1,"x_max":653,"o":"m 357 711 q 370 703 364 711 q 382 696 376 696 q 401 679 389 696 q 415 628 415 660 q 408 573 415 603 q 394 543 400 543 q 389 538 389 543 q 375 515 389 529 q 346 494 361 501 q 272 486 328 486 q 224 488 235 486 q 199 501 213 490 q 156 540 181 513 q 134 566 138 558 q 131 592 131 574 q 134 617 131 611 q 154 632 138 622 q 176 650 176 644 q 182 654 176 653 q 194 653 188 656 q 206 647 201 651 q 213 607 213 638 q 221 558 213 572 q 256 536 229 544 q 297 528 281 528 q 324 536 317 528 q 336 543 331 543 q 344 551 344 543 q 349 558 344 558 q 354 565 354 558 q 361 581 354 574 q 371 617 371 590 q 361 644 371 644 q 354 649 354 644 q 339 662 354 654 q 314 669 324 669 q 268 687 299 669 q 229 718 238 704 q 218 751 218 733 q 222 764 218 760 q 228 775 228 767 q 236 792 228 786 q 248 806 238 793 q 268 825 258 819 q 292 832 278 831 q 318 838 318 835 q 343 844 318 842 q 379 846 358 846 q 402 844 394 846 q 420 837 410 842 q 442 828 431 832 q 456 808 456 822 q 458 769 456 794 q 454 746 461 746 q 444 735 447 746 q 431 725 443 724 q 403 761 408 726 q 390 790 400 779 q 367 801 379 801 q 354 797 354 801 q 331 789 354 792 q 288 754 288 782 q 301 733 288 744 q 326 721 315 721 q 341 716 333 721 q 357 711 349 711 m 551 954 q 524 988 551 956 q 496 1024 496 1021 q 486 1031 496 1031 q 475 1035 478 1031 q 451 1049 472 1040 q 410 1061 429 1058 q 343 1068 367 1068 q 331 1065 332 1068 q 318 1061 328 1061 q 276 1046 313 1061 q 238 1031 240 1031 q 232 1025 232 1031 q 215 1010 232 1019 q 188 1000 197 1000 q 175 992 181 1000 q 164 985 169 985 q 156 979 156 985 q 149 974 156 974 q 131 961 144 974 q 113 949 117 949 q 106 946 106 949 q 88 921 106 943 q 69 894 69 899 q 65 888 69 888 q 57 869 60 888 q 44 831 54 851 q 40 803 35 810 q 43 782 46 796 q 46 740 40 768 q 51 701 47 731 q 58 647 54 671 q 68 611 63 622 q 75 582 75 597 q 83 556 75 575 q 90 529 90 536 q 95 514 90 521 q 101 499 100 507 q 125 454 104 486 q 146 419 146 422 q 200 363 146 417 q 263 313 250 313 l 268 313 q 283 321 283 315 q 296 328 283 325 q 322 343 310 331 q 340 356 335 356 q 344 363 344 356 q 374 382 344 369 q 463 465 424 406 q 490 504 485 499 q 511 533 511 525 q 518 542 511 539 q 538 572 526 546 q 556 604 550 597 q 569 636 567 618 q 576 656 572 653 q 583 815 583 658 q 579 908 583 904 q 574 922 576 911 q 567 940 571 932 q 558 949 563 949 q 551 954 551 949 m 60 490 q 47 525 60 496 q 35 558 35 554 q 26 581 35 564 q 17 621 22 589 q 7 660 11 653 q 1 743 1 665 q 8 846 1 842 q 17 872 13 847 q 28 900 22 897 q 35 911 35 903 q 40 918 35 918 q 44 925 44 918 q 80 967 44 931 q 121 1004 115 1004 q 143 1026 135 1004 q 171 1047 144 1032 q 207 1061 197 1061 q 213 1065 213 1061 q 235 1074 213 1069 q 260 1081 258 1078 q 288 1090 263 1083 q 317 1100 314 1096 q 338 1104 321 1106 q 354 1106 354 1101 q 382 1111 354 1111 q 413 1106 407 1111 q 426 1101 414 1101 q 447 1094 433 1101 q 465 1086 460 1086 q 476 1082 472 1086 q 502 1067 478 1081 q 526 1050 526 1053 q 533 1046 526 1046 q 548 1036 539 1046 q 557 1021 557 1026 q 561 1014 557 1017 q 585 987 568 1011 q 603 956 603 963 q 607 943 603 944 q 626 906 614 940 q 638 854 638 871 q 646 804 638 843 q 653 736 653 772 q 644 640 653 697 q 628 572 636 583 q 618 554 618 560 q 608 535 618 550 q 597 514 597 519 q 582 493 597 506 q 567 476 567 481 q 554 460 567 474 q 542 442 542 446 q 524 419 542 438 q 501 401 506 401 q 467 371 500 401 q 431 340 433 340 q 425 336 425 340 q 407 329 425 333 q 389 321 389 325 q 382 315 389 315 q 363 303 378 315 q 344 290 347 290 q 328 279 342 290 q 315 246 315 268 q 323 218 315 229 q 332 193 331 207 q 333 188 332 190 q 333 183 333 185 q 303 158 333 158 q 274 151 289 158 q 254 132 260 143 q 232 63 232 88 q 249 35 232 53 q 275 17 265 17 q 307 -24 286 17 q 313 -65 313 -33 q 308 -92 313 -89 q 301 -142 304 -94 q 293 -197 299 -189 q 272 -207 289 -207 q 254 -200 258 -207 q 251 -179 251 -197 q 258 -110 251 -147 q 263 -71 263 -85 q 257 -47 263 -56 q 231 -18 251 -39 q 199 29 203 10 q 197 53 197 35 q 207 126 197 124 q 213 139 213 129 q 194 149 213 149 q 174 158 178 149 q 172 169 172 161 q 185 201 172 196 q 206 226 193 204 q 218 257 218 247 q 201 286 218 264 q 181 310 185 308 q 176 318 176 311 q 171 325 176 325 q 146 344 165 325 q 126 369 126 364 q 115 382 126 374 q 83 434 107 389 q 60 490 60 479 z "},"t":{"ha":579,"x_min":1,"x_max":579,"o":"m 253 1004 q 265 1013 261 1013 q 282 1008 269 1014 q 294 997 290 1006 q 301 972 299 988 q 306 951 304 957 q 304 931 311 938 q 301 917 301 925 q 303 890 301 906 q 309 858 306 874 q 313 842 313 843 q 332 815 317 815 q 354 819 339 815 q 429 829 383 829 q 457 825 450 829 q 464 814 464 821 q 450 795 464 804 q 418 786 436 786 q 369 778 401 786 q 332 764 338 769 q 329 753 329 761 q 337 707 329 736 q 351 668 344 678 q 358 625 356 664 q 367 581 361 589 q 372 517 372 572 q 371 464 372 474 q 361 444 369 454 q 333 432 350 432 q 301 472 301 432 q 308 519 301 494 q 313 556 315 549 q 300 641 308 568 q 289 724 292 714 q 265 756 282 756 q 236 749 260 756 q 193 742 217 742 q 149 765 149 742 q 155 778 149 776 q 199 783 161 781 q 259 794 249 788 q 269 828 269 800 q 265 867 269 858 q 259 886 264 869 q 250 928 254 903 q 246 972 246 954 q 253 1004 246 996 m 418 994 q 406 1005 418 994 q 389 1015 394 1015 q 365 1031 383 1015 q 340 1046 347 1046 q 313 1051 328 1046 q 278 1056 296 1056 q 243 1047 247 1056 q 225 1040 240 1040 q 206 1031 213 1040 q 181 1018 200 1021 q 147 1003 160 1015 q 125 989 133 989 q 107 967 118 989 q 72 913 81 940 q 58 889 68 896 q 56 871 51 886 q 58 850 61 856 q 53 811 53 836 q 58 778 53 786 q 64 742 64 772 q 68 701 64 721 q 80 660 72 682 q 90 626 88 638 q 97 610 92 617 q 103 594 103 603 q 110 579 103 583 q 119 560 113 576 q 131 543 125 543 q 142 535 139 543 q 196 461 153 510 q 234 418 226 425 q 256 411 242 411 l 258 411 q 288 397 275 411 q 322 383 297 385 q 342 378 338 382 q 351 363 347 374 l 357 346 l 371 360 q 389 385 386 372 q 399 399 392 396 q 407 411 407 401 q 415 426 407 417 q 422 439 422 435 q 432 453 422 442 q 442 469 442 465 q 452 494 442 472 q 463 522 463 517 q 469 535 463 532 q 479 557 476 538 q 493 631 489 621 q 499 654 499 642 q 506 672 499 669 q 514 689 514 675 q 519 710 514 704 q 526 775 526 717 q 521 828 526 822 q 511 854 513 840 q 504 872 508 872 q 496 882 500 872 q 454 951 467 939 q 442 967 442 961 q 418 994 442 972 m 126 1056 q 144 1065 132 1056 q 161 1075 156 1075 q 168 1081 168 1075 q 188 1089 168 1086 q 224 1101 207 1092 q 286 1111 243 1111 q 311 1106 311 1111 q 322 1101 311 1101 q 342 1094 329 1101 q 361 1086 356 1086 q 385 1077 368 1086 q 401 1064 401 1068 q 408 1061 401 1061 q 428 1049 415 1061 q 447 1026 442 1038 q 458 1015 451 1015 q 487 990 465 1015 q 508 956 508 964 q 515 940 508 943 q 524 926 524 938 q 533 906 524 919 q 543 885 543 893 q 551 858 543 875 q 558 832 558 842 q 569 800 558 819 q 579 742 579 781 q 575 692 579 700 q 554 615 554 650 q 550 599 554 599 q 538 580 547 599 q 528 556 528 561 q 508 509 528 553 q 488 464 488 465 q 483 457 488 457 q 475 442 481 457 q 467 426 469 426 q 460 414 464 426 q 451 401 456 401 q 447 394 447 401 q 440 383 447 389 q 432 371 432 378 q 425 357 432 360 q 411 336 419 356 q 403 319 411 335 q 387 285 394 303 q 379 263 379 268 q 381 260 379 260 q 389 244 386 257 q 405 219 392 233 q 425 204 418 204 q 426 175 440 204 q 388 146 415 151 l 371 143 l 371 103 q 376 58 371 64 q 393 4 385 50 q 401 -71 401 -42 q 397 -90 401 -90 q 389 -132 392 -90 q 385 -160 388 -151 q 382 -171 383 -168 q 372 -176 381 -174 q 357 -182 363 -179 q 338 -185 347 -187 q 333 -151 331 -182 q 353 -82 339 -96 q 357 -67 357 -78 q 338 -18 357 -31 q 331 -4 331 -15 q 318 29 331 4 q 307 78 307 54 q 313 119 307 99 q 308 133 317 133 q 299 140 301 133 l 297 143 q 297 149 297 146 q 303 191 297 164 q 311 221 308 218 q 315 233 314 224 q 315 251 317 243 q 311 260 314 260 q 303 269 306 260 q 186 390 299 285 q 121 474 143 432 q 111 482 117 482 q 108 490 108 482 q 101 503 108 494 q 93 518 93 513 q 78 546 93 521 q 47 614 47 588 q 42 625 47 622 q 33 650 36 628 q 24 682 32 664 q 17 717 17 700 q 8 746 17 738 q 1 772 1 751 q 8 803 1 792 q 18 861 15 815 q 26 915 21 910 q 29 931 32 921 l 28 933 l 28 936 q 47 984 28 953 q 76 1015 65 1015 q 99 1035 79 1015 q 126 1056 117 1056 z "},"u":{"ha":669,"x_min":1,"x_max":669,"o":"m 239 607 q 232 617 239 613 q 225 629 225 622 q 219 642 225 639 q 214 690 214 644 q 219 736 214 736 q 225 768 225 736 q 236 814 225 801 q 260 826 249 828 q 276 796 276 825 q 275 772 276 781 q 271 694 271 742 q 274 653 271 658 q 326 631 292 631 q 368 653 364 631 q 393 685 369 658 l 414 708 l 415 760 q 425 818 417 810 q 432 831 432 822 q 440 838 432 836 q 456 837 447 839 q 467 829 464 835 q 469 775 469 824 q 469 740 469 765 q 468 699 468 714 l 467 576 l 444 563 q 421 554 432 554 q 397 586 397 554 q 395 598 397 596 q 383 597 393 600 q 367 589 372 594 q 317 574 358 574 q 275 583 286 574 q 251 596 263 593 q 239 607 239 599 m 539 946 q 521 961 539 951 q 503 974 503 971 q 496 979 503 979 q 485 986 488 979 q 467 1000 483 990 q 386 1011 450 1010 q 336 1013 365 1013 q 289 1004 297 1013 q 274 1000 285 1000 q 246 990 265 1000 l 226 982 q 195 967 207 974 q 183 956 183 960 q 156 923 183 953 q 128 892 128 893 q 113 872 128 888 q 97 847 97 857 q 93 838 97 838 q 84 822 89 838 q 76 804 79 806 q 72 790 72 803 q 68 774 72 778 q 49 721 53 744 q 46 631 46 697 q 50 544 46 547 q 58 522 56 542 q 72 488 61 504 q 82 464 82 472 q 90 447 82 458 q 97 432 97 436 q 156 371 97 425 q 194 349 164 363 q 249 310 217 339 q 285 285 274 285 q 297 276 294 285 q 306 269 299 269 q 335 297 322 269 q 353 326 349 324 q 408 375 376 343 q 447 408 428 397 q 468 423 460 415 q 487 443 476 431 q 506 464 497 456 q 558 533 558 519 q 564 539 558 539 q 569 560 569 539 q 576 592 569 582 q 585 615 585 603 q 589 632 585 631 q 594 736 594 635 q 593 824 594 808 q 585 843 592 839 q 572 871 575 850 q 564 896 569 893 q 558 910 558 899 q 549 931 558 921 q 539 946 539 938 m 222 280 q 217 285 222 280 q 206 290 211 290 q 183 303 200 290 q 161 315 167 315 q 153 321 153 315 q 142 328 153 325 q 121 342 133 329 q 94 372 108 354 q 76 392 79 389 q 53 426 65 403 q 42 460 42 450 q 38 469 42 467 q 29 492 33 472 q 22 515 25 513 q 8 582 15 525 q 1 682 1 639 q 6 717 1 713 q 11 736 11 722 q 19 765 11 747 q 29 793 28 783 q 36 813 32 813 q 42 822 42 813 q 51 849 42 831 q 67 872 61 868 l 76 886 q 97 911 86 899 q 108 924 107 924 q 113 929 113 924 q 126 952 113 935 q 144 969 140 969 q 172 986 149 969 q 200 1008 196 1003 q 214 1015 203 1015 q 225 1019 225 1015 q 240 1033 225 1025 q 265 1040 256 1040 q 275 1047 275 1040 q 333 1065 275 1060 q 417 1069 400 1069 q 462 1067 449 1069 q 507 1047 475 1064 q 585 989 585 1008 q 607 953 585 982 q 629 911 629 924 q 635 895 629 903 q 640 878 640 888 q 650 839 640 861 q 669 724 669 796 q 653 618 669 653 q 640 586 640 590 q 622 542 640 581 q 603 503 603 504 q 589 482 599 492 q 569 457 583 476 q 536 420 556 439 q 513 401 517 401 q 489 382 506 401 q 457 358 471 361 q 422 331 449 357 q 392 304 396 306 q 369 268 383 296 q 350 239 356 239 q 346 228 346 239 q 356 197 346 204 q 375 166 360 193 q 396 133 390 139 q 403 121 403 126 q 379 103 403 110 q 356 90 360 97 q 346 29 353 82 q 339 -4 343 8 q 332 -31 335 -17 q 329 -75 329 -44 l 329 -131 q 310 -135 325 -132 q 289 -139 296 -139 q 265 -106 265 -139 q 269 -78 265 -81 q 272 -65 272 -76 q 282 -24 272 -56 q 299 75 299 26 q 297 86 299 83 q 281 92 294 92 q 260 95 265 92 q 256 111 256 99 q 257 131 256 124 q 264 164 260 160 q 283 192 271 168 q 296 225 296 215 q 285 239 296 239 q 270 247 276 239 q 257 257 264 256 q 244 265 244 260 q 238 269 244 269 q 222 280 233 269 z "},"v":{"ha":646,"x_min":1,"x_max":646,"o":"m 300 -217 q 318 -210 308 -210 q 324 -214 324 -210 q 300 -228 324 -228 l 288 -228 l 300 -217 m 214 829 q 210 843 214 843 q 201 868 206 843 q 193 893 197 893 q 189 915 189 893 q 199 939 189 939 q 211 933 208 939 q 232 929 214 929 q 257 920 244 929 q 269 903 269 911 q 276 896 269 899 q 289 865 289 890 q 286 847 289 858 q 285 829 285 843 q 296 749 285 760 q 300 733 300 744 q 308 712 300 724 q 324 700 317 700 q 331 710 331 700 q 349 739 331 718 q 374 775 367 760 q 389 796 382 793 q 396 810 396 799 q 404 826 396 824 q 420 849 408 828 q 436 871 432 869 q 442 886 442 872 q 450 906 442 897 q 457 915 457 913 q 465 931 457 917 q 486 943 474 943 q 504 931 500 943 q 503 896 510 918 q 492 872 494 872 q 483 861 489 872 q 466 831 476 844 q 449 800 456 818 q 428 753 447 797 q 417 722 417 733 q 410 713 417 715 q 399 690 401 710 q 386 661 396 671 q 376 644 376 651 q 366 625 376 640 q 356 606 356 610 q 346 590 356 600 q 331 579 336 579 q 303 599 308 579 q 296 614 300 608 q 267 658 288 619 q 259 688 264 664 q 249 732 254 713 q 239 751 243 751 q 235 763 235 751 q 224 794 235 769 q 214 829 214 819 m 543 603 q 556 631 543 608 q 569 658 569 654 q 576 682 569 671 q 581 698 578 685 q 588 724 585 711 q 594 736 592 736 q 603 810 603 736 q 600 850 603 833 q 584 917 590 904 q 554 953 578 931 q 483 1000 504 1000 q 467 1005 475 1000 q 451 1011 460 1010 q 428 1025 436 1014 q 414 1035 421 1035 q 397 1042 404 1035 q 353 1053 383 1053 q 286 1038 317 1053 q 246 1025 264 1025 q 229 1019 229 1025 q 222 1015 229 1015 q 205 1005 218 1015 q 188 994 192 994 q 150 961 181 994 q 93 886 93 899 q 78 863 93 881 q 49 729 54 839 q 47 688 47 710 q 54 660 47 667 q 67 625 64 650 q 72 596 69 599 q 78 586 78 593 q 103 522 78 568 q 107 503 107 514 q 130 460 107 499 q 153 418 153 421 q 160 410 153 414 q 168 400 168 406 q 187 383 168 396 q 207 365 206 369 q 233 339 210 357 q 279 310 257 321 l 303 299 q 321 321 314 321 q 371 367 325 321 q 424 411 415 411 q 432 424 432 411 q 454 461 432 436 q 483 506 474 482 q 493 524 489 524 q 520 560 497 524 q 543 603 543 596 m 288 60 q 284 54 288 60 q 281 42 281 47 q 270 21 281 36 q 260 0 260 6 q 250 -17 260 -7 q 239 -79 239 -26 q 247 -131 239 -131 q 259 -142 253 -131 q 265 -164 265 -153 q 240 -172 265 -172 q 207 -165 224 -172 q 190 -118 190 -157 q 193 -76 190 -93 q 198 -43 194 -64 q 201 -18 201 -22 q 229 49 203 -3 q 244 71 235 60 q 257 94 253 82 q 264 131 261 106 q 257 167 267 164 q 219 193 219 179 q 225 210 219 200 q 228 221 228 215 q 208 278 228 235 q 181 317 201 294 q 154 340 161 340 q 149 349 149 340 q 144 356 149 356 q 131 375 140 356 q 110 404 119 394 q 96 426 101 411 q 85 447 90 442 q 78 463 78 451 q 72 482 78 471 q 47 540 47 528 q 36 568 47 546 q 14 657 25 592 q 6 683 11 672 q 1 732 1 692 q 10 811 1 807 q 19 829 17 815 q 61 907 29 878 q 72 926 72 918 q 97 961 72 936 q 175 1029 156 1019 q 206 1053 192 1039 q 233 1071 224 1071 q 244 1075 244 1071 q 276 1081 244 1076 q 338 1089 307 1085 q 371 1093 369 1093 q 393 1092 390 1096 q 421 1083 396 1086 q 468 1060 446 1079 q 496 1040 488 1040 q 510 1035 501 1040 q 535 1018 518 1026 q 554 1004 554 1007 q 560 1000 554 1000 q 615 944 571 1000 q 628 921 625 935 q 635 908 631 908 q 646 794 646 908 q 643 734 646 749 q 628 693 640 719 q 604 638 617 671 q 592 607 594 610 q 585 586 585 597 q 572 563 585 575 q 557 536 560 550 q 549 524 554 524 q 543 513 543 524 q 539 503 543 503 q 528 489 536 503 q 507 460 522 479 q 493 439 493 446 q 478 422 493 435 q 463 406 463 410 q 422 361 463 401 q 376 321 381 321 q 364 303 374 321 q 351 285 354 285 q 346 278 346 285 q 340 268 346 271 q 332 247 335 265 q 342 213 331 224 q 367 197 354 200 q 379 183 379 196 q 376 173 379 175 q 357 169 372 171 q 324 152 338 168 q 308 115 311 136 q 300 93 306 96 q 296 81 296 92 q 288 60 296 74 z "},"w":{"ha":647,"x_min":1,"x_max":647,"o":"m 375 772 q 385 792 375 776 q 394 813 394 807 q 400 822 394 822 q 407 840 404 822 q 420 867 408 853 q 433 893 432 882 q 458 939 443 939 q 479 906 479 939 l 479 894 q 472 861 476 865 q 459 828 468 854 q 450 793 450 801 q 443 774 450 783 q 433 742 436 764 q 413 688 429 717 q 406 664 406 674 q 396 640 406 660 q 374 625 386 625 q 357 626 364 625 q 324 634 329 628 q 319 669 319 640 q 315 696 319 696 q 301 721 311 696 l 292 747 l 285 733 q 276 721 281 726 q 270 711 272 715 q 267 696 268 707 q 256 663 264 681 q 248 647 253 658 q 242 631 243 635 q 217 614 236 614 q 190 628 197 614 q 179 685 182 642 q 171 738 176 718 q 164 789 165 758 q 156 840 161 832 q 147 931 147 851 q 149 951 147 949 q 161 960 151 960 q 193 875 186 960 q 197 837 194 849 q 204 811 199 825 q 214 782 210 797 l 221 754 l 229 767 q 238 796 238 778 q 243 813 238 813 q 249 820 246 813 q 256 838 253 828 q 261 850 260 847 q 268 876 268 860 q 274 899 268 892 q 300 915 281 906 q 317 921 314 921 q 335 885 333 921 q 345 817 338 853 q 356 782 353 782 q 360 774 360 782 q 367 767 360 767 q 375 772 375 767 m 271 265 q 282 250 271 263 q 293 232 293 238 q 314 219 293 219 q 319 228 319 219 q 326 229 319 235 q 328 228 328 229 q 329 228 328 228 q 353 247 338 228 q 369 274 369 265 q 389 301 369 281 q 415 321 408 321 q 464 376 424 321 q 488 406 483 403 q 539 488 494 411 q 563 539 563 529 q 574 571 563 549 q 601 647 597 624 q 606 754 606 671 q 599 869 606 860 q 589 900 592 876 q 582 924 586 924 q 574 933 576 924 q 544 966 569 943 q 504 994 518 989 q 476 1006 493 1001 q 450 1015 458 1011 q 349 1022 432 1022 l 311 1022 q 168 1008 183 1022 q 146 1000 160 1000 q 110 978 131 1000 q 76 926 90 957 q 68 865 72 918 q 58 803 64 811 q 54 764 54 794 q 58 717 54 736 q 56 700 63 700 q 63 664 42 700 q 78 617 75 644 q 88 572 79 600 q 101 539 97 543 q 116 513 106 535 q 126 488 126 492 q 143 465 126 482 q 165 427 154 454 q 188 390 176 400 q 203 361 203 375 q 214 342 203 347 q 245 311 224 338 q 268 276 267 285 q 269 270 268 274 q 271 265 271 267 m 192 297 q 176 320 192 301 q 161 342 161 339 q 148 367 161 344 q 131 392 135 389 q 121 407 125 397 q 96 453 114 426 q 74 489 78 479 q 60 508 63 508 q 56 519 56 508 q 46 544 56 532 q 15 632 36 557 q 1 736 1 683 q 13 825 1 785 q 22 893 19 849 q 36 951 24 935 q 44 978 44 964 q 54 989 44 989 q 74 999 64 989 q 103 1019 78 1003 q 132 1040 128 1036 q 271 1053 138 1049 q 368 1058 365 1056 q 375 1060 369 1060 q 455 1043 396 1060 q 536 1014 514 1026 q 563 1006 554 1004 q 572 1006 572 1008 q 585 995 572 1003 q 597 982 597 988 q 610 951 597 976 q 624 922 624 926 q 628 914 624 914 q 635 888 632 914 q 643 856 638 865 q 647 813 647 851 q 647 787 647 806 q 646 756 646 768 q 631 601 642 619 q 624 579 624 592 q 614 546 624 565 q 564 447 576 464 q 532 403 532 411 q 496 350 532 386 q 450 296 450 301 q 417 256 450 289 q 364 185 364 203 q 375 154 364 178 q 392 126 386 131 q 397 96 397 124 l 397 69 l 376 68 q 347 50 356 67 q 328 -15 328 8 q 347 -68 328 -37 q 372 -137 372 -106 q 365 -167 372 -153 q 332 -201 349 -201 q 321 -185 321 -201 q 322 -172 321 -176 q 319 -156 325 -156 q 314 -144 314 -156 q 299 -112 314 -136 q 283 -81 283 -87 q 278 -67 283 -72 q 269 -21 269 -58 q 275 22 269 6 q 281 44 281 42 q 249 57 281 57 q 225 69 225 57 q 242 106 225 89 q 274 164 274 139 q 265 189 274 181 q 247 215 263 190 q 228 239 232 239 q 219 257 222 239 q 204 283 218 272 q 192 297 192 290 z "},"x":{"ha":669,"x_min":1,"x_max":669,"o":"m 401 899 q 417 918 401 903 q 432 940 432 933 q 440 961 432 947 q 456 981 449 975 q 473 983 464 988 q 482 965 482 978 q 460 905 482 950 q 429 856 439 860 q 422 846 422 853 q 415 832 422 839 q 400 808 408 825 q 392 785 392 792 q 454 711 392 776 q 503 646 503 660 q 519 624 503 642 q 535 600 535 606 l 535 590 q 517 553 535 553 q 460 603 493 553 q 435 633 446 622 q 417 662 424 644 q 399 693 411 679 q 392 703 392 700 q 378 723 392 710 q 358 736 365 736 q 324 703 339 736 q 312 683 318 690 q 300 663 306 675 q 279 628 297 656 q 265 603 265 610 q 242 575 265 596 q 210 554 218 554 q 196 579 196 554 q 204 604 196 604 q 210 611 210 604 q 223 633 210 617 q 238 656 236 650 q 246 665 240 665 q 250 675 250 665 q 257 693 250 686 q 275 722 275 714 q 286 739 275 728 q 307 783 307 758 q 293 801 307 801 q 273 815 286 801 q 260 835 260 828 q 240 858 260 839 q 219 889 219 882 q 214 899 219 899 q 207 911 211 899 q 199 924 203 924 q 194 942 194 924 q 201 967 194 956 q 217 979 208 979 q 233 967 221 979 q 244 951 244 956 q 256 931 244 947 q 274 913 268 915 q 281 901 281 908 q 313 869 281 894 q 354 843 346 843 q 381 866 361 843 q 401 899 401 889 m 210 1046 q 182 1033 203 1046 q 156 1019 161 1019 q 137 1008 150 1019 q 124 992 124 996 q 115 979 124 988 q 67 912 78 939 q 51 825 56 885 q 49 760 49 783 q 49 741 49 751 q 50 728 50 731 q 65 651 53 696 q 85 599 78 607 q 96 571 93 590 q 103 554 99 554 q 108 546 108 554 q 114 535 108 536 q 133 514 119 533 q 210 433 150 490 q 278 376 271 376 q 290 368 279 376 q 368 340 308 353 q 393 331 386 338 q 429 325 399 325 q 463 332 463 325 q 469 342 463 339 q 481 363 478 344 q 491 389 482 374 q 511 421 500 404 q 526 444 522 438 q 560 511 554 496 q 576 547 565 524 q 594 589 588 571 q 603 629 600 607 q 610 657 606 653 q 621 826 621 671 q 619 867 621 857 q 608 925 617 907 q 599 942 606 929 q 589 964 593 956 q 578 980 585 972 q 565 989 572 988 q 546 1000 554 992 q 529 1010 539 1010 q 515 1014 519 1010 q 476 1031 508 1018 q 439 1046 444 1043 q 324 1056 422 1056 q 222 1050 225 1056 q 210 1046 219 1046 m 42 971 q 55 992 42 976 q 68 1011 68 1007 q 101 1042 68 1018 q 168 1071 138 1068 q 207 1081 200 1075 q 285 1085 211 1085 q 444 1076 436 1085 q 458 1071 450 1071 q 499 1060 467 1071 q 536 1044 532 1049 q 551 1040 540 1040 q 569 1033 558 1040 q 585 1025 579 1025 q 594 1021 594 1025 q 608 1010 594 1018 q 651 936 622 1001 q 661 899 656 926 q 669 754 669 846 q 667 714 669 719 q 658 668 663 708 q 650 622 653 628 q 625 547 643 593 q 599 493 607 500 q 594 484 597 492 q 589 469 592 476 q 585 463 586 463 q 574 444 582 463 q 558 421 565 424 q 549 407 549 417 q 541 394 549 400 q 533 381 533 388 q 529 371 533 371 q 521 353 524 371 q 506 319 518 335 q 493 294 493 304 q 488 283 493 285 q 486 281 486 283 q 495 265 486 275 q 513 253 504 254 q 526 235 524 250 q 527 230 526 233 q 528 225 528 226 q 503 199 528 199 q 487 193 490 199 q 481 160 483 188 q 453 94 478 131 q 429 40 429 58 q 438 19 429 31 q 451 -10 449 8 q 458 -32 454 -28 q 464 -76 464 -35 q 460 -106 464 -106 q 456 -125 456 -106 q 426 -160 456 -160 l 422 -160 l 404 -158 l 397 -90 q 386 -11 389 -17 q 382 18 382 -3 q 399 106 382 69 q 411 131 403 115 q 421 151 419 147 q 428 175 428 168 q 390 193 428 193 l 383 193 q 347 196 356 193 q 342 204 344 197 q 342 217 340 211 q 346 224 343 224 q 351 236 351 224 q 346 250 351 250 q 342 257 342 250 q 333 265 342 265 q 326 271 326 265 q 311 281 326 274 q 296 294 296 289 q 272 318 296 303 q 218 363 253 331 q 183 401 183 396 q 181 407 183 407 q 144 437 176 407 q 113 471 113 467 q 97 488 113 474 q 82 504 82 503 q 67 531 82 508 q 53 560 53 554 q 47 571 53 568 q 42 589 42 574 q 36 608 42 600 q 29 628 31 617 q 19 663 26 649 q 1 801 1 704 q 7 840 1 836 q 11 886 11 842 q 13 924 11 915 q 26 946 15 933 q 42 971 42 964 z "},"y":{"ha":543,"x_min":1,"x_max":543,"o":"m 336 939 q 340 947 340 939 q 344 960 340 956 q 353 960 347 965 q 369 954 358 954 q 385 942 385 954 q 338 865 385 915 q 333 856 336 864 q 327 843 331 849 q 321 838 324 838 q 308 818 315 838 q 301 758 301 800 q 303 688 301 718 q 308 529 306 589 l 311 482 l 246 482 l 246 596 q 242 744 246 686 l 239 782 l 204 814 q 170 847 194 824 q 136 881 146 871 q 99 933 99 917 q 110 946 99 944 q 122 954 122 949 q 126 960 122 960 q 172 925 138 960 q 215 886 208 889 q 224 876 224 883 q 236 858 224 871 l 250 846 l 260 857 q 276 868 271 868 q 289 877 282 868 q 303 897 296 886 q 313 911 310 908 q 326 931 325 924 q 336 939 329 939 m 357 1013 q 238 1018 324 1018 q 158 1015 192 1018 q 107 997 125 1011 q 88 978 88 985 q 74 956 88 975 q 53 918 58 938 q 47 804 47 896 q 53 669 47 719 q 78 556 69 560 q 82 540 82 551 q 92 512 82 531 q 108 493 103 493 q 113 486 113 493 q 119 471 113 478 q 142 436 136 454 q 149 426 144 426 q 153 419 153 426 q 163 410 153 413 q 176 396 174 407 q 193 377 178 390 q 208 357 208 364 q 218 351 208 351 q 257 368 240 351 q 286 389 272 383 q 364 467 308 397 q 413 540 401 515 q 425 554 418 554 q 432 557 432 554 q 444 589 435 579 q 453 608 453 600 q 460 624 453 621 q 469 660 465 626 q 478 699 474 694 q 486 740 481 703 q 494 781 492 778 q 499 831 499 786 q 493 894 499 889 q 488 908 488 900 q 444 960 488 919 q 390 1000 401 1000 q 379 1004 381 1000 q 357 1013 376 1010 m 464 532 q 449 513 463 532 q 432 493 435 493 q 426 485 426 493 q 422 478 426 478 q 413 463 418 478 q 397 440 410 454 q 370 410 385 425 q 353 390 356 394 q 333 376 339 376 q 310 357 329 376 q 283 333 293 339 q 269 299 269 325 q 290 235 269 250 q 300 215 300 228 q 307 188 300 199 q 301 164 315 174 l 288 154 l 301 126 q 315 67 315 99 q 311 43 315 51 q 303 23 310 40 q 290 4 297 6 q 281 -4 281 1 q 263 -33 281 -10 q 244 -76 244 -57 q 251 -103 244 -89 q 260 -143 260 -117 q 254 -168 260 -162 q 213 -185 238 -185 q 208 -183 211 -185 q 204 -146 204 -181 q 199 -108 204 -111 q 193 -78 193 -103 q 199 -47 193 -53 q 204 -35 204 -44 q 217 -1 204 -26 q 229 74 229 22 q 224 125 229 113 q 203 138 218 138 q 193 143 193 138 q 176 146 193 147 q 150 156 158 143 q 153 188 142 168 q 171 236 164 211 q 185 276 183 275 q 189 295 190 286 q 182 307 188 304 q 165 328 175 310 q 129 381 150 357 q 118 397 118 392 q 88 432 118 401 q 54 479 60 460 q 39 511 53 492 q 8 663 19 536 q 1 794 1 733 q 8 886 1 850 q 31 989 21 967 q 67 1026 38 1003 q 106 1050 96 1050 q 115 1056 113 1050 q 194 1060 119 1060 l 254 1060 l 389 1058 l 408 1044 q 436 1031 426 1031 q 483 992 443 1031 q 524 947 524 954 q 533 921 524 940 q 543 857 543 901 q 529 717 543 803 q 519 680 526 696 q 510 647 513 664 q 488 583 507 619 q 468 540 468 547 q 464 532 468 536 z "}}}
